{
.appVersion = "3151";
.formatVersion = 3;
customParameters = (
{
name = panose;
value = (
2,
0,
5,
3,
2,
0,
0,
2,
0,
4
);
},
{
name = fsType;
value = (
);
},
{
name = "Use Typo Metrics";
value = 1;
}
);
date = "2023-01-25 13:41:35 +0000";
familyName = "Fauna One";
featurePrefixes = (
{
automatic = 1;
code = "languagesystem DFLT dflt;

languagesystem latn dflt;
languagesystem latn CAT;
";
name = Languagesystems;
},
{
code = "#
# Feature definitions
#

###
# OpenType Layout feature definitions
# Format: Adobe FDK for OpenType (AFDKO) version 2.5
# Generated on: 2013-11-20 9:14
# Generated by: Fontlab
# Tool options: fea-inline-lookups: yes, fea-inline-classes: 0, fea-additional-tables: yes, fea-table-overrides: no
# Font path: /Users/etunni/Documents/TIPOGRAFIAS 2013/Fauna/FaunaOne.otf.vfb
# Font PostScript name: FaunaOne
# Font copyright: Copyright (c) 2013, Eduardo Tunni (http://www.tipo.net.ar edu@tipo.net.ar), with Reserved Font Name 'Fauna'
#
# Totals:
# Languagesystems: 1
# GSUB lookups: 0
# GPOS lookups: 2
# GPOS features: 2 (cpsp, kern)

#
# Languagesystem definitions
#

#
# Lookup definitions
#
feature cpsp {
# GPOS feature: Capital Spacing
# Lookups: 1

  script latn; # Latin
    lookup cpsp_latn_1 {
    # GPOS lookup 2, type 1 (Single adjustment)
      pos [\\A \\B \\D \\Eth \\E \\F \\H \\I \\J \\K \\L \\Lslash \\M \\N \\O \\P \\Q \\R \\S \\T \\U \\V \\W \\X \\Y \\Z \\germandbls \\zero \\one \\two \\three \\four \\five \\six \\seven \\eight \\nine \\florin \\cent \\dollar \\Euro \\sterling \\Oslash \\Odieresis \\Oacute \\Ocircumflex \\Ograve \\Otilde \\Iacute \\Icircumflex \\Igrave \\Idieresis \\Eacute \\Ecircumflex \\Edieresis \\Egrave \\Uacute \\Ucircumflex \\Ugrave \\Udieresis \\Ntilde \\C \\Ccedilla \\Adieresis \\Aring \\Agrave \\Atilde \\Acircumflex \\Aacute \\G \\Scaron \\Zcaron \\Yacute \\Ydieresis \\OE \\yen \\AE \\Thorn \\percent \\perthousand] <7 0 20 0>;
    } cpsp_latn_1;

} cpsp;

feature kern {
# GPOS feature: Kerning
# Lookups: 1


glyphs = (
{
glyphname = A;
lastChange = "2023-01-25 13:55:37 +0000";
layers = (
{
anchors = (
{
name = bottom;
pos = (322,0);
},
{
name = ogonek;
pos = (579,10);
},
{
name = top;
pos = (322,730);
}
);
background = {
shapes = (
{
closed = 1;
nodes = (
(536,8,o),
(547,0,o),
(566,0,cs),
(644,0,l),
(644,52,l),
(596,59,l),
(374,730,l),
(268,730,l),
(47,59,l),
(-1,52,l),
(-1,0,l),
(77,0,ls),
(96,0,o),
(107,8,o),
(113,26,cs),
(178,224,l),
(465,224,l),
(530,26,ls,{
name = hr00;
})
);
},
{
closed = 1;
nodes = (
(445,286,l),
(198,286,l),
(319,655,l),
(324,655,l)
);
}
);
};
layerId = master01;
shapes = (
{
closed = 1;
nodes = (
(536,8,o),
(547,0,o),
(566,0,cs),
(644,0,l),
(644,52,l),
(596,59,l),
(374,730,l),
(268,730,l),
(47,59,l),
(-1,52,l),
(-1,0,l),
(77,0,ls),
(96,0,o),
(107,8,o),
(113,26,cs),
(178,224,l),
(465,224,l),
(530,26,ls,{
name = hr00;
})
);
},
{
closed = 1;
nodes = (
(445,286,l),
(198,286,l),
(319,655,l),
(324,655,l)
);
}
);
width = 643;
}
);
unicode = 65;
},
{
glyphname = Aacute;
lastChange = "2023-01-25 14:54:15 +0000";
layers = (
{
background = {
shapes = (
{
closed = 1;
nodes = (
(536,8,o),
(547,0,o),
(566,0,cs),
(644,0,l),
(644,52,l),
(596,59,l),
(374,730,l),
(268,730,l),
(47,59,l),
(-1,52,l),
(-1,0,l),
(77,0,ls),
(96,0,o),
(107,8,o),
(113,26,cs),
(178,224,l),
(465,224,l),
(530,26,ls,{
name = hr00;
})
);
},
{
closed = 1;
nodes = (
(445,286,l),
(198,286,l),
(319,655,l),
(324,655,l)
);
},
{
closed = 1;
nodes = (
(398,967,l),
(206,841,l),
(234,795,l),
(436,900,l,{
name = hr00;
})
);
}
);
};
layerId = master01;
shapes = (
{
ref = A;
},
{
pos = (157,0);
ref = acutecomb.case;
}
);
width = 643;
}
);
unicode = 193;
},
{
glyphname = Abreve;
lastChange = "2023-01-25 14:54:15 +0000";
layers = (
{
background = {
shapes = (
{
closed = 1;
nodes = (
(536,8,o),
(547,0,o),
(566,0,cs),
(644,0,l),
(644,52,l),
(596,59,l),
(374,730,l),
(268,730,l),
(47,59,l),
(-1,52,l),
(-1,0,l),
(77,0,ls),
(96,0,o),
(107,8,o),
(113,26,cs),
(178,224,l),
(465,224,l),
(530,26,ls,{
name = hr00;
})
);
},
{
closed = 1;
nodes = (
(445,286,l),
(198,286,l),
(319,655,l),
(324,655,l)
);
},
{
closed = 1;
nodes = (
(391,892,o),
(366,866,o),
(321,866,cs),
(279,866,o),
(251,896,o),
(251,940,c),
(195,940,l),
(195,858,o),
(245,803,o),
(321,803,cs),
(404,803,o),
(448,851,o),
(448,940,c),
(391,940,l,{
name = hr00;
})
);
}
);
};
layerId = master01;
shapes = (
{
ref = A;
},
{
pos = (109,0);
ref = brevecomb.case;
}
);
width = 643;
}
);
unicode = 258;
},
{
glyphname = Acircumflex;
lastChange = "2023-01-25 14:54:15 +0000";
layers = (
{
background = {
shapes = (
{
closed = 1;
nodes = (
(536,8,o),
(547,0,o),
(566,0,cs),
(644,0,l),
(644,52,l),
(596,59,l),
(374,730,l),
(268,730,l),
(47,59,l),
(-1,52,l),
(-1,0,l),
(77,0,ls),
(96,0,o),
(107,8,o),
(113,26,cs),
(178,224,l),
(465,224,l),
(530,26,ls,{
name = hr00;
})
);
},
{
closed = 1;
nodes = (
(445,286,l),
(198,286,l),
(319,655,l),
(324,655,l)
);
},
{
closed = 1;
nodes = (
(342,968,l),
(300,968,l),
(178,825,l),
(210,792,l),
(321,890,l),
(433,792,l),
(465,825,l,{
name = hr00;
})
);
}
);
};
layerId = master01;
shapes = (
{
ref = A;
},
{
pos = (121,0);
ref = circumflexcomb.case;
}
);
width = 643;
}
);
unicode = 194;
},
{
glyphname = Adieresis;
lastChange = "2023-01-25 14:54:15 +0000";
layers = (
{
background = {
shapes = (
{
closed = 1;
nodes = (
(536,8,o),
(547,0,o),
(566,0,cs),
(644,0,l),
(644,52,l),
(596,59,l),
(374,730,l),
(268,730,l),
(47,59,l),
(-1,52,l),
(-1,0,l),
(77,0,ls),
(96,0,o),
(107,8,o),
(113,26,cs),
(178,224,l),
(465,224,l),
(530,26,ls,{
name = hr00;
})
);
},
{
closed = 1;
nodes = (
(445,286,l),
(198,286,l),
(319,655,l),
(324,655,l)
);
},
{
closed = 1;
nodes = (
(168,847,o),
(191,824,o),
(218,824,cs),
(245,824,o),
(268,847,o),
(268,874,cs),
(268,901,o),
(245,924,o),
(218,924,cs),
(191,924,o),
(168,901,o),
(168,874,cs,{
name = hr00;
})
);
},
{
closed = 1;
nodes = (
(373,847,o),
(396,824,o),
(423,824,cs),
(450,824,o),
(473,847,o),
(473,874,cs),
(473,901,o),
(450,924,o),
(423,924,cs),
(396,924,o),
(373,901,o),
(373,874,cs)
);
}
);
};
layerId = master01;
shapes = (
{
ref = A;
},
{
pos = (81,0);
ref = dieresiscomb.case;
}
);
width = 643;
}
);
unicode = 196;
},
{
glyphname = Agrave;
lastChange = "2023-01-25 14:54:15 +0000";
layers = (
{
background = {
shapes = (
{
closed = 1;
nodes = (
(536,8,o),
(547,0,o),
(566,0,cs),
(644,0,l),
(644,52,l),
(596,59,l),
(374,730,l),
(268,730,l),
(47,59,l),
(-1,52,l),
(-1,0,l),
(77,0,ls),
(96,0,o),
(107,8,o),
(113,26,cs),
(178,224,l),
(465,224,l),
(530,26,ls,{
name = hr00;
})
);
},
{
closed = 1;
nodes = (
(445,286,l),
(198,286,l),
(319,655,l),
(324,655,l)
);
},
{
closed = 1;
nodes = (
(245,967,l),
(436,841,l),
(409,795,l),
(206,900,l,{
name = hr00;
})
);
}
);
};
layerId = master01;
shapes = (
{
ref = A;
},
{
pos = (169,0);
ref = gravecomb.case;
}
);
width = 643;
}
);
unicode = 192;
},
{
glyphname = Amacron;
lastChange = "2023-01-25 14:54:15 +0000";
layers = (
{
background = {
shapes = (
{
closed = 1;
nodes = (
(536,8,o),
(547,0,o),
(566,0,cs),
(644,0,l),
(644,52,l),
(596,59,l),
(374,730,l),
(268,730,l),
(47,59,l),
(-1,52,l),
(-1,0,l),
(77,0,ls),
(96,0,o),
(107,8,o),
(113,26,cs),
(178,224,l),
(465,224,l),
(530,26,ls,{
name = hr00;
})
);
},
{
closed = 1;
nodes = (
(445,286,l),
(198,286,l),
(319,655,l),
(324,655,l)
);
},
{
closed = 1;
nodes = (
(448,920,l),
(194,920,l),
(194,853,l),
(448,853,l,{
name = hr00;
})
);
}
);
};
layerId = master01;
shapes = (
{
ref = A;
},
{
pos = (145,0);
ref = macroncomb.case;
}
);
width = 643;
}
);
unicode = 256;
},
{
glyphname = Aogonek;
lastChange = "2023-01-25 14:54:15 +0000";
layers = (
{
background = {
shapes = (
{
closed = 1;
nodes = (
(536,8,o),
(547,0,o),
(566,0,cs),
(644,0,l),
(644,52,l),
(596,59,l),
(374,730,l),
(268,730,l),
(47,59,l),
(-1,52,l),
(-1,0,l),
(77,0,ls),
(96,0,o),
(107,8,o),
(113,26,cs),
(178,224,l),
(465,224,l),
(530,26,ls,{
name = hr00;
})
);
},
{
closed = 1;
nodes = (
(445,286,l),
(198,286,l),
(319,655,l),
(324,655,l)
);
},
{
closed = 1;
nodes = (
(544,30,l),
(508,8,ls),
(446,-30,o),
(411,-63,o),
(411,-120,cs),
(411,-178,o),
(445,-215,o),
(515,-215,cs),
(571,-215,o),
(619,-171,o),
(644,-122,c),
(606,-98,l),
(590,-127,o),
(562,-161,o),
(520,-161,cs),
(484,-161,o),
(463,-140,o),
(463,-109,cs),
(463,-80,o),
(473,-56,o),
(519,-27,cs),
(611,30,l,{
name = hr00;
})
);
}
);
};
layerId = master01;
shapes = (
{
ref = A;
},
{
pos = (300,-20);
ref = ogonekcomb;
}
);
width = 643;
}
);
unicode = 260;
},
{
glyphname = Aring;
lastChange = "2023-01-25 14:54:15 +0000";
layers = (
{
background = {
shapes = (
{
closed = 1;
nodes = (
(536,8,o),
(547,0,o),
(566,0,cs),
(644,0,l),
(644,52,l),
(596,59,l),
(374,730,l),
(268,730,l),
(47,59,l),
(-1,52,l),
(-1,0,l),
(77,0,ls),
(96,0,o),
(107,8,o),
(113,26,cs),
(178,224,l),
(465,224,l),
(530,26,ls,{
name = hr00;
})
);
},
{
closed = 1;
nodes = (
(445,286,l),
(198,286,l),
(319,655,l),
(324,655,l)
);
},
{
closed = 1;
nodes = (
(248,991,o),
(210,946,o),
(210,883,cs),
(210,825,o),
(253,776,o),
(320,776,cs),
(393,776,o),
(433,819,o),
(433,883,cs),
(433,941,o),
(388,991,o),
(320,991,cs,{
name = hr00;
})
);
},
{
closed = 1;
nodes = (
(352,945,o),
(373,916,o),
(373,883,cs),
(373,848,o),
(356,821,o),
(320,821,cs),
(288,821,o),
(268,851,o),
(268,883,cs),
(268,919,o),
(286,945,o),
(320,945,cs)
);
}
);
};
layerId = master01;
shapes = (
{
ref = A;
},
{
pos = (130,0);
ref = ringcomb.case;
}
);
width = 643;
}
);
unicode = 197;
},
{
glyphname = Aringacute;
lastChange = "2023-01-25 14:54:15 +0000";
layers = (
{
background = {
shapes = (
{
closed = 1;
nodes = (
(536,8,o),
(547,0,o),
(566,0,cs),
(644,0,l),
(644,52,l),
(596,59,l),
(374,730,l),
(268,730,l),
(47,59,l),
(-1,52,l),
(-1,0,l),
(77,0,ls),
(96,0,o),
(107,8,o),
(113,26,cs),
(178,224,l),
(465,224,l),
(530,26,ls,{
name = hr00;
})
);
},
{
closed = 1;
nodes = (
(445,286,l),
(198,286,l),
(319,655,l),
(324,655,l)
);
},
{
closed = 1;
nodes = (
(250,993,o),
(212,948,o),
(212,885,cs),
(212,827,o),
(255,778,o),
(322,778,cs),
(395,778,o),
(435,821,o),
(435,885,cs),
(435,900,o),
(432,915,o),
(426,928,c),
(523,977,l),
(484,1043,l),
(392,971,l),
(373,984,o),
(349,993,o),
(322,993,cs,{
name = hr00;
})
);
},
{
closed = 1;
nodes = (
(354,947,o),
(375,918,o),
(375,885,cs),
(375,850,o),
(358,823,o),
(322,823,cs),
(290,823,o),
(270,853,o),
(270,885,cs),
(270,921,o),
(288,947,o),
(322,947,cs)
);
}
);
};
layerId = master01;
shapes = (
{
ref = A;
},
{
pos = (130,0);
ref = ringcomb.case;
},
{
pos = (157,263);
ref = acutecomb.case;
}
);
width = 643;
}
);
unicode = 506;
},
{
glyphname = Atilde;
lastChange = "2023-01-25 14:54:15 +0000";
layers = (
{
background = {
shapes = (
{
closed = 1;
nodes = (
(536,8,o),
(547,0,o),
(566,0,cs),
(644,0,l),
(644,52,l),
(596,59,l),
(374,730,l),
(268,730,l),
(47,59,l),
(-1,52,l),
(-1,0,l),
(77,0,ls),
(96,0,o),
(107,8,o),
(113,26,cs),
(178,224,l),
(465,224,l),
(530,26,ls,{
name = hr00;
})
);
},
{
closed = 1;
nodes = (
(445,286,l),
(198,286,l),
(319,655,l),
(324,655,l)
);
},
{
closed = 1;
nodes = (
(423,916,o),
(409,900,o),
(385,900,cs),
(354,900,o),
(295,936,o),
(250,936,cs,{
name = hr01;
}),
(211,936,o),
(182,908,o),
(164,841,c),
(211,827,l),
(219,855,o),
(234,870,o),
(258,870,cs),
(289,870,o),
(346,834,o),
(392,834,cs,{
name = hr02;
}),
(431,834,o),
(461,863,o),
(478,929,c),
(431,944,l)
);
}
);
};
layerId = master01;
shapes = (
{
ref = A;
},
{
pos = (113,0);
ref = tildecomb.case;
}
);
width = 643;
}
);
unicode = 195;
},
{
glyphname = AE;
lastChange = "2023-01-25 13:55:37 +0000";
layers = (
{
anchors = (
{
name = bottom;
pos = (466,0);
},
{
name = top;
pos = (466,730);
}
);
background = {
shapes = (
{
closed = 1;
nodes = (
(77,0,ls),
(96,0,o),
(107,8,o),
(113,26,cs),
(205,311,l),
(439,311,l),
(439,59,l),
(377,52,l),
(377,0,l),
(828,0,ls),
(848,0,o),
(859,10,o),
(859,31,cs),
(859,160,l),
(807,160,l),
(799,54,l),
(519,54,l),
(519,311,l),
(803,311,l),
(803,366,l),
(519,366,l),
(519,675,l),
(789,675,l),
(797,566,l),
(849,566,l),
(849,699,ls),
(849,719,o),
(838,730,o),
(818,730,cs),
(268,730,l),
(47,59,l),
(-1,52,l),
(-1,0,l,{
name = hr00;
})
);
},
{
closed = 1;
nodes = (
(324,675,l),
(439,675,l),
(439,366,l),
(223,366,l)
);
}
);
};
layerId = master01;
shapes = (
{
closed = 1;
nodes = (
(77,0,ls),
(96,0,o),
(107,8,o),
(113,26,cs),
(205,311,l),
(439,311,l),
(439,59,l),
(377,52,l),
(377,0,l),
(828,0,ls),
(848,0,o),
(859,10,o),
(859,31,cs),
(859,160,l),
(807,160,l),
(799,54,l),
(519,54,l),
(519,311,l),
(803,311,l),
(803,366,l),
(519,366,l),
(519,675,l),
(789,675,l),
(797,566,l),
(849,566,l),
(849,699,ls),
(849,719,o),
(838,730,o),
(818,730,cs),
(268,730,l),
(47,59,l),
(-1,52,l),
(-1,0,l,{
name = hr00;
})
);
},
{
closed = 1;
nodes = (
(324,675,l),
(439,675,l),
(439,366,l),
(223,366,l)
);
}
);
width = 932;
}
);
unicode = 198;
},
{
glyphname = AEacute;
lastChange = "2023-01-25 14:54:15 +0000";
layers = (
{
background = {
shapes = (
{
closed = 1;
nodes = (
(77,0,ls),
(96,0,o),
(107,8,o),
(113,26,cs),
(205,311,l),
(439,311,l),
(439,59,l),
(377,52,l),
(377,0,l),
(828,0,ls),
(848,0,o),
(859,10,o),
(859,31,cs),
(859,160,l),
(807,160,l),
(799,54,l),
(519,54,l),
(519,311,l),
(803,311,l),
(803,366,l),
(519,366,l),
(519,675,l),
(789,675,l),
(797,566,l),
(849,566,l),
(849,699,ls),
(849,719,o),
(838,730,o),
(818,730,cs),
(268,730,l),
(47,59,l),
(-1,52,l),
(-1,0,l,{
name = hr00;
})
);
},
{
closed = 1;
nodes = (
(324,675,l),
(439,675,l),
(439,366,l),
(223,366,l)
);
},
{
closed = 1;
nodes = (
(631,969,l),
(439,843,l),
(467,797,l),
(669,902,l,{
name = hr00;
})
);
}
);
};
layerId = master01;
shapes = (
{
ref = AE;
},
{
pos = (301,0);
ref = acutecomb.case;
}
);
width = 932;
}
);
unicode = 508;
},
{
glyphname = B;
lastChange = "2023-01-25 13:55:37 +0000";
layers = (
{
anchors = (
{
name = bottom;
pos = (322,0);
},
{
name = center;
pos = (322,365);
},
{
name = top;
pos = (322,730);
}
);
background = {
shapes = (
{
closed = 1;
nodes = (
(73,678,l),
(136,670,l),
(136,59,l),
(73,52,l),
(73,0,l),
(370,0,ls),
(519,0,o),
(596,68,o),
(596,200,cs),
(596,294,o),
(536,361,o),
(438,375,c),
(516,390,o),
(564,452,o),
(564,539,cs,{
name = hr01;
}),
(564,658,o),
(478,730,o),
(335,730,cs),
(73,730,l)
);
},
{
closed = 1;
nodes = (
(330,675,ls),
(428,675,o),
(485,625,o),
(485,539,cs),
(485,447,o),
(438,400,o),
(348,400,cs),
(279,400,l),
(279,345,l),
(348,345,ls),
(456,345,o),
(517,293,o),
(517,200,cs,{
name = hr02;
}),
(517,102,o),
(469,55,o),
(368,55,cs),
(216,55,l),
(216,675,l)
);
}
);
};
layerId = master01;
shapes = (
{
closed = 1;
nodes = (
(73,678,l),
(136,670,l),
(136,59,l),
(73,52,l),
(73,0,l),
(370,0,ls),
(519,0,o),
(596,68,o),
(596,200,cs),
(596,294,o),
(536,361,o),
(438,375,c),
(516,390,o),
(564,452,o),
(564,539,cs,{
name = hr01;
}),
(564,658,o),
(478,730,o),
(335,730,cs),
(73,730,l)
);
},
{
closed = 1;
nodes = (
(330,675,ls),
(428,675,o),
(485,625,o),
(485,539,cs),
(485,447,o),
(438,400,o),
(348,400,cs),
(279,400,l),
(279,345,l),
(348,345,ls),
(456,345,o),
(517,293,o),
(517,200,cs,{
name = hr02;
}),
(517,102,o),
(469,55,o),
(368,55,cs),
(216,55,l),
(216,675,l)
);
}
);
width = 644;
}
);
unicode = 66;
},
{
glyphname = C;
lastChange = "2023-01-25 13:55:37 +0000";
layers = (
{
anchors = (
{
name = bottom;
pos = (311,0);
},
{
name = top;
pos = (311,730);
}
);
background = {
shapes = (
{
closed = 1;
nodes = (
(401,683,o),
(471,663,o),
(537,627,c),
(563,687,l),
(487,725,o),
(413,744,o),
(340,744,cs),
(169,744,o),
(61,601,o),
(61,374,cs),
(61,135,o),
(168,-15,o),
(339,-15,cs),
(470,-15,o),
(553,66,o),
(588,229,c),
(519,245,l),
(494,111,o),
(436,46,o),
(340,46,cs),
(218,46,o),
(141,174,o),
(141,377,cs),
(141,568,o),
(216,683,o),
(340,683,cs,{
name = hr00;
})
);
}
);
};
layerId = master01;
shapes = (
{
closed = 1;
nodes = (
(401,683,o),
(471,663,o),
(537,627,c),
(563,687,l),
(487,725,o),
(413,744,o),
(340,744,cs),
(169,744,o),
(61,601,o),
(61,374,cs),
(61,135,o),
(168,-15,o),
(339,-15,cs),
(470,-15,o),
(553,66,o),
(588,229,c),
(519,245,l),
(494,111,o),
(436,46,o),
(340,46,cs),
(218,46,o),
(141,174,o),
(141,377,cs),
(141,568,o),
(216,683,o),
(340,683,cs,{
name = hr00;
})
);
}
);
width = 621;
}
);
unicode = 67;
},
{
glyphname = Cacute;
lastChange = "2023-01-25 14:54:15 +0000";
layers = (
{
background = {
shapes = (
{
closed = 1;
nodes = (
(401,683,o),
(471,663,o),
(537,627,c),
(563,687,l),
(487,725,o),
(413,744,o),
(340,744,cs),
(169,744,o),
(61,601,o),
(61,374,cs),
(61,135,o),
(168,-15,o),
(339,-15,cs),
(470,-15,o),
(553,66,o),
(588,229,c),
(519,245,l),
(494,111,o),
(436,46,o),
(340,46,cs),
(218,46,o),
(141,174,o),
(141,377,cs),
(141,568,o),
(216,683,o),
(340,683,cs,{
name = hr00;
})
);
},
{
closed = 1;
nodes = (
(427,969,l),
(235,843,l),
(263,797,l),
(465,902,l,{
name = hr00;
})
);
}
);
};
layerId = master01;
shapes = (
{
ref = C;
},
{
pos = (146,0);
ref = acutecomb.case;
}
);
width = 621;
}
);
unicode = 262;
},
{
glyphname = Ccaron;
lastChange = "2023-01-25 14:54:15 +0000";
layers = (
{
background = {
shapes = (
{
closed = 1;
nodes = (
(401,683,o),
(471,663,o),
(537,627,c),
(563,687,l),
(487,725,o),
(413,744,o),
(340,744,cs),
(169,744,o),
(61,601,o),
(61,374,cs),
(61,135,o),
(168,-15,o),
(339,-15,cs),
(470,-15,o),
(553,66,o),
(588,229,c),
(519,245,l),
(494,111,o),
(436,46,o),
(340,46,cs),
(218,46,o),
(141,174,o),
(141,377,cs),
(141,568,o),
(216,683,o),
(340,683,cs,{
name = hr00;
})
);
},
{
closed = 1;
nodes = (
(368,802,l),
(326,802,l),
(204,945,l),
(236,978,l),
(347,880,l),
(459,978,l),
(491,945,l,{
name = hr00;
})
);
}
);
};
layerId = master01;
shapes = (
{
ref = C;
},
{
pos = (110,0);
ref = caroncomb.case;
}
);
width = 621;
}
);
unicode = 268;
},
{
glyphname = Ccedilla;
lastChange = "2023-01-25 14:54:15 +0000";
layers = (
{
background = {
shapes = (
{
closed = 1;
nodes = (
(401,683,o),
(471,663,o),
(537,627,c),
(563,687,l),
(487,725,o),
(413,744,o),
(340,744,cs),
(169,744,o),
(61,601,o),
(61,374,cs),
(61,135,o),
(168,-15,o),
(339,-15,cs),
(470,-15,o),
(553,66,o),
(588,229,c),
(519,245,l),
(494,111,o),
(436,46,o),
(340,46,cs),
(218,46,o),
(141,174,o),
(141,377,cs),
(141,568,o),
(216,683,o),
(340,683,cs,{
name = hr00;
})
);
},
{
closed = 1;
nodes = (
(400,-241,o),
(439,-204,o),
(439,-144,cs),
(439,-96,o),
(405,-70,o),
(325,-57,c),
(337,0,l),
(306,0,l),
(287,-82,l),
(336,-92,ls),
(372,-100,o),
(389,-116,o),
(389,-143,cs),
(389,-174,o),
(369,-194,o),
(337,-194,cs),
(311,-194,o),
(293,-175,o),
(293,-146,c),
(241,-146,l),
(241,-205,o),
(277,-241,o),
(336,-241,c,{
name = hr00;
})
);
}
);
};
layerId = master01;
shapes = (
{
ref = C;
},
{
pos = (179,0);
ref = cedillacomb;
}
);
width = 621;
}
);
unicode = 199;
},
{
glyphname = Ccircumflex;
lastChange = "2023-01-25 14:54:15 +0000";
layers = (
{
background = {
shapes = (
{
closed = 1;
nodes = (
(401,683,o),
(471,663,o),
(537,627,c),
(563,687,l),
(487,725,o),
(413,744,o),
(340,744,cs),
(169,744,o),
(61,601,o),
(61,374,cs),
(61,135,o),
(168,-15,o),
(339,-15,cs),
(470,-15,o),
(553,66,o),
(588,229,c),
(519,245,l),
(494,111,o),
(436,46,o),
(340,46,cs),
(218,46,o),
(141,174,o),
(141,377,cs),
(141,568,o),
(216,683,o),
(340,683,cs,{
name = hr00;
})
);
},
{
closed = 1;
nodes = (
(368,970,l),
(326,970,l),
(204,827,l),
(236,794,l),
(347,892,l),
(459,794,l),
(491,827,l,{
name = hr00;
})
);
}
);
};
layerId = master01;
shapes = (
{
ref = C;
},
{
pos = (110,0);
ref = circumflexcomb.case;
}
);
width = 621;
}
);
unicode = 264;
},
{
glyphname = Cdotaccent;
lastChange = "2023-01-25 14:54:15 +0000";
layers = (
{
background = {
shapes = (
{
closed = 1;
nodes = (
(401,683,o),
(471,663,o),
(537,627,c),
(563,687,l),
(487,725,o),
(413,744,o),
(340,744,cs),
(169,744,o),
(61,601,o),
(61,374,cs),
(61,135,o),
(168,-15,o),
(339,-15,cs),
(470,-15,o),
(553,66,o),
(588,229,c),
(519,245,l),
(494,111,o),
(436,46,o),
(340,46,cs),
(218,46,o),
(141,174,o),
(141,377,cs),
(141,568,o),
(216,683,o),
(340,683,cs,{
name = hr00;
})
);
},
{
closed = 1;
nodes = (
(296,848,o),
(319,825,o),
(347,825,cs),
(374,825,o),
(398,848,o),
(398,876,cs),
(398,903,o),
(374,927,o),
(347,927,cs),
(319,927,o),
(296,903,o),
(296,876,cs,{
name = hr00;
})
);
}
);
};
layerId = master01;
shapes = (
{
ref = C;
},
{
pos = (165,0);
ref = dotaccentcomb.case;
}
);
width = 621;
}
);
unicode = 266;
},
{
glyphname = D;
lastChange = "2023-01-25 13:55:37 +0000";
layers = (
{
anchors = (
{
name = bottom;
pos = (356,0);
},
{
name = center;
pos = (356,365);
},
{
name = top;
pos = (356,730);
}
);
background = {
shapes = (
{
closed = 1;
nodes = (
(73,678,l),
(135,670,l),
(135,59,l),
(73,52,l),
(73,0,l),
(347,0,ls),
(546,0,o),
(654,128,o),
(654,365,cs),
(654,602,o),
(546,730,o),
(347,730,cs),
(73,730,l,{
name = hr00;
})
);
},
{
closed = 1;
nodes = (
(351,675,ls),
(496,675,o),
(575,565,o),
(575,365,cs),
(575,165,o),
(496,55,o),
(351,55,cs),
(215,55,l),
(215,675,l)
);
}
);
};
layerId = master01;
shapes = (
{
closed = 1;
nodes = (
(73,678,l),
(135,670,l),
(135,59,l),
(73,52,l),
(73,0,l),
(347,0,ls),
(546,0,o),
(654,128,o),
(654,365,cs),
(654,602,o),
(546,730,o),
(347,730,cs),
(73,730,l,{
name = hr00;
})
);
},
{
closed = 1;
nodes = (
(351,675,ls),
(496,675,o),
(575,565,o),
(575,365,cs),
(575,165,o),
(496,55,o),
(351,55,cs),
(215,55,l),
(215,675,l)
);
}
);
width = 711;
}
);
unicode = 68;
},
{
glyphname = Eth;
lastChange = "2023-01-25 13:55:05 +0000";
layers = (
{
background = {
shapes = (
{
closed = 1;
nodes = (
(73,678,l),
(135,670,l),
(135,59,l),
(73,52,l),
(73,0,l),
(347,0,ls),
(546,0,o),
(654,128,o),
(654,365,cs),
(654,602,o),
(546,730,o),
(347,730,cs),
(73,730,l,{
name = hr00;
})
);
},
{
closed = 1;
nodes = (
(351,675,ls),
(496,675,o),
(575,565,o),
(575,365,cs),
(575,165,o),
(496,55,o),
(351,55,cs),
(215,55,l),
(215,675,l)
);
},
{
closed = 1;
nodes = (
(385,392,l),
(40,392,l),
(40,337,l),
(385,337,l,{
name = hr00;
})
);
}
);
};
layerId = master01;
shapes = (
{
alignment = -1;
ref = D;
},
{
alignment = -1;
pos = (23,0);
ref = ethbar;
}
);
width = 718;
}
);
unicode = 208;
},
{
glyphname = Dcaron;
lastChange = "2023-01-25 14:54:15 +0000";
layers = (
{
background = {
shapes = (
{
closed = 1;
nodes = (
(73,678,l),
(135,670,l),
(135,59,l),
(73,52,l),
(73,0,l),
(347,0,ls),
(546,0,o),
(654,128,o),
(654,365,cs),
(654,602,o),
(546,730,o),
(347,730,cs),
(73,730,l,{
name = hr00;
})
);
},
{
closed = 1;
nodes = (
(351,675,ls),
(496,675,o),
(575,565,o),
(575,365,cs),
(575,165,o),
(496,55,o),
(351,55,cs),
(215,55,l),
(215,675,l)
);
},
{
closed = 1;
nodes = (
(346,802,l),
(304,802,l),
(182,945,l),
(214,978,l),
(325,880,l),
(437,978,l),
(469,945,l,{
name = hr00;
})
);
}
);
};
layerId = master01;
shapes = (
{
ref = D;
},
{
pos = (155,0);
ref = caroncomb.case;
}
);
width = 711;
}
);
unicode = 270;
},
{
glyphname = Dcroat;
lastChange = "2023-01-25 13:55:22 +0000";
layers = (
{
background = {
shapes = (
{
closed = 1;
nodes = (
(73,678,l),
(135,670,l),
(135,59,l),
(73,52,l),
(73,0,l),
(347,0,ls),
(546,0,o),
(654,128,o),
(654,365,cs),
(654,602,o),
(546,730,o),
(347,730,cs),
(73,730,l,{
name = hr00;
})
);
},
{
closed = 1;
nodes = (
(351,675,ls),
(496,675,o),
(575,565,o),
(575,365,cs),
(575,165,o),
(496,55,o),
(351,55,cs),
(215,55,l),
(215,675,l)
);
},
{
closed = 1;
nodes = (
(385,392,l),
(40,392,l),
(40,337,l),
(385,337,l,{
name = hr00;
})
);
}
);
};
layerId = master01;
shapes = (
{
ref = Eth;
}
);
width = 718;
}
);
unicode = 272;
},
{
glyphname = E;
lastChange = "2023-01-25 13:55:37 +0000";
layers = (
{
anchors = (
{
name = bottom;
pos = (314,0);
},
{
name = ogonek;
pos = (564,10);
},
{
name = top;
pos = (314,730);
},
{
name = topleft;
pos = (20,730);
}
);
background = {
shapes = (
{
closed = 1;
nodes = (
(135,59,l),
(73,52,l),
(73,0,l),
(523,0,ls),
(543,0,o),
(554,10,o),
(554,31,cs),
(554,160,l),
(502,160,l),
(494,54,l),
(215,54,l),
(215,343,l),
(499,343,l),
(499,398,l),
(215,398,l),
(215,675,l),
(485,675,l),
(492,566,l),
(544,566,l),
(544,699,ls),
(544,720,o),
(534,730,o),
(514,730,cs),
(73,730,l),
(73,678,l),
(135,670,l,{
name = hr00;
})
);
}
);
};
layerId = master01;
shapes = (
{
closed = 1;
nodes = (
(135,59,l),
(73,52,l),
(73,0,l),
(523,0,ls),
(543,0,o),
(554,10,o),
(554,31,cs),
(554,160,l),
(502,160,l),
(494,54,l),
(215,54,l),
(215,343,l),
(499,343,l),
(499,398,l),
(215,398,l),
(215,675,l),
(485,675,l),
(492,566,l),
(544,566,l),
(544,699,ls),
(544,720,o),
(534,730,o),
(514,730,cs),
(73,730,l),
(73,678,l),
(135,670,l,{
name = hr00;
})
);
}
);
width = 627;
}
);
unicode = 69;
},
{
glyphname = Eacute;
lastChange = "2023-01-25 14:54:15 +0000";
layers = (
{
background = {
shapes = (
{
closed = 1;
nodes = (
(135,59,l),
(73,52,l),
(73,0,l),
(523,0,ls),
(543,0,o),
(554,10,o),
(554,31,cs),
(554,160,l),
(502,160,l),
(494,54,l),
(215,54,l),
(215,343,l),
(499,343,l),
(499,398,l),
(215,398,l),
(215,675,l),
(485,675,l),
(492,566,l),
(544,566,l),
(544,699,ls),
(544,720,o),
(534,730,o),
(514,730,cs),
(73,730,l),
(73,678,l),
(135,670,l,{
name = hr00;
})
);
},
{
closed = 1;
nodes = (
(421,967,l),
(229,841,l),
(257,795,l),
(459,900,l,{
name = hr00;
})
);
}
);
};
layerId = master01;
shapes = (
{
ref = E;
},
{
pos = (149,0);
ref = acutecomb.case;
}
);
width = 627;
}
);
unicode = 201;
},
{
glyphname = Ebreve;
lastChange = "2023-01-25 14:54:15 +0000";
layers = (
{
background = {
shapes = (
{
closed = 1;
nodes = (
(135,59,l),
(73,52,l),
(73,0,l),
(523,0,ls),
(543,0,o),
(554,10,o),
(554,31,cs),
(554,160,l),
(502,160,l),
(494,54,l),
(215,54,l),
(215,343,l),
(499,343,l),
(499,398,l),
(215,398,l),
(215,675,l),
(485,675,l),
(492,566,l),
(544,566,l),
(544,699,ls),
(544,720,o),
(534,730,o),
(514,730,cs),
(73,730,l),
(73,678,l),
(135,670,l,{
name = hr00;
})
);
},
{
closed = 1;
nodes = (
(393,892,o),
(368,866,o),
(323,866,cs),
(281,866,o),
(253,896,o),
(253,940,c),
(197,940,l),
(197,858,o),
(247,803,o),
(323,803,cs),
(406,803,o),
(450,851,o),
(450,940,c),
(393,940,l,{
name = hr00;
})
);
}
);
};
layerId = master01;
shapes = (
{
ref = E;
},
{
pos = (101,0);
ref = brevecomb.case;
}
);
width = 627;
}
);
unicode = 276;
},
{
glyphname = Ecaron;
lastChange = "2023-01-25 14:54:15 +0000";
layers = (
{
background = {
shapes = (
{
closed = 1;
nodes = (
(135,59,l),
(73,52,l),
(73,0,l),
(523,0,ls),
(543,0,o),
(554,10,o),
(554,31,cs),
(554,160,l),
(502,160,l),
(494,54,l),
(215,54,l),
(215,343,l),
(499,343,l),
(499,398,l),
(215,398,l),
(215,675,l),
(485,675,l),
(492,566,l),
(544,566,l),
(544,699,ls),
(544,720,o),
(534,730,o),
(514,730,cs),
(73,730,l),
(73,678,l),
(135,670,l,{
name = hr00;
})
);
},
{
closed = 1;
nodes = (
(334,802,l),
(292,802,l),
(170,945,l),
(202,978,l),
(313,880,l),
(425,978,l),
(457,945,l,{
name = hr00;
})
);
}
);
};
layerId = master01;
shapes = (
{
ref = E;
},
{
pos = (113,0);
ref = caroncomb.case;
}
);
width = 627;
}
);
unicode = 282;
},
{
glyphname = Ecircumflex;
lastChange = "2023-01-25 14:54:15 +0000";
layers = (
{
background = {
shapes = (
{
closed = 1;
nodes = (
(135,59,l),
(73,52,l),
(73,0,l),
(523,0,ls),
(543,0,o),
(554,10,o),
(554,31,cs),
(554,160,l),
(502,160,l),
(494,54,l),
(215,54,l),
(215,343,l),
(499,343,l),
(499,398,l),
(215,398,l),
(215,675,l),
(485,675,l),
(492,566,l),
(544,566,l),
(544,699,ls),
(544,720,o),
(534,730,o),
(514,730,cs),
(73,730,l),
(73,678,l),
(135,670,l,{
name = hr00;
})
);
},
{
closed = 1;
nodes = (
(355,968,l),
(313,968,l),
(191,825,l),
(223,792,l),
(334,890,l),
(446,792,l),
(478,825,l,{
name = hr00;
})
);
}
);
};
layerId = master01;
shapes = (
{
ref = E;
},
{
pos = (113,0);
ref = circumflexcomb.case;
}
);
width = 627;
}
);
unicode = 202;
},
{
glyphname = Edieresis;
lastChange = "2023-01-25 14:54:15 +0000";
layers = (
{
background = {
shapes = (
{
closed = 1;
nodes = (
(135,59,l),
(73,52,l),
(73,0,l),
(523,0,ls),
(543,0,o),
(554,10,o),
(554,31,cs),
(554,160,l),
(502,160,l),
(494,54,l),
(215,54,l),
(215,343,l),
(499,343,l),
(499,398,l),
(215,398,l),
(215,675,l),
(485,675,l),
(492,566,l),
(544,566,l),
(544,699,ls),
(544,720,o),
(534,730,o),
(514,730,cs),
(73,730,l),
(73,678,l),
(135,670,l,{
name = hr00;
})
);
},
{
closed = 1;
nodes = (
(172,847,o),
(195,824,o),
(222,824,cs),
(249,824,o),
(272,847,o),
(272,874,cs),
(272,901,o),
(249,924,o),
(222,924,cs),
(195,924,o),
(172,901,o),
(172,874,cs,{
name = hr00;
})
);
},
{
closed = 1;
nodes = (
(377,847,o),
(400,824,o),
(427,824,cs),
(454,824,o),
(477,847,o),
(477,874,cs),
(477,901,o),
(454,924,o),
(427,924,cs),
(400,924,o),
(377,901,o),
(377,874,cs)
);
}
);
};
layerId = master01;
shapes = (
{
ref = E;
},
{
pos = (73,0);
ref = dieresiscomb.case;
}
);
width = 627;
}
);
unicode = 203;
},
{
glyphname = Edotaccent;
lastChange = "2023-01-25 14:54:15 +0000";
layers = (
{
background = {
shapes = (
{
closed = 1;
nodes = (
(135,59,l),
(73,52,l),
(73,0,l),
(523,0,ls),
(543,0,o),
(554,10,o),
(554,31,cs),
(554,160,l),
(502,160,l),
(494,54,l),
(215,54,l),
(215,343,l),
(499,343,l),
(499,398,l),
(215,398,l),
(215,675,l),
(485,675,l),
(492,566,l),
(544,566,l),
(544,699,ls),
(544,720,o),
(534,730,o),
(514,730,cs),
(73,730,l),
(73,678,l),
(135,670,l,{
name = hr00;
})
);
},
{
closed = 1;
nodes = (
(280,848,o),
(303,825,o),
(331,825,cs),
(358,825,o),
(382,848,o),
(382,876,cs),
(382,903,o),
(358,927,o),
(331,927,cs),
(303,927,o),
(280,903,o),
(280,876,cs,{
name = hr00;
})
);
}
);
};
layerId = master01;
shapes = (
{
ref = E;
},
{
pos = (168,0);
ref = dotaccentcomb.case;
}
);
width = 627;
}
);
unicode = 278;
},
{
glyphname = Egrave;
lastChange = "2023-01-25 14:54:15 +0000";
layers = (
{
background = {
shapes = (
{
closed = 1;
nodes = (
(135,59,l),
(73,52,l),
(73,0,l),
(523,0,ls),
(543,0,o),
(554,10,o),
(554,31,cs),
(554,160,l),
(502,160,l),
(494,54,l),
(215,54,l),
(215,343,l),
(499,343,l),
(499,398,l),
(215,398,l),
(215,675,l),
(485,675,l),
(492,566,l),
(544,566,l),
(544,699,ls),
(544,720,o),
(534,730,o),
(514,730,cs),
(73,730,l),
(73,678,l),
(135,670,l,{
name = hr00;
})
);
},
{
closed = 1;
nodes = (
(231,967,l),
(422,841,l),
(395,795,l),
(192,900,l,{
name = hr00;
})
);
}
);
};
layerId = master01;
shapes = (
{
ref = E;
},
{
pos = (161,0);
ref = gravecomb.case;
}
);
width = 627;
}
);
unicode = 200;
},
{
glyphname = Emacron;
lastChange = "2023-01-25 14:54:15 +0000";
layers = (
{
background = {
shapes = (
{
closed = 1;
nodes = (
(135,59,l),
(73,52,l),
(73,0,l),
(523,0,ls),
(543,0,o),
(554,10,o),
(554,31,cs),
(554,160,l),
(502,160,l),
(494,54,l),
(215,54,l),
(215,343,l),
(499,343,l),
(499,398,l),
(215,398,l),
(215,675,l),
(485,675,l),
(492,566,l),
(544,566,l),
(544,699,ls),
(544,720,o),
(534,730,o),
(514,730,cs),
(73,730,l),
(73,678,l),
(135,670,l,{
name = hr00;
})
);
},
{
closed = 1;
nodes = (
(470,920,l),
(216,920,l),
(216,853,l),
(470,853,l,{
name = hr00;
})
);
}
);
};
layerId = master01;
shapes = (
{
ref = E;
},
{
pos = (137,0);
ref = macroncomb.case;
}
);
width = 627;
}
);
unicode = 274;
},
{
glyphname = Eogonek;
lastChange = "2023-01-25 14:54:15 +0000";
layers = (
{
background = {
shapes = (
{
closed = 1;
nodes = (
(135,59,l),
(73,52,l),
(73,0,l),
(523,0,ls),
(543,0,o),
(554,10,o),
(554,31,cs),
(554,160,l),
(502,160,l),
(494,54,l),
(215,54,l),
(215,343,l),
(499,343,l),
(499,398,l),
(215,398,l),
(215,675,l),
(485,675,l),
(492,566,l),
(544,566,l),
(544,699,ls),
(544,720,o),
(534,730,o),
(514,730,cs),
(73,730,l),
(73,678,l),
(135,670,l,{
name = hr00;
})
);
},
{
closed = 1;
nodes = (
(454,30,l),
(418,8,ls),
(356,-30,o),
(321,-63,o),
(321,-120,cs),
(321,-178,o),
(355,-215,o),
(425,-215,cs),
(481,-215,o),
(529,-171,o),
(554,-122,c),
(516,-98,l),
(500,-127,o),
(472,-161,o),
(430,-161,cs),
(394,-161,o),
(373,-140,o),
(373,-109,cs),
(373,-80,o),
(383,-56,o),
(429,-27,cs),
(521,30,l,{
name = hr00;
})
);
}
);
};
layerId = master01;
shapes = (
{
ref = E;
},
{
pos = (285,-20);
ref = ogonekcomb;
}
);
width = 627;
}
);
unicode = 280;
},
{
glyphname = F;
lastChange = "2023-01-25 13:55:37 +0000";
layers = (
{
anchors = (
{
name = bottom;
pos = (293,0);
},
{
name = top;
pos = (293,730);
}
);
background = {
shapes = (
{
closed = 1;
nodes = (
(215,59,l),
(215,333,l),
(482,333,l),
(482,388,l),
(215,388,l),
(215,675,l),
(468,675,l),
(475,563,l),
(528,563,l),
(528,699,ls),
(528,719,o),
(517,730,o),
(497,730,cs),
(73,730,l),
(73,678,l),
(135,670,l),
(135,59,l),
(73,52,l),
(73,0,l),
(297,0,l),
(297,51,l,{
name = hr00;
})
);
}
);
};
layerId = master01;
shapes = (
{
closed = 1;
nodes = (
(215,59,l),
(215,333,l),
(482,333,l),
(482,388,l),
(215,388,l),
(215,675,l),
(468,675,l),
(475,563,l),
(528,563,l),
(528,699,ls),
(528,719,o),
(517,730,o),
(497,730,cs),
(73,730,l),
(73,678,l),
(135,670,l),
(135,59,l),
(73,52,l),
(73,0,l),
(297,0,l),
(297,51,l,{
name = hr00;
})
);
}
);
width = 585;
}
);
unicode = 70;
},
{
glyphname = G;
lastChange = "2023-01-25 13:55:37 +0000";
layers = (
{
anchors = (
{
name = bottom;
pos = (319,0);
},
{
name = top;
pos = (319,730);
}
);
background = {
shapes = (
{
closed = 1;
nodes = (
(502,-14,o),
(590,71,o),
(590,224,cs),
(590,346,ls),
(590,367,o),
(579,376,o),
(554,376,cs),
(382,376,l),
(382,318,l),
(514,311,l),
(514,227,ls),
(514,114,o),
(451,47,o),
(344,47,cs),
(217,47,o),
(141,170,o),
(141,377,cs),
(141,569,o),
(218,683,o),
(349,683,cs),
(413,683,o),
(486,663,o),
(553,627,c),
(580,687,l),
(498,726,o),
(424,744,o),
(349,744,cs),
(172,744,o),
(61,602,o),
(61,374,cs),
(61,131,o),
(167,-14,o),
(344,-14,cs,{
name = hr00;
})
);
}
);
};
layerId = master01;
shapes = (
{
closed = 1;
nodes = (
(502,-14,o),
(590,71,o),
(590,224,cs),
(590,346,ls),
(590,367,o),
(579,376,o),
(554,376,cs),
(382,376,l),
(382,318,l),
(514,311,l),
(514,227,ls),
(514,114,o),
(451,47,o),
(344,47,cs),
(217,47,o),
(141,170,o),
(141,377,cs),
(141,569,o),
(218,683,o),
(349,683,cs),
(413,683,o),
(486,663,o),
(553,627,c),
(580,687,l),
(498,726,o),
(424,744,o),
(349,744,cs),
(172,744,o),
(61,602,o),
(61,374,cs),
(61,131,o),
(167,-14,o),
(344,-14,cs,{
name = hr00;
})
);
}
);
width = 637;
}
);
unicode = 71;
},
{
glyphname = Gbreve;
lastChange = "2023-01-25 14:54:15 +0000";
layers = (
{
background = {
shapes = (
{
closed = 1;
nodes = (
(502,-14,o),
(590,71,o),
(590,224,cs),
(590,346,ls),
(590,367,o),
(579,376,o),
(554,376,cs),
(382,376,l),
(382,318,l),
(514,311,l),
(514,227,ls),
(514,114,o),
(451,47,o),
(344,47,cs),
(217,47,o),
(141,170,o),
(141,377,cs),
(141,569,o),
(218,683,o),
(349,683,cs),
(413,683,o),
(486,663,o),
(553,627,c),
(580,687,l),
(498,726,o),
(424,744,o),
(349,744,cs),
(172,744,o),
(61,602,o),
(61,374,cs),
(61,131,o),
(167,-14,o),
(344,-14,cs,{
name = hr00;
})
);
},
{
closed = 1;
nodes = (
(425,892,o),
(400,866,o),
(355,866,cs),
(313,866,o),
(285,896,o),
(285,940,c),
(229,940,l),
(229,858,o),
(279,803,o),
(355,803,cs),
(438,803,o),
(482,851,o),
(482,940,c),
(425,940,l,{
name = hr00;
})
);
}
);
};
layerId = master01;
shapes = (
{
ref = G;
},
{
pos = (106,0);
ref = brevecomb.case;
}
);
width = 637;
}
);
unicode = 286;
},
{
glyphname = Gcircumflex;
lastChange = "2023-01-25 14:54:15 +0000";
layers = (
{
background = {
shapes = (
{
closed = 1;
nodes = (
(502,-14,o),
(590,71,o),
(590,224,cs),
(590,346,ls),
(590,367,o),
(579,376,o),
(554,376,cs),
(382,376,l),
(382,318,l),
(514,311,l),
(514,227,ls),
(514,114,o),
(451,47,o),
(344,47,cs),
(217,47,o),
(141,170,o),
(141,377,cs),
(141,569,o),
(218,683,o),
(349,683,cs),
(413,683,o),
(486,663,o),
(553,627,c),
(580,687,l),
(498,726,o),
(424,744,o),
(349,744,cs),
(172,744,o),
(61,602,o),
(61,374,cs),
(61,131,o),
(167,-14,o),
(344,-14,cs,{
name = hr00;
})
);
},
{
closed = 1;
nodes = (
(376,970,l),
(334,970,l),
(212,827,l),
(244,794,l),
(355,892,l),
(467,794,l),
(499,827,l,{
name = hr00;
})
);
}
);
};
layerId = master01;
shapes = (
{
ref = G;
},
{
pos = (118,0);
ref = circumflexcomb.case;
}
);
width = 637;
}
);
unicode = 284;
},
{
glyphname = Gcommaaccent;
lastChange = "2023-01-25 14:54:15 +0000";
layers = (
{
background = {
shapes = (
{
closed = 1;
nodes = (
(502,-14,o),
(590,71,o),
(590,224,cs),
(590,346,ls),
(590,367,o),
(579,376,o),
(554,376,cs),
(382,376,l),
(382,318,l),
(514,311,l),
(514,227,ls),
(514,114,o),
(451,47,o),
(344,47,cs),
(217,47,o),
(141,170,o),
(141,377,cs),
(141,569,o),
(218,683,o),
(349,683,cs),
(413,683,o),
(486,663,o),
(553,627,c),
(580,687,l),
(498,726,o),
(424,744,o),
(349,744,cs),
(172,744,o),
(61,602,o),
(61,374,cs),
(61,131,o),
(167,-14,o),
(344,-14,cs,{
name = hr00;
})
);
},
{
closed = 1;
nodes = (
(319,-253,o),
(380,-195,o),
(380,-115,cs),
(380,-89,o),
(363,-68,o),
(334,-68,cs),
(305,-68,o),
(287,-89,o),
(287,-115,cs),
(287,-138,o),
(300,-153,o),
(300,-176,cs),
(300,-210,o),
(285,-231,o),
(260,-255,c),
(282,-281,l,{
name = hr00;
})
);
}
);
};
layerId = master01;
shapes = (
{
ref = G;
},
{
pos = (202,0);
ref = commaaccentcomb;
}
);
width = 637;
}
);
unicode = 290;
},
{
glyphname = Gdotaccent;
lastChange = "2023-01-25 14:54:15 +0000";
layers = (
{
background = {
shapes = (
{
closed = 1;
nodes = (
(502,-14,o),
(590,71,o),
(590,224,cs),
(590,346,ls),
(590,367,o),
(579,376,o),
(554,376,cs),
(382,376,l),
(382,318,l),
(514,311,l),
(514,227,ls),
(514,114,o),
(451,47,o),
(344,47,cs),
(217,47,o),
(141,170,o),
(141,377,cs),
(141,569,o),
(218,683,o),
(349,683,cs),
(413,683,o),
(486,663,o),
(553,627,c),
(580,687,l),
(498,726,o),
(424,744,o),
(349,744,cs),
(172,744,o),
(61,602,o),
(61,374,cs),
(61,131,o),
(167,-14,o),
(344,-14,cs,{
name = hr00;
})
);
},
{
closed = 1;
nodes = (
(305,848,o),
(328,825,o),
(356,825,cs),
(383,825,o),
(407,848,o),
(407,876,cs),
(407,903,o),
(383,927,o),
(356,927,cs),
(328,927,o),
(305,903,o),
(305,876,cs,{
name = hr00;
})
);
}
);
};
layerId = master01;
shapes = (
{
ref = G;
},
{
pos = (173,0);
ref = dotaccentcomb.case;
}
);
width = 637;
}
);
unicode = 288;
},
{
glyphname = H;
lastChange = "2023-01-25 13:55:37 +0000";
layers = (
{
anchors = (
{
name = bottom;
pos = (388,0);
},
{
name = center;
pos = (388,365);
},
{
name = top;
pos = (388,730);
},
{
name = topleft;
pos = (20,730);
}
);
background = {
shapes = (
{
closed = 1;
nodes = (
(701,730,l),
(590,730,ls),
(570,730,o),
(559,719,o),
(559,699,cs),
(559,396,l),
(215,396,l),
(215,699,ls),
(215,719,o),
(204,730,o),
(184,730,cs),
(73,730,l),
(73,678,l),
(135,670,l),
(135,60,l),
(73,52,l),
(73,0,l),
(184,0,ls),
(205,0,o),
(215,10,o),
(215,31,cs),
(215,334,l),
(559,334,l),
(559,31,ls),
(559,11,o),
(570,0,o),
(590,0,cs),
(701,0,l),
(701,52,l),
(639,60,l),
(639,672,l),
(701,678,l,{
name = hr00;
})
);
}
);
};
layerId = master01;
shapes = (
{
closed = 1;
nodes = (
(701,730,l),
(590,730,ls),
(570,730,o),
(559,719,o),
(559,699,cs),
(559,396,l),
(215,396,l),
(215,699,ls),
(215,719,o),
(204,730,o),
(184,730,cs),
(73,730,l),
(73,678,l),
(135,670,l),
(135,60,l),
(73,52,l),
(73,0,l),
(184,0,ls),
(205,0,o),
(215,10,o),
(215,31,cs),
(215,334,l),
(559,334,l),
(559,31,ls),
(559,11,o),
(570,0,o),
(590,0,cs),
(701,0,l),
(701,52,l),
(639,60,l),
(639,672,l),
(701,678,l,{
name = hr00;
})
);
}
);
width = 775;
}
);
unicode = 72;
},
{
glyphname = Hbar;
lastChange = "2023-01-25 13:55:05 +0000";
layers = (
{
background = {
shapes = (
{
closed = 1;
nodes = (
(701,730,l),
(590,730,ls),
(570,730,o),
(559,719,o),
(559,699,cs),
(559,396,l),
(215,396,l),
(215,699,ls),
(215,719,o),
(204,730,o),
(184,730,cs),
(73,730,l),
(73,678,l),
(135,670,l),
(135,60,l),
(73,52,l),
(73,0,l),
(184,0,ls),
(205,0,o),
(215,10,o),
(215,31,cs),
(215,334,l),
(559,334,l),
(559,31,ls),
(559,11,o),
(570,0,o),
(590,0,cs),
(701,0,l),
(701,52,l),
(639,60,l),
(639,672,l),
(701,678,l,{
name = hr00;
})
);
},
{
closed = 1;
nodes = (
(724,560,l),
(51,560,l),
(51,505,l),
(724,505,l,{
name = hr00;
})
);
}
);
};
layerId = master01;
shapes = (
{
alignment = -1;
ref = H;
},
{
alignment = -1;
pos = (18,168);
ref = ethbar;
scale = (1.95,1);
}
);
width = 775;
}
);
unicode = 294;
},
{
glyphname = Hcircumflex;
lastChange = "2023-01-25 14:54:15 +0000";
layers = (
{
background = {
shapes = (
{
closed = 1;
nodes = (
(701,730,l),
(590,730,ls),
(570,730,o),
(559,719,o),
(559,699,cs),
(559,396,l),
(215,396,l),
(215,699,ls),
(215,719,o),
(204,730,o),
(184,730,cs),
(73,730,l),
(73,678,l),
(135,670,l),
(135,60,l),
(73,52,l),
(73,0,l),
(184,0,ls),
(205,0,o),
(215,10,o),
(215,31,cs),
(215,334,l),
(559,334,l),
(559,31,ls),
(559,11,o),
(570,0,o),
(590,0,cs),
(701,0,l),
(701,52,l),
(639,60,l),
(639,672,l),
(701,678,l,{
name = hr00;
})
);
},
{
closed = 1;
nodes = (
(407,970,l),
(365,970,l),
(243,827,l),
(275,794,l),
(386,892,l),
(498,794,l),
(530,827,l,{
name = hr00;
})
);
}
);
};
layerId = master01;
shapes = (
{
ref = H;
},
{
pos = (187,0);
ref = circumflexcomb.case;
}
);
width = 775;
}
);
unicode = 292;
},
{
glyphname = I;
lastChange = "2023-01-25 13:55:37 +0000";
layers = (
{
anchors = (
{
name = bottom;
pos = (175,0);
},
{
name = ogonek;
pos = (315,10);
},
{
name = top;
pos = (175,730);
},
{
name = topleft;
pos = (20,730);
}
);
background = {
shapes = (
{
closed = 1;
nodes = (
(277,730,l),
(73,730,l),
(73,678,l),
(135,670,l),
(135,59,l),
(73,52,l),
(73,0,l),
(277,0,l),
(277,52,l),
(215,59,l),
(215,670,l),
(277,678,l,{
name = hr00;
})
);
}
);
};
layerId = master01;
shapes = (
{
closed = 1;
nodes = (
(277,730,l),
(73,730,l),
(73,678,l),
(135,670,l),
(135,59,l),
(73,52,l),
(73,0,l),
(277,0,l),
(277,52,l),
(215,59,l),
(215,670,l),
(277,678,l,{
name = hr00;
})
);
}
);
width = 350;
}
);
unicode = 73;
},
{
glyphname = IJ;
lastChange = "2023-01-25 13:55:22 +0000";
layers = (
{
background = {
shapes = (
{
closed = 1;
nodes = (
(277,730,l),
(73,730,l),
(73,678,l),
(135,670,l),
(135,59,l),
(73,52,l),
(73,0,l),
(277,0,l),
(277,52,l),
(215,59,l),
(215,670,l),
(277,678,l,{
name = hr00;
})
);
},
{
closed = 1;
nodes = (
(761,720,o),
(750,730,o),
(728,730,cs),
(587,730,l),
(587,680,l),
(682,672,l),
(682,207,ls),
(682,101,o),
(642,47,o),
(563,47,cs),
(483,47,o),
(441,102,o),
(441,207,cs),
(441,234,l),
(369,234,l),
(369,204,ls),
(369,61,o),
(436,-14,o),
(564,-14,cs),
(695,-14,o),
(761,60,o),
(761,204,cs),
(761,699,l,{
name = hr00;
})
);
}
);
};
layerId = master01;
shapes = (
{
ref = I;
},
{
pos = (350,0);
ref = J;
}
);
width = 856;
}
);
unicode = 306;
},
{
glyphname = Iacute;
lastChange = "2023-01-25 14:54:15 +0000";
layers = (
{
background = {
shapes = (
{
closed = 1;
nodes = (
(277,730,l),
(73,730,l),
(73,678,l),
(135,670,l),
(135,59,l),
(73,52,l),
(73,0,l),
(277,0,l),
(277,52,l),
(215,59,l),
(215,670,l),
(277,678,l,{
name = hr00;
})
);
},
{
closed = 1;
nodes = (
(269,967,l),
(77,841,l),
(105,795,l),
(307,900,l,{
name = hr00;
})
);
}
);
};
layerId = master01;
shapes = (
{
ref = I;
},
{
pos = (10,0);
ref = acutecomb.case;
}
);
width = 350;
}
);
unicode = 205;
},
{
glyphname = Ibreve;
lastChange = "2023-01-25 14:54:15 +0000";
layers = (
{
background = {
shapes = (
{
closed = 1;
nodes = (
(277,730,l),
(73,730,l),
(73,678,l),
(135,670,l),
(135,59,l),
(73,52,l),
(73,0,l),
(277,0,l),
(277,52,l),
(215,59,l),
(215,670,l),
(277,678,l,{
name = hr00;
})
);
},
{
closed = 1;
nodes = (
(245,892,o),
(220,866,o),
(175,866,cs),
(133,866,o),
(105,896,o),
(105,940,c),
(49,940,l),
(49,858,o),
(99,803,o),
(175,803,cs),
(258,803,o),
(302,851,o),
(302,940,c),
(245,940,l,{
name = hr00;
})
);
}
);
};
layerId = master01;
shapes = (
{
ref = I;
},
{
pos = (-38,0);
ref = brevecomb.case;
}
);
width = 350;
}
);
unicode = 300;
},
{
glyphname = Icircumflex;
lastChange = "2023-01-25 14:54:15 +0000";
layers = (
{
background = {
shapes = (
{
closed = 1;
nodes = (
(277,730,l),
(73,730,l),
(73,678,l),
(135,670,l),
(135,59,l),
(73,52,l),
(73,0,l),
(277,0,l),
(277,52,l),
(215,59,l),
(215,670,l),
(277,678,l,{
name = hr00;
})
);
},
{
closed = 1;
nodes = (
(210,968,l),
(168,968,l),
(46,825,l),
(78,792,l),
(189,890,l),
(301,792,l),
(333,825,l,{
name = hr00;
})
);
}
);
};
layerId = master01;
shapes = (
{
ref = I;
},
{
pos = (-26,0);
ref = circumflexcomb.case;
}
);
width = 350;
}
);
unicode = 206;
},
{
glyphname = Idieresis;
lastChange = "2023-01-25 14:54:15 +0000";
layers = (
{
background = {
shapes = (
{
closed = 1;
nodes = (
(277,730,l),
(73,730,l),
(73,678,l),
(135,670,l),
(135,59,l),
(73,52,l),
(73,0,l),
(277,0,l),
(277,52,l),
(215,59,l),
(215,670,l),
(277,678,l,{
name = hr00;
})
);
},
{
closed = 1;
nodes = (
(22,847,o),
(45,824,o),
(72,824,cs),
(99,824,o),
(122,847,o),
(122,874,cs),
(122,901,o),
(99,924,o),
(72,924,cs),
(45,924,o),
(22,901,o),
(22,874,cs,{
name = hr00;
})
);
},
{
closed = 1;
nodes = (
(227,847,o),
(250,824,o),
(277,824,cs),
(304,824,o),
(327,847,o),
(327,874,cs),
(327,901,o),
(304,924,o),
(277,924,cs),
(250,924,o),
(227,901,o),
(227,874,cs)
);
}
);
};
layerId = master01;
shapes = (
{
ref = I;
},
{
pos = (-66,0);
ref = dieresiscomb.case;
}
);
width = 350;
}
);
unicode = 207;
},
{
glyphname = Idotaccent;
lastChange = "2023-01-25 14:54:15 +0000";
layers = (
{
background = {
shapes = (
{
closed = 1;
nodes = (
(277,730,l),
(73,730,l),
(73,678,l),
(135,670,l),
(135,59,l),
(73,52,l),
(73,0,l),
(277,0,l),
(277,52,l),
(215,59,l),
(215,670,l),
(277,678,l,{
name = hr00;
})
);
},
{
closed = 1;
nodes = (
(124,848,o),
(147,825,o),
(175,825,cs),
(202,825,o),
(226,848,o),
(226,876,cs),
(226,903,o),
(202,927,o),
(175,927,cs),
(147,927,o),
(124,903,o),
(124,876,cs,{
name = hr00;
})
);
}
);
};
layerId = master01;
shapes = (
{
ref = I;
},
{
pos = (29,0);
ref = dotaccentcomb.case;
}
);
width = 350;
}
);
unicode = 304;
},
{
glyphname = Igrave;
lastChange = "2023-01-25 14:54:15 +0000";
layers = (
{
background = {
shapes = (
{
closed = 1;
nodes = (
(277,730,l),
(73,730,l),
(73,678,l),
(135,670,l),
(135,59,l),
(73,52,l),
(73,0,l),
(277,0,l),
(277,52,l),
(215,59,l),
(215,670,l),
(277,678,l,{
name = hr00;
})
);
},
{
closed = 1;
nodes = (
(115,967,l),
(306,841,l),
(279,795,l),
(76,900,l,{
name = hr00;
})
);
}
);
};
layerId = master01;
shapes = (
{
ref = I;
},
{
pos = (22,0);
ref = gravecomb.case;
}
);
width = 350;
}
);
unicode = 204;
},
{
glyphname = Imacron;
lastChange = "2023-01-25 14:54:15 +0000";
layers = (
{
background = {
shapes = (
{
closed = 1;
nodes = (
(277,730,l),
(73,730,l),
(73,678,l),
(135,670,l),
(135,59,l),
(73,52,l),
(73,0,l),
(277,0,l),
(277,52,l),
(215,59,l),
(215,670,l),
(277,678,l,{
name = hr00;
})
);
},
{
closed = 1;
nodes = (
(302,918,l),
(48,918,l),
(48,851,l),
(302,851,l,{
name = hr00;
})
);
}
);
};
layerId = master01;
shapes = (
{
ref = I;
},
{
pos = (-2,0);
ref = macroncomb.case;
}
);
width = 350;
}
);
unicode = 298;
},
{
glyphname = Iogonek;
lastChange = "2023-01-25 14:54:15 +0000";
layers = (
{
background = {
shapes = (
{
closed = 1;
nodes = (
(277,730,l),
(73,730,l),
(73,678,l),
(135,670,l),
(135,59,l),
(73,52,l),
(73,0,l),
(277,0,l),
(277,52,l),
(215,59,l),
(215,670,l),
(277,678,l,{
name = hr00;
})
);
},
{
closed = 1;
nodes = (
(192,30,l),
(156,8,ls),
(94,-30,o),
(59,-63,o),
(59,-120,cs),
(59,-178,o),
(93,-215,o),
(163,-215,cs),
(219,-215,o),
(267,-171,o),
(292,-122,c),
(254,-98,l),
(238,-127,o),
(210,-161,o),
(168,-161,cs),
(132,-161,o),
(111,-140,o),
(111,-109,cs),
(111,-80,o),
(121,-56,o),
(167,-27,cs),
(259,30,l,{
name = hr00;
})
);
}
);
};
layerId = master01;
shapes = (
{
ref = I;
},
{
pos = (36,-20);
ref = ogonekcomb;
}
);
width = 350;
}
);
unicode = 302;
},
{
glyphname = Itilde;
lastChange = "2023-01-25 14:54:15 +0000";
layers = (
{
background = {
shapes = (
{
closed = 1;
nodes = (
(277,730,l),
(73,730,l),
(73,678,l),
(135,670,l),
(135,59,l),
(73,52,l),
(73,0,l),
(277,0,l),
(277,52,l),
(215,59,l),
(215,670,l),
(277,678,l,{
name = hr00;
})
);
},
{
closed = 1;
nodes = (
(277,918,o),
(263,902,o),
(239,902,cs),
(208,902,o),
(149,938,o),
(104,938,cs,{
name = hr01;
}),
(65,938,o),
(36,910,o),
(18,843,c),
(65,829,l),
(73,857,o),
(88,872,o),
(112,872,cs),
(143,872,o),
(200,836,o),
(246,836,cs,{
name = hr02;
}),
(285,836,o),
(315,865,o),
(332,931,c),
(285,946,l)
);
}
);
};
layerId = master01;
shapes = (
{
ref = I;
},
{
pos = (-34,0);
ref = tildecomb.case;
}
);
width = 350;
}
);
unicode = 296;
},
{
glyphname = J;
lastChange = "2023-01-25 13:55:37 +0000";
layers = (
{
anchors = (
{
name = bottom;
pos = (253,0);
},
{
name = top;
pos = (253,730);
}
);
background = {
shapes = (
{
closed = 1;
nodes = (
(411,720,o),
(400,730,o),
(378,730,cs),
(237,730,l),
(237,680,l),
(332,672,l),
(332,207,ls),
(332,101,o),
(292,47,o),
(213,47,cs),
(133,47,o),
(91,102,o),
(91,207,cs),
(91,234,l),
(19,234,l),
(19,204,ls),
(19,61,o),
(86,-14,o),
(214,-14,cs),
(345,-14,o),
(411,60,o),
(411,204,cs),
(411,699,l,{
name = hr00;
})
);
}
);
};
layerId = master01;
shapes = (
{
closed = 1;
nodes = (
(411,720,o),
(400,730,o),
(378,730,cs),
(237,730,l),
(237,680,l),
(332,672,l),
(332,207,ls),
(332,101,o),
(292,47,o),
(213,47,cs),
(133,47,o),
(91,102,o),
(91,207,cs),
(91,234,l),
(19,234,l),
(19,204,ls),
(19,61,o),
(86,-14,o),
(214,-14,cs),
(345,-14,o),
(411,60,o),
(411,204,cs),
(411,699,l,{
name = hr00;
})
);
}
);
width = 506;
}
);
unicode = 74;
},
{
glyphname = Jcircumflex;
lastChange = "2023-01-25 14:54:15 +0000";
layers = (
{
background = {
shapes = (
{
closed = 1;
nodes = (
(411,720,o),
(400,730,o),
(378,730,cs),
(237,730,l),
(237,680,l),
(332,672,l),
(332,207,ls),
(332,101,o),
(292,47,o),
(213,47,cs),
(133,47,o),
(91,102,o),
(91,207,cs),
(91,234,l),
(19,234,l),
(19,204,ls),
(19,61,o),
(86,-14,o),
(214,-14,cs),
(345,-14,o),
(411,60,o),
(411,204,cs),
(411,699,l,{
name = hr00;
})
);
},
{
closed = 1;
nodes = (
(358,970,l),
(316,970,l),
(194,827,l),
(226,794,l),
(337,892,l),
(449,794,l),
(481,827,l,{
name = hr00;
})
);
}
);
};
layerId = master01;
shapes = (
{
ref = J;
},
{
pos = (52,0);
ref = circumflexcomb.case;
}
);
width = 506;
}
);
unicode = 308;
},
{
glyphname = K;
lastChange = "2023-01-25 13:55:37 +0000";
layers = (
{
anchors = (
{
name = bottom;
pos = (324,0);
},
{
name = top;
pos = (324,730);
}
);
background = {
shapes = (
{
closed = 1;
nodes = (
(617,730,l),
(534,730,ls),
(517,730,o),
(506,724,o),
(496,709,cs),
(298,396,l),
(215,396,l),
(215,699,ls),
(215,719,o),
(204,730,o),
(184,730,cs),
(73,730,l),
(73,678,l),
(135,671,l),
(135,57,l),
(73,51,l),
(73,0,l),
(184,0,ls),
(204,0,o),
(215,10,o),
(215,31,cs),
(215,343,l),
(294,343,l),
(505,20,ls),
(513,6,o),
(525,0,o),
(542,0,cs),
(626,0,l),
(626,51,l),
(571,59,l),
(365,368,l),
(562,671,l),
(617,678,l,{
name = hr00;
})
);
}
);
};
layerId = master01;
shapes = (
{
closed = 1;
nodes = (
(617,730,l),
(534,730,ls),
(517,730,o),
(506,724,o),
(496,709,cs),
(298,396,l),
(215,396,l),
(215,699,ls),
(215,719,o),
(204,730,o),
(184,730,cs),
(73,730,l),
(73,678,l),
(135,671,l),
(135,57,l),
(73,51,l),
(73,0,l),
(184,0,ls),
(204,0,o),
(215,10,o),
(215,31,cs),
(215,343,l),
(294,343,l),
(505,20,ls),
(513,6,o),
(525,0,o),
(542,0,cs),
(626,0,l),
(626,51,l),
(571,59,l),
(365,368,l),
(562,671,l),
(617,678,l,{
name = hr00;
})
);
}
);
width = 647;
}
);
unicode = 75;
},
{
glyphname = Kcommaaccent;
lastChange = "2023-01-25 14:54:15 +0000";
layers = (
{
background = {
shapes = (
{
closed = 1;
nodes = (
(617,730,l),
(534,730,ls),
(517,730,o),
(506,724,o),
(496,709,cs),
(298,396,l),
(215,396,l),
(215,699,ls),
(215,719,o),
(204,730,o),
(184,730,cs),
(73,730,l),
(73,678,l),
(135,671,l),
(135,57,l),
(73,51,l),
(73,0,l),
(184,0,ls),
(204,0,o),
(215,10,o),
(215,31,cs),
(215,343,l),
(294,343,l),
(505,20,ls),
(513,6,o),
(525,0,o),
(542,0,cs),
(626,0,l),
(626,51,l),
(571,59,l),
(365,368,l),
(562,671,l),
(617,678,l,{
name = hr00;
})
);
},
{
closed = 1;
nodes = (
(324,-253,o),
(385,-195,o),
(385,-115,cs),
(385,-89,o),
(368,-68,o),
(339,-68,cs),
(310,-68,o),
(292,-89,o),
(292,-115,cs),
(292,-138,o),
(305,-153,o),
(305,-176,cs),
(305,-210,o),
(290,-231,o),
(265,-255,c),
(287,-281,l,{
name = hr00;
})
);
}
);
};
layerId = master01;
shapes = (
{
ref = K;
},
{
pos = (207,0);
ref = commaaccentcomb;
}
);
width = 647;
}
);
unicode = 310;
},
{
glyphname = L;
lastChange = "2023-01-25 13:55:37 +0000";
layers = (
{
anchors = (
{
name = bottom;
pos = (257,0);
},
{
name = center;
pos = (257,365);
},
{
name = top;
pos = (257,730);
},
{
name = topright;
pos = (494,730);
}
);
background = {
shapes = (
{
closed = 1;
nodes = (
(297,678,l),
(297,730,l),
(73,730,l),
(73,678,l),
(135,670,l),
(135,59,l),
(73,52,l),
(73,0,l),
(473,0,ls),
(493,0,o),
(504,10,o),
(504,31,cs),
(504,170,l),
(452,170,l),
(444,54,l),
(215,54,l),
(215,670,l,{
name = hr00;
})
);
}
);
};
layerId = master01;
shapes = (
{
closed = 1;
nodes = (
(297,678,l),
(297,730,l),
(73,730,l),
(73,678,l),
(135,670,l),
(135,59,l),
(73,52,l),
(73,0,l),
(473,0,ls),
(493,0,o),
(504,10,o),
(504,31,cs),
(504,170,l),
(452,170,l),
(444,54,l),
(215,54,l),
(215,670,l,{
name = hr00;
})
);
}
);
width = 514;
}
);
unicode = 76;
},
{
glyphname = Lacute;
lastChange = "2023-01-25 14:54:15 +0000";
layers = (
{
background = {
shapes = (
{
closed = 1;
nodes = (
(297,678,l),
(297,730,l),
(73,730,l),
(73,678,l),
(135,670,l),
(135,59,l),
(73,52,l),
(73,0,l),
(473,0,ls),
(493,0,o),
(504,10,o),
(504,31,cs),
(504,170,l),
(452,170,l),
(444,54,l),
(215,54,l),
(215,670,l,{
name = hr00;
})
);
},
{
closed = 1;
nodes = (
(263,969,l),
(71,843,l),
(99,797,l),
(301,902,l,{
name = hr00;
})
);
}
);
};
layerId = master01;
shapes = (
{
ref = L;
},
{
pos = (92,0);
ref = acutecomb.case;
}
);
width = 514;
}
);
unicode = 313;
},
{
glyphname = Lcaron;
lastChange = "2023-01-25 14:54:15 +0000";
layers = (
{
background = {
shapes = (
{
closed = 1;
nodes = (
(297,678,l),
(297,730,l),
(73,730,l),
(73,678,l),
(135,670,l),
(135,59,l),
(73,52,l),
(73,0,l),
(473,0,ls),
(493,0,o),
(504,10,o),
(504,31,cs),
(504,170,l),
(452,170,l),
(444,54,l),
(215,54,l),
(215,670,l,{
name = hr00;
})
);
},
{
closed = 1;
nodes = (
(371,592,o),
(432,656,o),
(432,742,cs),
(432,768,o),
(415,789,o),
(386,789,cs),
(357,789,o),
(339,768,o),
(339,742,cs),
(339,714,o),
(352,696,o),
(352,669,cs),
(352,635,o),
(337,612,o),
(312,589,c),
(334,563,l,{
name = hr00;
})
);
}
);
};
layerId = master01;
shapes = (
{
ref = L;
},
{
pos = (56,0);
ref = caroncomb.case;
}
);
width = 514;
}
);
unicode = 317;
},
{
glyphname = Lcommaaccent;
lastChange = "2023-01-25 14:54:15 +0000";
layers = (
{
background = {
shapes = (
{
closed = 1;
nodes = (
(297,678,l),
(297,730,l),
(73,730,l),
(73,678,l),
(135,670,l),
(135,59,l),
(73,52,l),
(73,0,l),
(473,0,ls),
(493,0,o),
(504,10,o),
(504,31,cs),
(504,170,l),
(452,170,l),
(444,54,l),
(215,54,l),
(215,670,l,{
name = hr00;
})
);
},
{
closed = 1;
nodes = (
(292,-253,o),
(353,-195,o),
(353,-115,cs),
(353,-89,o),
(336,-68,o),
(307,-68,cs),
(278,-68,o),
(260,-89,o),
(260,-115,cs),
(260,-138,o),
(273,-153,o),
(273,-176,cs),
(273,-210,o),
(258,-231,o),
(233,-255,c),
(255,-281,l,{
name = hr00;
})
);
}
);
};
layerId = master01;
shapes = (
{
ref = L;
},
{
pos = (140,0);
ref = commaaccentcomb;
}
);
width = 514;
}
);
unicode = 315;
},
{
glyphname = Ldot;
lastChange = "2023-01-25 13:55:22 +0000";
layers = (
{
background = {
shapes = (
{
closed = 1;
nodes = (
(297,678,l),
(297,730,l),
(73,730,l),
(73,678,l),
(135,670,l),
(135,59,l),
(73,52,l),
(73,0,l),
(473,0,ls),
(493,0,o),
(504,10,o),
(504,31,cs),
(504,170,l),
(452,170,l),
(444,54,l),
(215,54,l),
(215,670,l,{
name = hr00;
})
);
},
{
closed = 1;
nodes = (
(303,378,o),
(328,353,o),
(358,353,cs),
(387,353,o),
(413,378,o),
(413,408,cs),
(413,437,o),
(387,463,o),
(358,463,cs),
(328,463,o),
(303,437,o),
(303,408,cs,{
name = hr00;
})
);
}
);
};
layerId = master01;
shapes = (
{
ref = L;
},
{
ref = periodcentered;
}
);
width = 514;
}
);
unicode = 319;
},
{
glyphname = Lslash;
lastChange = "2023-01-25 13:55:05 +0000";
layers = (
{
background = {
shapes = (
{
closed = 1;
nodes = (
(297,678,l),
(297,730,l),
(73,730,l),
(73,678,l),
(135,670,l),
(135,59,l),
(73,52,l),
(73,0,l),
(473,0,ls),
(493,0,o),
(504,10,o),
(504,31,cs),
(504,170,l),
(452,170,l),
(444,54,l),
(215,54,l),
(215,670,l,{
name = hr00;
})
);
},
{
closed = 1;
nodes = (
(302,458,l),
(50,357,l),
(50,301,l),
(302,402,l,{
name = hr00;
})
);
}
);
};
layerId = master01;
shapes = (
{
alignment = -1;
ref = L;
},
{
alignment = -1;
pos = (12,0);
ref = eslash;
}
);
width = 514;
}
);
unicode = 321;
},
{
glyphname = M;
lastChange = "2023-01-25 13:55:37 +0000";
layers = (
{
anchors = (
{
name = bottom;
pos = (494,0);
},
{
name = top;
pos = (494,730);
}
);
background = {
shapes = (
{
closed = 1;
nodes = (
(862,730,l),
(715,730,ls),
(698,730,o),
(686,722,o),
(680,705,cs),
(487,199,l),
(306,705,ls),
(299,722,o),
(288,730,o),
(271,730,cs),
(124,730,l),
(124,678,l),
(180,670,l),
(144,59,l),
(76,52,l),
(76,0,l),
(190,0,ls),
(209,0,o),
(221,10,o),
(222,29,cs),
(259,621,l),
(451,103,l),
(524,103,l),
(727,621,l),
(765,29,ls),
(766,10,o),
(777,0,o),
(797,0,cs),
(911,0,l),
(911,52,l),
(843,59,l),
(806,670,l),
(862,678,l,{
name = hr00;
})
);
}
);
};
layerId = master01;
shapes = (
{
closed = 1;
nodes = (
(862,730,l),
(715,730,ls),
(698,730,o),
(686,722,o),
(680,705,cs),
(487,199,l),
(306,705,ls),
(299,722,o),
(288,730,o),
(271,730,cs),
(124,730,l),
(124,678,l),
(180,670,l),
(144,59,l),
(76,52,l),
(76,0,l),
(190,0,ls),
(209,0,o),
(221,10,o),
(222,29,cs),
(259,621,l),
(451,103,l),
(524,103,l),
(727,621,l),
(765,29,ls),
(766,10,o),
(777,0,o),
(797,0,cs),
(911,0,l),
(911,52,l),
(843,59,l),
(806,670,l),
(862,678,l,{
name = hr00;
})
);
}
);
width = 987;
}
);
unicode = 77;
},
{
glyphname = N;
lastChange = "2023-01-25 13:55:37 +0000";
layers = (
{
anchors = (
{
name = bottom;
pos = (397,0);
},
{
name = top;
pos = (397,730);
}
);
background = {
shapes = (
{
closed = 1;
nodes = (
(730,730,l),
(618,730,ls),
(599,730,o),
(588,719,o),
(588,699,cs),
(588,126,l),
(238,710,ls),
(229,724,o),
(218,730,o),
(201,730,cs),
(73,730,l),
(73,678,l),
(135,670,l),
(135,59,l),
(73,52,l),
(73,0,l),
(184,0,ls),
(204,0,o),
(215,10,o),
(215,31,cs),
(215,603,l),
(565,20,ls),
(573,6,o),
(584,0,o),
(602,0,cs),
(668,0,l),
(668,670,l),
(730,678,l,{
name = hr00;
})
);
}
);
};
layerId = master01;
shapes = (
{
closed = 1;
nodes = (
(730,730,l),
(618,730,ls),
(599,730,o),
(588,719,o),
(588,699,cs),
(588,126,l),
(238,710,ls),
(229,724,o),
(218,730,o),
(201,730,cs),
(73,730,l),
(73,678,l),
(135,670,l),
(135,59,l),
(73,52,l),
(73,0,l),
(184,0,ls),
(204,0,o),
(215,10,o),
(215,31,cs),
(215,603,l),
(565,20,ls),
(573,6,o),
(584,0,o),
(602,0,cs),
(668,0,l),
(668,670,l),
(730,678,l,{
name = hr00;
})
);
}
);
width = 793;
}
);
unicode = 78;
},
{
glyphname = Nacute;
lastChange = "2023-01-25 14:54:15 +0000";
layers = (
{
background = {
shapes = (
{
closed = 1;
nodes = (
(730,730,l),
(618,730,ls),
(599,730,o),
(588,719,o),
(588,699,cs),
(588,126,l),
(238,710,ls),
(229,724,o),
(218,730,o),
(201,730,cs),
(73,730,l),
(73,678,l),
(135,670,l),
(135,59,l),
(73,52,l),
(73,0,l),
(184,0,ls),
(204,0,o),
(215,10,o),
(215,31,cs),
(215,603,l),
(565,20,ls),
(573,6,o),
(584,0,o),
(602,0,cs),
(668,0,l),
(668,670,l),
(730,678,l,{
name = hr00;
})
);
},
{
closed = 1;
nodes = (
(493,969,l),
(301,843,l),
(329,797,l),
(531,902,l,{
name = hr00;
})
);
}
);
};
layerId = master01;
shapes = (
{
ref = N;
},
{
pos = (232,0);
ref = acutecomb.case;
}
);
width = 793;
}
);
unicode = 323;
},
{
glyphname = Ncaron;
lastChange = "2023-01-25 14:54:15 +0000";
layers = (
{
background = {
shapes = (
{
closed = 1;
nodes = (
(730,730,l),
(618,730,ls),
(599,730,o),
(588,719,o),
(588,699,cs),
(588,126,l),
(238,710,ls),
(229,724,o),
(218,730,o),
(201,730,cs),
(73,730,l),
(73,678,l),
(135,670,l),
(135,59,l),
(73,52,l),
(73,0,l),
(184,0,ls),
(204,0,o),
(215,10,o),
(215,31,cs),
(215,603,l),
(565,20,ls),
(573,6,o),
(584,0,o),
(602,0,cs),
(668,0,l),
(668,670,l),
(730,678,l,{
name = hr00;
})
);
},
{
closed = 1;
nodes = (
(437,802,l),
(395,802,l),
(273,945,l),
(305,978,l),
(416,880,l),
(528,978,l),
(560,945,l,{
name = hr00;
})
);
}
);
};
layerId = master01;
shapes = (
{
ref = N;
},
{
pos = (196,0);
ref = caroncomb.case;
}
);
width = 793;
}
);
unicode = 327;
},
{
glyphname = Ncommaaccent;
lastChange = "2023-01-25 14:54:15 +0000";
layers = (
{
background = {
shapes = (
{
closed = 1;
nodes = (
(730,730,l),
(618,730,ls),
(599,730,o),
(588,719,o),
(588,699,cs),
(588,126,l),
(238,710,ls),
(229,724,o),
(218,730,o),
(201,730,cs),
(73,730,l),
(73,678,l),
(135,670,l),
(135,59,l),
(73,52,l),
(73,0,l),
(184,0,ls),
(204,0,o),
(215,10,o),
(215,31,cs),
(215,603,l),
(565,20,ls),
(573,6,o),
(584,0,o),
(602,0,cs),
(668,0,l),
(668,670,l),
(730,678,l,{
name = hr00;
})
);
},
{
closed = 1;
nodes = (
(389,-253,o),
(450,-195,o),
(450,-115,cs),
(450,-89,o),
(433,-68,o),
(404,-68,cs),
(375,-68,o),
(357,-89,o),
(357,-115,cs),
(357,-138,o),
(370,-153,o),
(370,-176,cs),
(370,-210,o),
(355,-231,o),
(330,-255,c),
(352,-281,l,{
name = hr00;
})
);
}
);
};
layerId = master01;
shapes = (
{
ref = N;
},
{
pos = (280,0);
ref = commaaccentcomb;
}
);
width = 793;
}
);
unicode = 325;
},
{
glyphname = Ntilde;
lastChange = "2023-01-25 14:54:15 +0000";
layers = (
{
background = {
shapes = (
{
closed = 1;
nodes = (
(730,730,l),
(618,730,ls),
(599,730,o),
(588,719,o),
(588,699,cs),
(588,126,l),
(238,710,ls),
(229,724,o),
(218,730,o),
(201,730,cs),
(73,730,l),
(73,678,l),
(135,670,l),
(135,59,l),
(73,52,l),
(73,0,l),
(184,0,ls),
(204,0,o),
(215,10,o),
(215,31,cs),
(215,603,l),
(565,20,ls),
(573,6,o),
(584,0,o),
(602,0,cs),
(668,0,l),
(668,670,l),
(730,678,l,{
name = hr00;
})
);
},
{
closed = 1;
nodes = (
(508,916,o),
(494,900,o),
(470,900,cs),
(439,900,o),
(380,936,o),
(335,936,cs,{
name = hr01;
}),
(296,936,o),
(267,908,o),
(249,841,c),
(296,827,l),
(304,855,o),
(319,870,o),
(343,870,cs),
(374,870,o),
(431,834,o),
(477,834,cs,{
name = hr02;
}),
(516,834,o),
(546,863,o),
(563,929,c),
(516,944,l)
);
}
);
};
layerId = master01;
shapes = (
{
ref = N;
},
{
pos = (188,0);
ref = tildecomb.case;
}
);
width = 793;
}
);
unicode = 209;
},
{
glyphname = Eng;
lastChange = "2023-01-25 13:55:37 +0000";
layers = (
{
anchors = (
{
name = bottom;
pos = (397,0);
},
{
name = top;
pos = (397,730);
}
);
background = {
shapes = (
{
closed = 1;
nodes = (
(617,-241,o),
(668,-181,o),
(668,-39,cs),
(668,670,l),
(730,678,l),
(730,730,l),
(618,730,ls),
(599,730,o),
(588,719,o),
(588,699,cs),
(588,146,l),
(238,710,ls),
(230,723,o),
(217,730,o),
(201,730,cs),
(73,730,l),
(73,678,l),
(135,670,l),
(135,59,l),
(73,52,l),
(73,0,l),
(184,0,ls),
(204,0,o),
(215,10,o),
(215,31,cs),
(215,603,l),
(589,-1,l),
(589,-37,ls),
(589,-140,o),
(560,-180,o),
(487,-180,cs),
(463,-180,o),
(434,-173,o),
(412,-162,c),
(392,-220,l),
(419,-233,o),
(462,-241,o),
(498,-241,c,{
name = hr00;
})
);
}
);
};
layerId = master01;
shapes = (
{
closed = 1;
nodes = (
(617,-241,o),
(668,-181,o),
(668,-39,cs),
(668,670,l),
(730,678,l),
(730,730,l),
(618,730,ls),
(599,730,o),
(588,719,o),
(588,699,cs),
(588,146,l),
(238,710,ls),
(230,723,o),
(217,730,o),
(201,730,cs),
(73,730,l),
(73,678,l),
(135,670,l),
(135,59,l),
(73,52,l),
(73,0,l),
(184,0,ls),
(204,0,o),
(215,10,o),
(215,31,cs),
(215,603,l),
(589,-1,l),
(589,-37,ls),
(589,-140,o),
(560,-180,o),
(487,-180,cs),
(463,-180,o),
(434,-173,o),
(412,-162,c),
(392,-220,l),
(419,-233,o),
(462,-241,o),
(498,-241,c,{
name = hr00;
})
);
}
);
width = 793;
}
);
unicode = 330;
},
{
glyphname = O;
lastChange = "2023-01-25 13:55:37 +0000";
layers = (
{
anchors = (
{
name = bottom;
pos = (354,0);
},
{
name = center;
pos = (354,365);
},
{
name = ogonek;
pos = (636,10);
},
{
name = top;
pos = (354,730);
},
{
name = topleft;
pos = (20,730);
},
{
name = topright;
pos = (687,730);
}
);
background = {
shapes = (
{
closed = 1;
nodes = (
(169,744,o),
(62,605,o),
(62,365,cs),
(62,125,o),
(169,-14,o),
(353,-14,cs),
(539,-14,o),
(646,125,o),
(646,365,cs),
(646,605,o),
(539,744,o),
(353,744,cs,{
name = hr00;
})
);
},
{
closed = 1;
nodes = (
(487,683,o),
(566,566,o),
(566,365,cs),
(566,164,o),
(487,47,o),
(353,47,cs),
(219,47,o),
(141,164,o),
(141,365,cs),
(141,565,o),
(219,683,o),
(353,683,cs)
);
}
);
};
layerId = master01;
shapes = (
{
closed = 1;
nodes = (
(169,744,o),
(62,605,o),
(62,365,cs),
(62,125,o),
(169,-14,o),
(353,-14,cs),
(539,-14,o),
(646,125,o),
(646,365,cs),
(646,605,o),
(539,744,o),
(353,744,cs,{
name = hr00;
})
);
},
{
closed = 1;
nodes = (
(487,683,o),
(566,566,o),
(566,365,cs),
(566,164,o),
(487,47,o),
(353,47,cs),
(219,47,o),
(141,164,o),
(141,365,cs),
(141,565,o),
(219,683,o),
(353,683,cs)
);
}
);
width = 707;
}
);
unicode = 79;
},
{
glyphname = Oacute;
lastChange = "2023-01-25 14:54:15 +0000";
layers = (
{
background = {
shapes = (
{
closed = 1;
nodes = (
(169,744,o),
(62,605,o),
(62,365,cs),
(62,125,o),
(169,-14,o),
(353,-14,cs),
(539,-14,o),
(646,125,o),
(646,365,cs),
(646,605,o),
(539,744,o),
(353,744,cs,{
name = hr00;
})
);
},
{
closed = 1;
nodes = (
(487,683,o),
(566,566,o),
(566,365,cs),
(566,164,o),
(487,47,o),
(353,47,cs),
(219,47,o),
(141,164,o),
(141,365,cs),
(141,565,o),
(219,683,o),
(353,683,cs)
);
},
{
closed = 1;
nodes = (
(441,967,l),
(249,841,l),
(277,795,l),
(479,900,l,{
name = hr00;
})
);
}
);
};
layerId = master01;
shapes = (
{
ref = O;
},
{
pos = (189,0);
ref = acutecomb.case;
}
);
width = 707;
}
);
unicode = 211;
},
{
glyphname = Obreve;
lastChange = "2023-01-25 14:54:15 +0000";
layers = (
{
background = {
shapes = (
{
closed = 1;
nodes = (
(169,744,o),
(62,605,o),
(62,365,cs),
(62,125,o),
(169,-14,o),
(353,-14,cs),
(539,-14,o),
(646,125,o),
(646,365,cs),
(646,605,o),
(539,744,o),
(353,744,cs,{
name = hr00;
})
);
},
{
closed = 1;
nodes = (
(487,683,o),
(566,566,o),
(566,365,cs),
(566,164,o),
(487,47,o),
(353,47,cs),
(219,47,o),
(141,164,o),
(141,365,cs),
(141,565,o),
(219,683,o),
(353,683,cs)
);
},
{
closed = 1;
nodes = (
(423,892,o),
(398,866,o),
(353,866,cs),
(311,866,o),
(283,896,o),
(283,940,c),
(227,940,l),
(227,858,o),
(277,803,o),
(353,803,cs),
(436,803,o),
(480,851,o),
(480,940,c),
(423,940,l,{
name = hr00;
})
);
}
);
};
layerId = master01;
shapes = (
{
ref = O;
},
{
pos = (141,0);
ref = brevecomb.case;
}
);
width = 707;
}
);
unicode = 334;
},
{
glyphname = Ocircumflex;
lastChange = "2023-01-25 14:54:15 +0000";
layers = (
{
background = {
shapes = (
{
closed = 1;
nodes = (
(169,744,o),
(62,605,o),
(62,365,cs),
(62,125,o),
(169,-14,o),
(353,-14,cs),
(539,-14,o),
(646,125,o),
(646,365,cs),
(646,605,o),
(539,744,o),
(353,744,cs,{
name = hr00;
})
);
},
{
closed = 1;
nodes = (
(487,683,o),
(566,566,o),
(566,365,cs),
(566,164,o),
(487,47,o),
(353,47,cs),
(219,47,o),
(141,164,o),
(141,365,cs),
(141,565,o),
(219,683,o),
(353,683,cs)
);
},
{
closed = 1;
nodes = (
(382,968,l),
(340,968,l),
(218,825,l),
(250,792,l),
(361,890,l),
(473,792,l),
(505,825,l,{
name = hr00;
})
);
}
);
};
layerId = master01;
shapes = (
{
ref = O;
},
{
pos = (153,0);
ref = circumflexcomb.case;
}
);
width = 707;
}
);
unicode = 212;
},
{
glyphname = Odieresis;
lastChange = "2023-01-25 14:54:15 +0000";
layers = (
{
background = {
shapes = (
{
closed = 1;
nodes = (
(169,744,o),
(62,605,o),
(62,365,cs),
(62,125,o),
(169,-14,o),
(353,-14,cs),
(539,-14,o),
(646,125,o),
(646,365,cs),
(646,605,o),
(539,744,o),
(353,744,cs,{
name = hr00;
})
);
},
{
closed = 1;
nodes = (
(487,683,o),
(566,566,o),
(566,365,cs),
(566,164,o),
(487,47,o),
(353,47,cs),
(219,47,o),
(141,164,o),
(141,365,cs),
(141,565,o),
(219,683,o),
(353,683,cs)
);
},
{
closed = 1;
nodes = (
(202,847,o),
(225,824,o),
(252,824,cs),
(279,824,o),
(302,847,o),
(302,874,cs),
(302,901,o),
(279,924,o),
(252,924,cs),
(225,924,o),
(202,901,o),
(202,874,cs,{
name = hr00;
})
);
},
{
closed = 1;
nodes = (
(407,847,o),
(430,824,o),
(457,824,cs),
(484,824,o),
(507,847,o),
(507,874,cs),
(507,901,o),
(484,924,o),
(457,924,cs),
(430,924,o),
(407,901,o),
(407,874,cs)
);
}
);
};
layerId = master01;
shapes = (
{
ref = O;
},
{
pos = (113,0);
ref = dieresiscomb.case;
}
);
width = 707;
}
);
unicode = 214;
},
{
glyphname = Ograve;
lastChange = "2023-01-25 14:54:15 +0000";
layers = (
{
background = {
shapes = (
{
closed = 1;
nodes = (
(169,744,o),
(62,605,o),
(62,365,cs),
(62,125,o),
(169,-14,o),
(353,-14,cs),
(539,-14,o),
(646,125,o),
(646,365,cs),
(646,605,o),
(539,744,o),
(353,744,cs,{
name = hr00;
})
);
},
{
closed = 1;
nodes = (
(487,683,o),
(566,566,o),
(566,365,cs),
(566,164,o),
(487,47,o),
(353,47,cs),
(219,47,o),
(141,164,o),
(141,365,cs),
(141,565,o),
(219,683,o),
(353,683,cs)
);
},
{
closed = 1;
nodes = (
(287,967,l),
(478,841,l),
(451,795,l),
(248,900,l,{
name = hr00;
})
);
}
);
};
layerId = master01;
shapes = (
{
ref = O;
},
{
pos = (201,0);
ref = gravecomb.case;
}
);
width = 707;
}
);
unicode = 210;
},
{
glyphname = Ohungarumlaut;
lastChange = "2023-01-25 14:54:15 +0000";
layers = (
{
background = {
shapes = (
{
closed = 1;
nodes = (
(169,744,o),
(62,605,o),
(62,365,cs),
(62,125,o),
(169,-14,o),
(353,-14,cs),
(539,-14,o),
(646,125,o),
(646,365,cs),
(646,605,o),
(539,744,o),
(353,744,cs,{
name = hr00;
})
);
},
{
closed = 1;
nodes = (
(487,683,o),
(566,566,o),
(566,365,cs),
(566,164,o),
(487,47,o),
(353,47,cs),
(219,47,o),
(141,164,o),
(141,365,cs),
(141,565,o),
(219,683,o),
(353,683,cs)
);
},
{
closed = 1;
nodes = (
(349,990,l),
(212,806,l),
(255,773,l),
(409,941,l,{
name = hr00;
})
);
},
{
closed = 1;
nodes = (
(534,990,l),
(397,806,l),
(440,773,l),
(594,941,l)
);
}
);
};
layerId = master01;
shapes = (
{
ref = O;
},
{
pos = (152,0);
ref = hungarumlautcomb.case;
}
);
width = 707;
}
);
unicode = 336;
},
{
glyphname = Omacron;
lastChange = "2023-01-25 14:54:15 +0000";
layers = (
{
background = {
shapes = (
{
closed = 1;
nodes = (
(169,744,o),
(62,605,o),
(62,365,cs),
(62,125,o),
(169,-14,o),
(353,-14,cs),
(539,-14,o),
(646,125,o),
(646,365,cs),
(646,605,o),
(539,744,o),
(353,744,cs,{
name = hr00;
})
);
},
{
closed = 1;
nodes = (
(487,683,o),
(566,566,o),
(566,365,cs),
(566,164,o),
(487,47,o),
(353,47,cs),
(219,47,o),
(141,164,o),
(141,365,cs),
(141,565,o),
(219,683,o),
(353,683,cs)
);
},
{
closed = 1;
nodes = (
(480,920,l),
(226,920,l),
(226,853,l),
(480,853,l,{
name = hr00;
})
);
}
);
};
layerId = master01;
shapes = (
{
ref = O;
},
{
pos = (177,0);
ref = macroncomb.case;
}
);
width = 707;
}
);
unicode = 332;
},
{
glyphname = Oslash;
lastChange = "2023-01-25 13:55:05 +0000";
layers = (
{
background = {
shapes = (
{
closed = 1;
nodes = (
(169,744,o),
(62,605,o),
(62,365,cs),
(62,125,o),
(169,-14,o),
(353,-14,cs),
(539,-14,o),
(646,125,o),
(646,365,cs),
(646,605,o),
(539,744,o),
(353,744,cs,{
name = hr00;
})
);
},
{
closed = 1;
nodes = (
(487,683,o),
(566,566,o),
(566,365,cs),
(566,164,o),
(487,47,o),
(353,47,cs),
(219,47,o),
(141,164,o),
(141,365,cs),
(141,565,o),
(219,683,o),
(353,683,cs)
);
},
{
closed = 1;
nodes = (
(506,805,l),
(444,805,l),
(204,-76,l),
(266,-76,l,{
name = hr00;
})
);
}
);
};
layerId = master01;
shapes = (
{
alignment = -1;
ref = O;
},
{
alignment = -1;
pos = (204,30);
ref = slash;
}
);
width = 710;
}
);
unicode = 216;
},
{
glyphname = Oslashacute;
lastChange = "2023-01-25 14:54:15 +0000";
layers = (
{
background = {
shapes = (
{
closed = 1;
nodes = (
(447,967,l),
(255,841,l),
(283,795,l),
(485,900,l,{
name = hr00;
})
);
},
{
closed = 1;
nodes = (
(169,744,o),
(62,605,o),
(62,365,cs),
(62,125,o),
(169,-14,o),
(353,-14,cs),
(539,-14,o),
(646,125,o),
(646,365,cs),
(646,605,o),
(539,744,o),
(353,744,cs,{
name = hr00;
})
);
},
{
closed = 1;
nodes = (
(487,683,o),
(566,566,o),
(566,365,cs),
(566,164,o),
(487,47,o),
(353,47,cs),
(219,47,o),
(141,164,o),
(141,365,cs),
(141,565,o),
(219,683,o),
(353,683,cs)
);
},
{
closed = 1;
nodes = (
(506,805,l),
(444,805,l),
(204,-76,l),
(266,-76,l,{
name = hr00;
})
);
}
);
};
layerId = master01;
shapes = (
{
ref = Oslash;
},
{
pos = (189,0);
ref = acutecomb.case;
}
);
width = 710;
}
);
unicode = 510;
},
{
glyphname = Otilde;
lastChange = "2023-01-25 14:54:15 +0000";
layers = (
{
background = {
shapes = (
{
closed = 1;
nodes = (
(169,744,o),
(62,605,o),
(62,365,cs),
(62,125,o),
(169,-14,o),
(353,-14,cs),
(539,-14,o),
(646,125,o),
(646,365,cs),
(646,605,o),
(539,744,o),
(353,744,cs,{
name = hr00;
})
);
},
{
closed = 1;
nodes = (
(487,683,o),
(566,566,o),
(566,365,cs),
(566,164,o),
(487,47,o),
(353,47,cs),
(219,47,o),
(141,164,o),
(141,365,cs),
(141,565,o),
(219,683,o),
(353,683,cs)
);
},
{
closed = 1;
nodes = (
(463,916,o),
(449,900,o),
(425,900,cs),
(394,900,o),
(335,936,o),
(290,936,cs,{
name = hr01;
}),
(251,936,o),
(222,908,o),
(204,841,c),
(251,827,l),
(259,855,o),
(274,870,o),
(298,870,cs),
(329,870,o),
(386,834,o),
(432,834,cs,{
name = hr02;
}),
(471,834,o),
(501,863,o),
(518,929,c),
(471,944,l)
);
}
);
};
layerId = master01;
shapes = (
{
ref = O;
},
{
pos = (145,0);
ref = tildecomb.case;
}
);
width = 707;
}
);
unicode = 213;
},
{
glyphname = OE;
lastChange = "2023-01-25 13:55:37 +0000";
layers = (
{
anchors = (
{
name = bottom;
pos = (482,0);
},
{
name = top;
pos = (482,730);
}
);
background = {
shapes = (
{
closed = 1;
nodes = (
(385,-14,o),
(416,-9,o),
(447,0,c,{
name = hr01;
}),
(860,0,ls),
(880,0,o),
(891,10,o),
(891,31,cs),
(891,160,l),
(839,160,l),
(831,54,l),
(541,54,l),
(606,116,o),
(642,215,o),
(646,343,c),
(835,343,l),
(835,398,l),
(645,398,l),
(638,522,o),
(603,616,o),
(541,675,c),
(821,675,l),
(829,566,l),
(881,566,l),
(881,699,ls),
(881,719,o),
(870,730,o),
(850,730,cs),
(447,730,l),
(416,739,o),
(385,744,o),
(353,744,cs,{
name = hr02;
}),
(169,744,o),
(62,605,o),
(62,365,cs),
(62,125,o),
(169,-14,o),
(353,-14,c)
);
},
{
closed = 1;
nodes = (
(487,683,o),
(566,566,o),
(566,365,cs),
(566,171,o),
(483,47,o),
(353,47,cs),
(219,47,o),
(141,164,o),
(141,365,cs),
(141,565,o),
(219,683,o),
(353,683,cs)
);
}
);
};
layerId = master01;
shapes = (
{
closed = 1;
nodes = (
(385,-14,o),
(416,-9,o),
(447,0,c,{
name = hr01;
}),
(860,0,ls),
(880,0,o),
(891,10,o),
(891,31,cs),
(891,160,l),
(839,160,l),
(831,54,l),
(541,54,l),
(606,116,o),
(642,215,o),
(646,343,c),
(835,343,l),
(835,398,l),
(645,398,l),
(638,522,o),
(603,616,o),
(541,675,c),
(821,675,l),
(829,566,l),
(881,566,l),
(881,699,ls),
(881,719,o),
(870,730,o),
(850,730,cs),
(447,730,l),
(416,739,o),
(385,744,o),
(353,744,cs,{
name = hr02;
}),
(169,744,o),
(62,605,o),
(62,365,cs),
(62,125,o),
(169,-14,o),
(353,-14,c)
);
},
{
closed = 1;
nodes = (
(487,683,o),
(566,566,o),
(566,365,cs),
(566,171,o),
(483,47,o),
(353,47,cs),
(219,47,o),
(141,164,o),
(141,365,cs),
(141,565,o),
(219,683,o),
(353,683,cs)
);
}
);
width = 964;
}
);
unicode = 338;
},
{
glyphname = P;
lastChange = "2023-01-25 13:55:37 +0000";
layers = (
{
anchors = (
{
name = bottom;
pos = (310,0);
},
{
name = top;
pos = (310,730);
}
);
background = {
shapes = (
{
closed = 1;
nodes = (
(278,274,l),
(337,274,ls),
(490,274,o),
(571,354,o),
(571,504,cs),
(571,652,o),
(491,730,o),
(337,730,cs),
(73,730,l),
(73,678,l),
(135,670,l),
(135,59,l),
(73,52,l),
(73,0,l),
(302,0,l),
(302,51,l),
(215,59,l),
(215,675,l),
(337,675,ls),
(441,675,o),
(493,618,o),
(493,504,cs),
(493,393,o),
(441,337,o),
(337,337,cs),
(278,337,l,{
name = hr00;
})
);
}
);
};
layerId = master01;
shapes = (
{
closed = 1;
nodes = (
(278,274,l),
(337,274,ls),
(490,274,o),
(571,354,o),
(571,504,cs),
(571,652,o),
(491,730,o),
(337,730,cs),
(73,730,l),
(73,678,l),
(135,670,l),
(135,59,l),
(73,52,l),
(73,0,l),
(302,0,l),
(302,51,l),
(215,59,l),
(215,675,l),
(337,675,ls),
(441,675,o),
(493,618,o),
(493,504,cs),
(493,393,o),
(441,337,o),
(337,337,cs),
(278,337,l,{
name = hr00;
})
);
}
);
width = 619;
}
);
unicode = 80;
},
{
glyphname = Thorn;
lastChange = "2023-01-25 13:55:37 +0000";
layers = (
{
anchors = (
{
name = bottom;
pos = (314,0);
},
{
name = top;
pos = (314,730);
}
);
background = {
shapes = (
{
closed = 1;
nodes = (
(279,0,l),
(279,51,l),
(216,59,l),
(216,520,l),
(328,520,ls),
(432,520,o),
(484,468,o),
(484,366,cs),
(484,265,o),
(432,215,o),
(328,215,cs),
(279,215,l),
(279,161,l),
(328,161,ls),
(481,161,o),
(563,233,o),
(563,366,cs),
(563,500,o),
(479,574,o),
(328,574,cs),
(216,574,l),
(216,670,l),
(278,678,l),
(278,730,l),
(74,730,l),
(74,678,l),
(136,670,l),
(136,59,l),
(73,52,l),
(73,0,l,{
name = hr00;
})
);
}
);
};
layerId = master01;
shapes = (
{
closed = 1;
nodes = (
(279,0,l),
(279,51,l),
(216,59,l),
(216,520,l),
(328,520,ls),
(432,520,o),
(484,468,o),
(484,366,cs),
(484,265,o),
(432,215,o),
(328,215,cs),
(279,215,l),
(279,161,l),
(328,161,ls),
(481,161,o),
(563,233,o),
(563,366,cs),
(563,500,o),
(479,574,o),
(328,574,cs),
(216,574,l),
(216,670,l),
(278,678,l),
(278,730,l),
(74,730,l),
(74,678,l),
(136,670,l),
(136,59,l),
(73,52,l),
(73,0,l,{
name = hr00;
})
);
}
);
width = 627;
}
);
unicode = 222;
},
{
glyphname = Q;
lastChange = "2023-01-25 13:55:05 +0000";
layers = (
{
background = {
shapes = (
{
closed = 1;
nodes = (
(424,-194,l),
(502,-194,l),
(400,10,l),
(325,7,l,{
name = hr00;
})
);
},
{
closed = 1;
nodes = (
(169,744,o),
(62,605,o),
(62,365,cs),
(62,125,o),
(169,-14,o),
(353,-14,cs),
(539,-14,o),
(646,125,o),
(646,365,cs),
(646,605,o),
(539,744,o),
(353,744,cs,{
name = hr00;
})
);
},
{
closed = 1;
nodes = (
(487,683,o),
(566,566,o),
(566,365,cs),
(566,164,o),
(487,47,o),
(353,47,cs),
(219,47,o),
(141,164,o),
(141,365,cs),
(141,565,o),
(219,683,o),
(353,683,cs)
);
}
);
};
layerId = master01;
shapes = (
{
closed = 1;
nodes = (
(424,-194,l),
(502,-194,l),
(400,10,l),
(325,7,l,{
name = hr00;
})
);
},
{
ref = O;
}
);
width = 710;
}
);
unicode = 81;
},
{
glyphname = R;
lastChange = "2023-01-25 13:55:37 +0000";
layers = (
{
anchors = (
{
name = bottom;
pos = (334,0);
},
{
name = top;
pos = (334,730);
}
);
background = {
shapes = (
{
closed = 1;
nodes = (
(273,302,l),
(370,302,o),
(396,289,o),
(422,228,cs),
(509,23,ls),
(516,7,o),
(527,0,o),
(545,0,cs),
(642,0,l),
(642,52,l),
(579,59,l),
(501,239,ls),
(485,274,o),
(461,299,o),
(429,314,c),
(519,340,o),
(566,409,o),
(566,514,cs),
(566,653,o),
(483,730,o),
(332,730,cs),
(73,730,l),
(73,678,l),
(135,670,l),
(135,59,l),
(73,52,l),
(73,0,l),
(302,0,l),
(302,52,l),
(215,59,l),
(215,675,l),
(332,675,ls),
(434,675,o),
(488,619,o),
(488,514,cs),
(488,411,o),
(434,357,o),
(332,357,cs),
(273,357,l,{
name = hr00;
})
);
}
);
};
layerId = master01;
shapes = (
{
closed = 1;
nodes = (
(273,302,l),
(370,302,o),
(396,289,o),
(422,228,cs),
(509,23,ls),
(516,7,o),
(527,0,o),
(545,0,cs),
(642,0,l),
(642,52,l),
(579,59,l),
(501,239,ls),
(485,274,o),
(461,299,o),
(429,314,c),
(519,340,o),
(566,409,o),
(566,514,cs),
(566,653,o),
(483,730,o),
(332,730,cs),
(73,730,l),
(73,678,l),
(135,670,l),
(135,59,l),
(73,52,l),
(73,0,l),
(302,0,l),
(302,52,l),
(215,59,l),
(215,675,l),
(332,675,ls),
(434,675,o),
(488,619,o),
(488,514,cs),
(488,411,o),
(434,357,o),
(332,357,cs),
(273,357,l,{
name = hr00;
})
);
}
);
width = 667;
}
);
unicode = 82;
},
{
glyphname = Racute;
lastChange = "2023-01-25 14:54:15 +0000";
layers = (
{
background = {
shapes = (
{
closed = 1;
nodes = (
(273,302,l),
(370,302,o),
(396,289,o),
(422,228,cs),
(509,23,ls),
(516,7,o),
(527,0,o),
(545,0,cs),
(642,0,l),
(642,52,l),
(579,59,l),
(501,239,ls),
(485,274,o),
(461,299,o),
(429,314,c),
(519,340,o),
(566,409,o),
(566,514,cs),
(566,653,o),
(483,730,o),
(332,730,cs),
(73,730,l),
(73,678,l),
(135,670,l),
(135,59,l),
(73,52,l),
(73,0,l),
(302,0,l),
(302,52,l),
(215,59,l),
(215,675,l),
(332,675,ls),
(434,675,o),
(488,619,o),
(488,514,cs),
(488,411,o),
(434,357,o),
(332,357,cs),
(273,357,l,{
name = hr00;
})
);
},
{
closed = 1;
nodes = (
(410,969,l),
(218,843,l),
(246,797,l),
(448,902,l,{
name = hr00;
})
);
}
);
};
layerId = master01;
shapes = (
{
ref = R;
},
{
pos = (169,0);
ref = acutecomb.case;
}
);
width = 667;
}
);
unicode = 340;
},
{
glyphname = Rcaron;
lastChange = "2023-01-25 14:54:15 +0000";
layers = (
{
background = {
shapes = (
{
closed = 1;
nodes = (
(273,302,l),
(370,302,o),
(396,289,o),
(422,228,cs),
(509,23,ls),
(516,7,o),
(527,0,o),
(545,0,cs),
(642,0,l),
(642,52,l),
(579,59,l),
(501,239,ls),
(485,274,o),
(461,299,o),
(429,314,c),
(519,340,o),
(566,409,o),
(566,514,cs),
(566,653,o),
(483,730,o),
(332,730,cs),
(73,730,l),
(73,678,l),
(135,670,l),
(135,59,l),
(73,52,l),
(73,0,l),
(302,0,l),
(302,52,l),
(215,59,l),
(215,675,l),
(332,675,ls),
(434,675,o),
(488,619,o),
(488,514,cs),
(488,411,o),
(434,357,o),
(332,357,cs),
(273,357,l,{
name = hr00;
})
);
},
{
closed = 1;
nodes = (
(354,802,l),
(312,802,l),
(190,945,l),
(222,978,l),
(333,880,l),
(445,978,l),
(477,945,l,{
name = hr00;
})
);
}
);
};
layerId = master01;
shapes = (
{
ref = R;
},
{
pos = (133,0);
ref = caroncomb.case;
}
);
width = 667;
}
);
unicode = 344;
},
{
glyphname = Rcommaaccent;
lastChange = "2023-01-25 14:54:15 +0000";
layers = (
{
background = {
shapes = (
{
closed = 1;
nodes = (
(273,302,l),
(370,302,o),
(396,289,o),
(422,228,cs),
(509,23,ls),
(516,7,o),
(527,0,o),
(545,0,cs),
(642,0,l),
(642,52,l),
(579,59,l),
(501,239,ls),
(485,274,o),
(461,299,o),
(429,314,c),
(519,340,o),
(566,409,o),
(566,514,cs),
(566,653,o),
(483,730,o),
(332,730,cs),
(73,730,l),
(73,678,l),
(135,670,l),
(135,59,l),
(73,52,l),
(73,0,l),
(302,0,l),
(302,52,l),
(215,59,l),
(215,675,l),
(332,675,ls),
(434,675,o),
(488,619,o),
(488,514,cs),
(488,411,o),
(434,357,o),
(332,357,cs),
(273,357,l,{
name = hr00;
})
);
},
{
closed = 1;
nodes = (
(337,-253,o),
(398,-195,o),
(398,-115,cs),
(398,-89,o),
(381,-68,o),
(352,-68,cs),
(323,-68,o),
(305,-89,o),
(305,-115,cs),
(305,-138,o),
(318,-153,o),
(318,-176,cs),
(318,-210,o),
(303,-231,o),
(278,-255,c),
(300,-281,l,{
name = hr00;
})
);
}
);
};
layerId = master01;
shapes = (
{
ref = R;
},
{
pos = (217,0);
ref = commaaccentcomb;
}
);
width = 667;
}
);
unicode = 342;
},
{
glyphname = S;
lastChange = "2023-01-25 13:55:37 +0000";
layers = (
{
anchors = (
{
name = bottom;
pos = (273,0);
},
{
name = top;
pos = (273,730);
}
);
background = {
shapes = (
{
closed = 1;
nodes = (
(411,729,o),
(347,744,o),
(281,744,cs),
(146,744,o),
(60,672,o),
(60,559,cs),
(60,309,o),
(427,362,o),
(427,180,cs),
(427,95,o),
(372,47,o),
(276,47,cs),
(191,47,o),
(134,101,o),
(108,206,c),
(38,189,l),
(66,60,o),
(153,-14,o),
(276,-14,cs),
(418,-14,o),
(507,61,o),
(507,180,cs),
(507,424,o),
(140,369,o),
(140,559,cs),
(140,635,o),
(194,683,o),
(281,683,cs),
(337,683,o),
(397,667,o),
(461,635,c),
(486,695,l,{
name = hr00;
})
);
}
);
};
layerId = master01;
shapes = (
{
closed = 1;
nodes = (
(411,729,o),
(347,744,o),
(281,744,cs),
(146,744,o),
(60,672,o),
(60,559,cs),
(60,309,o),
(427,362,o),
(427,180,cs),
(427,95,o),
(372,47,o),
(276,47,cs),
(191,47,o),
(134,101,o),
(108,206,c),
(38,189,l),
(66,60,o),
(153,-14,o),
(276,-14,cs),
(418,-14,o),
(507,61,o),
(507,180,cs),
(507,424,o),
(140,369,o),
(140,559,cs),
(140,635,o),
(194,683,o),
(281,683,cs),
(337,683,o),
(397,667,o),
(461,635,c),
(486,695,l,{
name = hr00;
})
);
}
);
width = 545;
}
);
unicode = 83;
},
{
glyphname = Sacute;
lastChange = "2023-01-25 14:54:15 +0000";
layers = (
{
background = {
shapes = (
{
closed = 1;
nodes = (
(411,729,o),
(347,744,o),
(281,744,cs),
(146,744,o),
(60,672,o),
(60,559,cs),
(60,309,o),
(427,362,o),
(427,180,cs),
(427,95,o),
(372,47,o),
(276,47,cs),
(191,47,o),
(134,101,o),
(108,206,c),
(38,189,l),
(66,60,o),
(153,-14,o),
(276,-14,cs),
(418,-14,o),
(507,61,o),
(507,180,cs),
(507,424,o),
(140,369,o),
(140,559,cs),
(140,635,o),
(194,683,o),
(281,683,cs),
(337,683,o),
(397,667,o),
(461,635,c),
(486,695,l,{
name = hr00;
})
);
},
{
closed = 1;
nodes = (
(366,969,l),
(174,843,l),
(202,797,l),
(404,902,l,{
name = hr00;
})
);
}
);
};
layerId = master01;
shapes = (
{
ref = S;
},
{
pos = (108,0);
ref = acutecomb.case;
}
);
width = 545;
}
);
unicode = 346;
},
{
glyphname = Scaron;
lastChange = "2023-01-25 14:54:15 +0000";
layers = (
{
background = {
shapes = (
{
closed = 1;
nodes = (
(428,729,o),
(364,744,o),
(298,744,cs),
(163,744,o),
(77,672,o),
(77,559,cs),
(77,309,o),
(444,362,o),
(444,180,cs),
(444,95,o),
(389,47,o),
(293,47,cs),
(208,47,o),
(151,101,o),
(125,206,c),
(55,189,l),
(83,60,o),
(170,-14,o),
(293,-14,cs),
(435,-14,o),
(524,61,o),
(524,180,cs),
(524,424,o),
(157,369,o),
(157,559,cs),
(157,635,o),
(211,683,o),
(298,683,cs),
(354,683,o),
(414,667,o),
(478,635,c),
(503,695,l,{
name = hr00;
})
);
},
{
closed = 1;
nodes = (
(319,802,l),
(277,802,l),
(155,945,l),
(187,978,l),
(298,880,l),
(410,978,l),
(442,945,l,{
name = hr00;
})
);
}
);
};
layerId = master01;
shapes = (
{
ref = S;
},
{
pos = (72,0);
ref = caroncomb.case;
}
);
width = 545;
}
);
unicode = 352;
},
{
glyphname = Scedilla;
lastChange = "2023-01-25 14:54:15 +0000";
layers = (
{
background = {
shapes = (
{
closed = 1;
nodes = (
(411,729,o),
(347,744,o),
(281,744,cs),
(146,744,o),
(60,672,o),
(60,559,cs),
(60,309,o),
(427,362,o),
(427,180,cs),
(427,95,o),
(372,47,o),
(276,47,cs),
(191,47,o),
(134,101,o),
(108,206,c),
(38,189,l),
(66,60,o),
(153,-14,o),
(276,-14,cs),
(418,-14,o),
(507,61,o),
(507,180,cs),
(507,424,o),
(140,369,o),
(140,559,cs),
(140,635,o),
(194,683,o),
(281,683,cs),
(337,683,o),
(397,667,o),
(461,635,c),
(486,695,l,{
name = hr00;
})
);
},
{
closed = 1;
nodes = (
(339,-241,o),
(378,-204,o),
(378,-144,cs),
(378,-96,o),
(344,-70,o),
(264,-57,c),
(276,0,l),
(245,0,l),
(226,-82,l),
(275,-92,ls),
(311,-100,o),
(328,-116,o),
(328,-143,cs),
(328,-174,o),
(308,-194,o),
(276,-194,cs),
(250,-194,o),
(232,-175,o),
(232,-146,c),
(180,-146,l),
(180,-205,o),
(216,-241,o),
(275,-241,c,{
name = hr00;
})
);
}
);
};
layerId = master01;
shapes = (
{
ref = S;
},
{
pos = (141,0);
ref = cedillacomb;
}
);
width = 545;
}
);
unicode = 350;
},
{
glyphname = Scircumflex;
lastChange = "2023-01-25 14:54:15 +0000";
layers = (
{
background = {
shapes = (
{
closed = 1;
nodes = (
(411,729,o),
(347,744,o),
(281,744,cs),
(146,744,o),
(60,672,o),
(60,559,cs),
(60,309,o),
(427,362,o),
(427,180,cs),
(427,95,o),
(372,47,o),
(276,47,cs),
(191,47,o),
(134,101,o),
(108,206,c),
(38,189,l),
(66,60,o),
(153,-14,o),
(276,-14,cs),
(418,-14,o),
(507,61,o),
(507,180,cs),
(507,424,o),
(140,369,o),
(140,559,cs),
(140,635,o),
(194,683,o),
(281,683,cs),
(337,683,o),
(397,667,o),
(461,635,c),
(486,695,l,{
name = hr00;
})
);
},
{
closed = 1;
nodes = (
(302,970,l),
(260,970,l),
(138,827,l),
(170,794,l),
(281,892,l),
(393,794,l),
(425,827,l,{
name = hr00;
})
);
}
);
};
layerId = master01;
shapes = (
{
ref = S;
},
{
pos = (72,0);
ref = circumflexcomb.case;
}
);
width = 545;
}
);
unicode = 348;
},
{
glyphname = Scommaaccent;
lastChange = "2023-01-25 14:54:15 +0000";
layers = (
{
background = {
shapes = (
{
closed = 1;
nodes = (
(411,729,o),
(347,744,o),
(281,744,cs),
(146,744,o),
(60,672,o),
(60,559,cs),
(60,309,o),
(427,362,o),
(427,180,cs),
(427,95,o),
(372,47,o),
(276,47,cs),
(191,47,o),
(134,101,o),
(108,206,c),
(38,189,l),
(66,60,o),
(153,-14,o),
(276,-14,cs),
(418,-14,o),
(507,61,o),
(507,180,cs),
(507,424,o),
(140,369,o),
(140,559,cs),
(140,635,o),
(194,683,o),
(281,683,cs),
(337,683,o),
(397,667,o),
(461,635,c),
(486,695,l,{
name = hr00;
})
);
},
{
closed = 1;
nodes = (
(273,-253,o),
(334,-195,o),
(334,-115,cs),
(334,-89,o),
(317,-68,o),
(288,-68,cs),
(259,-68,o),
(241,-89,o),
(241,-115,cs),
(241,-138,o),
(254,-153,o),
(254,-176,cs),
(254,-210,o),
(239,-231,o),
(214,-255,c),
(236,-281,l,{
name = hr00;
})
);
}
);
};
layerId = master01;
shapes = (
{
ref = S;
},
{
pos = (156,0);
ref = commaaccentcomb;
}
);
width = 545;
}
);
unicode = 536;
},
{
glyphname = T;
lastChange = "2023-01-25 13:55:37 +0000";
layers = (
{
anchors = (
{
name = bottom;
pos = (279,0);
},
{
name = center;
pos = (279,365);
},
{
name = top;
pos = (279,730);
}
);
background = {
shapes = (
{
closed = 1;
nodes = (
(29,730,o),
(19,719,o),
(19,699,cs),
(19,563,l),
(71,563,l),
(79,675,l),
(239,675,l),
(239,59,l),
(149,52,l),
(149,0,l),
(409,0,l),
(409,52,l),
(319,59,l),
(319,675,l),
(479,675,l),
(487,563,l),
(539,563,l),
(539,699,ls),
(539,719,o),
(528,730,o),
(508,730,cs),
(50,730,l,{
name = hr00;
})
);
}
);
};
layerId = master01;
shapes = (
{
closed = 1;
nodes = (
(29,730,o),
(19,719,o),
(19,699,cs),
(19,563,l),
(71,563,l),
(79,675,l),
(239,675,l),
(239,59,l),
(149,52,l),
(149,0,l),
(409,0,l),
(409,52,l),
(319,59,l),
(319,675,l),
(479,675,l),
(487,563,l),
(539,563,l),
(539,699,ls),
(539,719,o),
(528,730,o),
(508,730,cs),
(50,730,l,{
name = hr00;
})
);
}
);
width = 558;
}
);
unicode = 84;
},
{
glyphname = Tbar;
lastChange = "2023-01-25 13:55:05 +0000";
layers = (
{
background = {
shapes = (
{
closed = 1;
nodes = (
(29,730,o),
(19,719,o),
(19,699,cs),
(19,563,l),
(71,563,l),
(79,675,l),
(239,675,l),
(239,59,l),
(149,52,l),
(149,0,l),
(409,0,l),
(409,52,l),
(319,59,l),
(319,675,l),
(479,675,l),
(487,563,l),
(539,563,l),
(539,699,ls),
(539,719,o),
(528,730,o),
(508,730,cs),
(50,730,l,{
name = hr00;
})
);
},
{
closed = 1;
nodes = (
(486,385,l),
(72,385,l),
(72,330,l),
(486,330,l,{
name = hr00;
})
);
}
);
};
layerId = master01;
shapes = (
{
alignment = -1;
ref = T;
},
{
alignment = -1;
pos = (52,-7);
ref = ethbar;
scale = (1.2,1);
}
);
width = 558;
}
);
unicode = 358;
},
{
glyphname = Tcaron;
lastChange = "2023-01-25 14:54:15 +0000";
layers = (
{
background = {
shapes = (
{
closed = 1;
nodes = (
(29,730,o),
(19,719,o),
(19,699,cs),
(19,563,l),
(71,563,l),
(79,675,l),
(239,675,l),
(239,59,l),
(149,52,l),
(149,0,l),
(409,0,l),
(409,52,l),
(319,59,l),
(319,675,l),
(479,675,l),
(487,563,l),
(539,563,l),
(539,699,ls),
(539,719,o),
(528,730,o),
(508,730,cs),
(50,730,l,{
name = hr00;
})
);
},
{
closed = 1;
nodes = (
(299,802,l),
(257,802,l),
(135,945,l),
(167,978,l),
(278,880,l),
(390,978,l),
(422,945,l,{
name = hr00;
})
);
}
);
};
layerId = master01;
shapes = (
{
ref = T;
},
{
pos = (78,0);
ref = caroncomb.case;
}
);
width = 558;
}
);
unicode = 356;
},
{
glyphname = Tcedilla;
lastChange = "2023-01-25 14:54:15 +0000";
layers = (
{
background = {
shapes = (
{
closed = 1;
nodes = (
(29,730,o),
(19,719,o),
(19,699,cs),
(19,563,l),
(71,563,l),
(79,675,l),
(239,675,l),
(239,59,l),
(149,52,l),
(149,0,l),
(409,0,l),
(409,52,l),
(319,59,l),
(319,675,l),
(479,675,l),
(487,563,l),
(539,563,l),
(539,699,ls),
(539,719,o),
(528,730,o),
(508,730,cs),
(50,730,l,{
name = hr00;
})
);
},
{
closed = 1;
nodes = (
(349,-241,o),
(388,-204,o),
(388,-144,cs),
(388,-96,o),
(354,-70,o),
(274,-57,c),
(286,0,l),
(255,0,l),
(236,-82,l),
(285,-92,ls),
(321,-100,o),
(338,-116,o),
(338,-143,cs),
(338,-174,o),
(318,-194,o),
(286,-194,cs),
(260,-194,o),
(242,-175,o),
(242,-146,c),
(190,-146,l),
(190,-205,o),
(226,-241,o),
(285,-241,c,{
name = hr00;
})
);
}
);
};
layerId = master01;
shapes = (
{
ref = T;
},
{
pos = (147,0);
ref = cedillacomb;
}
);
width = 558;
}
);
unicode = 354;
},
{
glyphname = Tcommaaccent;
lastChange = "2023-01-25 14:54:15 +0000";
layers = (
{
background = {
shapes = (
{
closed = 1;
nodes = (
(29,730,o),
(19,719,o),
(19,699,cs),
(19,563,l),
(71,563,l),
(79,675,l),
(239,675,l),
(239,59,l),
(149,52,l),
(149,0,l),
(409,0,l),
(409,52,l),
(319,59,l),
(319,675,l),
(479,675,l),
(487,563,l),
(539,563,l),
(539,699,ls),
(539,719,o),
(528,730,o),
(508,730,cs),
(50,730,l,{
name = hr00;
})
);
},
{
closed = 1;
nodes = (
(270,-253,o),
(331,-195,o),
(331,-115,cs),
(331,-89,o),
(314,-68,o),
(285,-68,cs),
(256,-68,o),
(238,-89,o),
(238,-115,cs),
(238,-138,o),
(251,-153,o),
(251,-176,cs),
(251,-210,o),
(236,-231,o),
(211,-255,c),
(233,-281,l,{
name = hr00;
})
);
}
);
};
layerId = master01;
shapes = (
{
ref = T;
},
{
pos = (162,0);
ref = commaaccentcomb;
}
);
width = 558;
}
);
unicode = 538;
},
{
glyphname = U;
lastChange = "2023-01-25 13:55:37 +0000";
layers = (
{
anchors = (
{
name = bottom;
pos = (375,0);
},
{
name = ogonek;
pos = (675,10);
},
{
name = top;
pos = (375,730);
},
{
name = topright;
pos = (730,730);
}
);
background = {
shapes = (
{
closed = 1;
nodes = (
(697,730,l),
(588,730,ls),
(567,730,o),
(555,719,o),
(555,699,cs),
(555,269,ls),
(555,123,o),
(494,49,o),
(374,49,cs),
(256,49,o),
(195,123,o),
(195,269,cs),
(195,699,ls),
(195,719,o),
(184,730,o),
(162,730,cs),
(53,730,l),
(53,678,l),
(115,670,l),
(115,266,ls),
(115,80,o),
(202,-14,o),
(374,-14,cs),
(548,-14,o),
(635,79,o),
(635,266,cs),
(635,670,l),
(697,678,l,{
name = hr00;
})
);
}
);
};
layerId = master01;
shapes = (
{
closed = 1;
nodes = (
(697,730,l),
(588,730,ls),
(567,730,o),
(555,719,o),
(555,699,cs),
(555,269,ls),
(555,123,o),
(494,49,o),
(374,49,cs),
(256,49,o),
(195,123,o),
(195,269,cs),
(195,699,ls),
(195,719,o),
(184,730,o),
(162,730,cs),
(53,730,l),
(53,678,l),
(115,670,l),
(115,266,ls),
(115,80,o),
(202,-14,o),
(374,-14,cs),
(548,-14,o),
(635,79,o),
(635,266,cs),
(635,670,l),
(697,678,l,{
name = hr00;
})
);
}
);
width = 750;
}
);
unicode = 85;
},
{
glyphname = Uacute;
lastChange = "2023-01-25 14:54:15 +0000";
layers = (
{
background = {
shapes = (
{
closed = 1;
nodes = (
(697,730,l),
(588,730,ls),
(567,730,o),
(555,719,o),
(555,699,cs),
(555,269,ls),
(555,123,o),
(494,49,o),
(374,49,cs),
(256,49,o),
(195,123,o),
(195,269,cs),
(195,699,ls),
(195,719,o),
(184,730,o),
(162,730,cs),
(53,730,l),
(53,678,l),
(115,670,l),
(115,266,ls),
(115,80,o),
(202,-14,o),
(374,-14,cs),
(548,-14,o),
(635,79,o),
(635,266,cs),
(635,670,l),
(697,678,l,{
name = hr00;
})
);
},
{
closed = 1;
nodes = (
(472,967,l),
(280,841,l),
(308,795,l),
(510,900,l,{
name = hr00;
})
);
}
);
};
layerId = master01;
shapes = (
{
ref = U;
},
{
pos = (210,0);
ref = acutecomb.case;
}
);
width = 750;
}
);
unicode = 218;
},
{
glyphname = Ubreve;
lastChange = "2023-01-25 14:54:15 +0000";
layers = (
{
background = {
shapes = (
{
closed = 1;
nodes = (
(697,730,l),
(588,730,ls),
(567,730,o),
(555,719,o),
(555,699,cs),
(555,269,ls),
(555,123,o),
(494,49,o),
(374,49,cs),
(256,49,o),
(195,123,o),
(195,269,cs),
(195,699,ls),
(195,719,o),
(184,730,o),
(162,730,cs),
(53,730,l),
(53,678,l),
(115,670,l),
(115,266,ls),
(115,80,o),
(202,-14,o),
(374,-14,cs),
(548,-14,o),
(635,79,o),
(635,266,cs),
(635,670,l),
(697,678,l,{
name = hr00;
})
);
},
{
closed = 1;
nodes = (
(444,892,o),
(419,866,o),
(374,866,cs),
(332,866,o),
(304,896,o),
(304,940,c),
(248,940,l),
(248,858,o),
(298,803,o),
(374,803,cs),
(457,803,o),
(501,851,o),
(501,940,c),
(444,940,l,{
name = hr00;
})
);
}
);
};
layerId = master01;
shapes = (
{
ref = U;
},
{
pos = (162,0);
ref = brevecomb.case;
}
);
width = 750;
}
);
unicode = 364;
},
{
glyphname = Ucircumflex;
lastChange = "2023-01-25 14:54:15 +0000";
layers = (
{
background = {
shapes = (
{
closed = 1;
nodes = (
(697,730,l),
(588,730,ls),
(567,730,o),
(555,719,o),
(555,699,cs),
(555,269,ls),
(555,123,o),
(494,49,o),
(374,49,cs),
(256,49,o),
(195,123,o),
(195,269,cs),
(195,699,ls),
(195,719,o),
(184,730,o),
(162,730,cs),
(53,730,l),
(53,678,l),
(115,670,l),
(115,266,ls),
(115,80,o),
(202,-14,o),
(374,-14,cs),
(548,-14,o),
(635,79,o),
(635,266,cs),
(635,670,l),
(697,678,l,{
name = hr00;
})
);
},
{
closed = 1;
nodes = (
(393,968,l),
(351,968,l),
(229,825,l),
(261,792,l),
(372,890,l),
(484,792,l),
(516,825,l,{
name = hr00;
})
);
}
);
};
layerId = master01;
shapes = (
{
ref = U;
},
{
pos = (174,0);
ref = circumflexcomb.case;
}
);
width = 750;
}
);
unicode = 219;
},
{
glyphname = Udieresis;
lastChange = "2023-01-25 14:54:15 +0000";
layers = (
{
background = {
shapes = (
{
closed = 1;
nodes = (
(697,730,l),
(588,730,ls),
(567,730,o),
(555,719,o),
(555,699,cs),
(555,269,ls),
(555,123,o),
(494,49,o),
(374,49,cs),
(256,49,o),
(195,123,o),
(195,269,cs),
(195,699,ls),
(195,719,o),
(184,730,o),
(162,730,cs),
(53,730,l),
(53,678,l),
(115,670,l),
(115,266,ls),
(115,80,o),
(202,-14,o),
(374,-14,cs),
(548,-14,o),
(635,79,o),
(635,266,cs),
(635,670,l),
(697,678,l,{
name = hr00;
})
);
},
{
closed = 1;
nodes = (
(222,847,o),
(245,824,o),
(272,824,cs),
(299,824,o),
(322,847,o),
(322,874,cs),
(322,901,o),
(299,924,o),
(272,924,cs),
(245,924,o),
(222,901,o),
(222,874,cs,{
name = hr00;
})
);
},
{
closed = 1;
nodes = (
(427,847,o),
(450,824,o),
(477,824,cs),
(504,824,o),
(527,847,o),
(527,874,cs),
(527,901,o),
(504,924,o),
(477,924,cs),
(450,924,o),
(427,901,o),
(427,874,cs)
);
}
);
};
layerId = master01;
shapes = (
{
ref = U;
},
{
pos = (134,0);
ref = dieresiscomb.case;
}
);
width = 750;
}
);
unicode = 220;
},
{
glyphname = Ugrave;
lastChange = "2023-01-25 14:54:15 +0000";
layers = (
{
background = {
shapes = (
{
closed = 1;
nodes = (
(697,730,l),
(588,730,ls),
(567,730,o),
(555,719,o),
(555,699,cs),
(555,269,ls),
(555,123,o),
(494,49,o),
(374,49,cs),
(256,49,o),
(195,123,o),
(195,269,cs),
(195,699,ls),
(195,719,o),
(184,730,o),
(162,730,cs),
(53,730,l),
(53,678,l),
(115,670,l),
(115,266,ls),
(115,80,o),
(202,-14,o),
(374,-14,cs),
(548,-14,o),
(635,79,o),
(635,266,cs),
(635,670,l),
(697,678,l,{
name = hr00;
})
);
},
{
closed = 1;
nodes = (
(298,967,l),
(489,841,l),
(462,795,l),
(259,900,l,{
name = hr00;
})
);
}
);
};
layerId = master01;
shapes = (
{
ref = U;
},
{
pos = (222,0);
ref = gravecomb.case;
}
);
width = 750;
}
);
unicode = 217;
},
{
glyphname = Uhungarumlaut;
lastChange = "2023-01-25 14:54:15 +0000";
layers = (
{
background = {
shapes = (
{
closed = 1;
nodes = (
(697,730,l),
(588,730,ls),
(567,730,o),
(555,719,o),
(555,699,cs),
(555,269,ls),
(555,123,o),
(494,49,o),
(374,49,cs),
(256,49,o),
(195,123,o),
(195,269,cs),
(195,699,ls),
(195,719,o),
(184,730,o),
(162,730,cs),
(53,730,l),
(53,678,l),
(115,670,l),
(115,266,ls),
(115,80,o),
(202,-14,o),
(374,-14,cs),
(548,-14,o),
(635,79,o),
(635,266,cs),
(635,670,l),
(697,678,l,{
name = hr00;
})
);
},
{
closed = 1;
nodes = (
(370,990,l),
(233,806,l),
(276,773,l),
(430,941,l,{
name = hr00;
})
);
},
{
closed = 1;
nodes = (
(555,990,l),
(418,806,l),
(461,773,l),
(615,941,l)
);
}
);
};
layerId = master01;
shapes = (
{
ref = U;
},
{
pos = (173,0);
ref = hungarumlautcomb.case;
}
);
width = 750;
}
);
unicode = 368;
},
{
glyphname = Umacron;
lastChange = "2023-01-25 14:54:15 +0000";
layers = (
{
background = {
shapes = (
{
closed = 1;
nodes = (
(697,730,l),
(588,730,ls),
(567,730,o),
(555,719,o),
(555,699,cs),
(555,269,ls),
(555,123,o),
(494,49,o),
(374,49,cs),
(256,49,o),
(195,123,o),
(195,269,cs),
(195,699,ls),
(195,719,o),
(184,730,o),
(162,730,cs),
(53,730,l),
(53,678,l),
(115,670,l),
(115,266,ls),
(115,80,o),
(202,-14,o),
(374,-14,cs),
(548,-14,o),
(635,79,o),
(635,266,cs),
(635,670,l),
(697,678,l,{
name = hr00;
})
);
},
{
closed = 1;
nodes = (
(501,920,l),
(247,920,l),
(247,853,l),
(501,853,l,{
name = hr00;
})
);
}
);
};
layerId = master01;
shapes = (
{
ref = U;
},
{
pos = (198,0);
ref = macroncomb.case;
}
);
width = 750;
}
);
unicode = 362;
},
{
glyphname = Uogonek;
lastChange = "2023-01-25 14:54:15 +0000";
layers = (
{
background = {
shapes = (
{
closed = 1;
nodes = (
(697,730,l),
(588,730,ls),
(567,730,o),
(555,719,o),
(555,699,cs),
(555,269,ls),
(555,123,o),
(494,49,o),
(374,49,cs),
(256,49,o),
(195,123,o),
(195,269,cs),
(195,699,ls),
(195,719,o),
(184,730,o),
(162,730,cs),
(53,730,l),
(53,678,l),
(115,670,l),
(115,266,ls),
(115,80,o),
(202,-14,o),
(374,-14,cs),
(548,-14,o),
(635,79,o),
(635,266,cs),
(635,670,l),
(697,678,l,{
name = hr00;
})
);
},
{
closed = 1;
nodes = (
(472,30,l),
(436,8,ls),
(374,-30,o),
(339,-63,o),
(339,-120,cs),
(339,-178,o),
(373,-215,o),
(443,-215,cs),
(499,-215,o),
(547,-171,o),
(572,-122,c),
(534,-98,l),
(518,-127,o),
(490,-161,o),
(448,-161,cs),
(412,-161,o),
(391,-140,o),
(391,-109,cs),
(391,-80,o),
(401,-56,o),
(447,-27,cs),
(539,30,l,{
name = hr00;
})
);
}
);
};
layerId = master01;
shapes = (
{
ref = U;
},
{
pos = (396,-20);
ref = ogonekcomb;
}
);
width = 750;
}
);
unicode = 370;
},
{
glyphname = Uring;
lastChange = "2023-01-25 14:54:15 +0000";
layers = (
{
background = {
shapes = (
{
closed = 1;
nodes = (
(697,730,l),
(588,730,ls),
(567,730,o),
(555,719,o),
(555,699,cs),
(555,269,ls),
(555,123,o),
(494,49,o),
(374,49,cs),
(256,49,o),
(195,123,o),
(195,269,cs),
(195,699,ls),
(195,719,o),
(184,730,o),
(162,730,cs),
(53,730,l),
(53,678,l),
(115,670,l),
(115,266,ls),
(115,80,o),
(202,-14,o),
(374,-14,cs),
(548,-14,o),
(635,79,o),
(635,266,cs),
(635,670,l),
(697,678,l,{
name = hr00;
})
);
},
{
closed = 1;
nodes = (
(301,991,o),
(263,946,o),
(263,883,cs),
(263,825,o),
(306,776,o),
(373,776,cs),
(446,776,o),
(486,819,o),
(486,883,cs),
(486,941,o),
(441,991,o),
(373,991,cs,{
name = hr00;
})
);
},
{
closed = 1;
nodes = (
(405,945,o),
(426,916,o),
(426,883,cs),
(426,848,o),
(409,821,o),
(373,821,cs),
(341,821,o),
(321,851,o),
(321,883,cs),
(321,919,o),
(339,945,o),
(373,945,cs)
);
}
);
};
layerId = master01;
shapes = (
{
ref = U;
},
{
pos = (183,0);
ref = ringcomb.case;
}
);
width = 750;
}
);
unicode = 366;
},
{
glyphname = Utilde;
lastChange = "2023-01-25 14:54:15 +0000";
layers = (
{
background = {
shapes = (
{
closed = 1;
nodes = (
(697,730,l),
(588,730,ls),
(567,730,o),
(555,719,o),
(555,699,cs),
(555,269,ls),
(555,123,o),
(494,49,o),
(374,49,cs),
(256,49,o),
(195,123,o),
(195,269,cs),
(195,699,ls),
(195,719,o),
(184,730,o),
(162,730,cs),
(53,730,l),
(53,678,l),
(115,670,l),
(115,266,ls),
(115,80,o),
(202,-14,o),
(374,-14,cs),
(548,-14,o),
(635,79,o),
(635,266,cs),
(635,670,l),
(697,678,l,{
name = hr00;
})
);
},
{
closed = 1;
nodes = (
(477,918,o),
(463,902,o),
(439,902,cs),
(408,902,o),
(349,938,o),
(304,938,cs,{
name = hr01;
}),
(265,938,o),
(236,910,o),
(218,843,c),
(265,829,l),
(273,857,o),
(288,872,o),
(312,872,cs),
(343,872,o),
(400,836,o),
(446,836,cs,{
name = hr02;
}),
(485,836,o),
(515,865,o),
(532,931,c),
(485,946,l)
);
}
);
};
layerId = master01;
shapes = (
{
ref = U;
},
{
pos = (166,0);
ref = tildecomb.case;
}
);
width = 750;
}
);
unicode = 360;
},
{
glyphname = V;
lastChange = "2023-01-25 13:55:37 +0000";
layers = (
{
anchors = (
{
name = bottom;
pos = (309,0);
},
{
name = top;
pos = (309,730);
}
);
background = {
shapes = (
{
closed = 1;
nodes = (
(360,0,l),
(573,670,l),
(620,678,l),
(620,730,l),
(536,730,ls),
(518,730,o),
(507,722,o),
(502,704,cs),
(310,81,l),
(306,81,l),
(115,704,ls),
(109,722,o),
(99,730,o),
(81,730,cs),
(-3,730,l),
(-3,678,l),
(43,670,ls),
(256,0,l,{
name = hr00;
})
);
}
);
};
layerId = master01;
shapes = (
{
closed = 1;
nodes = (
(360,0,l),
(573,670,l),
(620,678,l),
(620,730,l),
(536,730,ls),
(518,730,o),
(507,722,o),
(502,704,cs),
(310,81,l),
(306,81,l),
(115,704,ls),
(109,722,o),
(99,730,o),
(81,730,cs),
(-3,730,l),
(-3,678,l),
(43,670,ls),
(256,0,l,{
name = hr00;
})
);
}
);
width = 617;
}
);
unicode = 86;
},
{
glyphname = W;
lastChange = "2023-01-25 13:55:37 +0000";
layers = (
{
anchors = (
{
name = bottom;
pos = (447,0);
},
{
name = top;
pos = (447,730);
}
);
background = {
shapes = (
{
closed = 1;
nodes = (
(501,704,ls),
(497,722,o),
(486,730,o),
(467,730,cs),
(427,730,ls),
(407,730,o),
(396,722,o),
(393,704,cs),
(243,87,l),
(238,87,l),
(115,704,ls),
(111,722,o),
(100,730,o),
(81,730,cs),
(-3,730,l),
(-3,678,l),
(43,670,l),
(189,0,l),
(289,0,l),
(447,663,l),
(605,0,l),
(705,0,l),
(851,670,l),
(897,678,l),
(897,730,l),
(814,730,ls),
(794,730,o),
(782,721,o),
(779,704,cs),
(656,87,l),
(652,87,l,{
name = hr00;
})
);
}
);
};
layerId = master01;
shapes = (
{
closed = 1;
nodes = (
(501,704,ls),
(497,722,o),
(486,730,o),
(467,730,cs),
(427,730,ls),
(407,730,o),
(396,722,o),
(393,704,cs),
(243,87,l),
(238,87,l),
(115,704,ls),
(111,722,o),
(100,730,o),
(81,730,cs),
(-3,730,l),
(-3,678,l),
(43,670,l),
(189,0,l),
(289,0,l),
(447,663,l),
(605,0,l),
(705,0,l),
(851,670,l),
(897,678,l),
(897,730,l),
(814,730,ls),
(794,730,o),
(782,721,o),
(779,704,cs),
(656,87,l),
(652,87,l,{
name = hr00;
})
);
}
);
width = 894;
}
);
unicode = 87;
},
{
glyphname = Wacute;
lastChange = "2023-01-25 14:54:15 +0000";
layers = (
{
background = {
shapes = (
{
closed = 1;
nodes = (
(501,704,ls),
(497,722,o),
(486,730,o),
(467,730,cs),
(427,730,ls),
(407,730,o),
(396,722,o),
(393,704,cs),
(243,87,l),
(238,87,l),
(115,704,ls),
(111,722,o),
(100,730,o),
(81,730,cs),
(-3,730,l),
(-3,678,l),
(43,670,l),
(189,0,l),
(289,0,l),
(447,663,l),
(605,0,l),
(705,0,l),
(851,670,l),
(897,678,l),
(897,730,l),
(814,730,ls),
(794,730,o),
(782,721,o),
(779,704,cs),
(656,87,l),
(652,87,l,{
name = hr00;
})
);
},
{
closed = 1;
nodes = (
(524,969,l),
(332,843,l),
(360,797,l),
(562,902,l,{
name = hr00;
})
);
}
);
};
layerId = master01;
shapes = (
{
ref = W;
},
{
pos = (282,0);
ref = acutecomb.case;
}
);
width = 894;
}
);
unicode = 7810;
},
{
glyphname = Wcircumflex;
lastChange = "2023-01-25 14:54:15 +0000";
layers = (
{
background = {
shapes = (
{
closed = 1;
nodes = (
(501,704,ls),
(497,722,o),
(486,730,o),
(467,730,cs),
(427,730,ls),
(407,730,o),
(396,722,o),
(393,704,cs),
(243,87,l),
(238,87,l),
(115,704,ls),
(111,722,o),
(100,730,o),
(81,730,cs),
(-3,730,l),
(-3,678,l),
(43,670,l),
(189,0,l),
(289,0,l),
(447,663,l),
(605,0,l),
(705,0,l),
(851,670,l),
(897,678,l),
(897,730,l),
(814,730,ls),
(794,730,o),
(782,721,o),
(779,704,cs),
(656,87,l),
(652,87,l,{
name = hr00;
})
);
},
{
closed = 1;
nodes = (
(468,970,l),
(426,970,l),
(304,827,l),
(336,794,l),
(447,892,l),
(559,794,l),
(591,827,l,{
name = hr00;
})
);
}
);
};
layerId = master01;
shapes = (
{
ref = W;
},
{
pos = (246,0);
ref = circumflexcomb.case;
}
);
width = 894;
}
);
unicode = 372;
},
{
glyphname = Wdieresis;
lastChange = "2023-01-25 14:54:15 +0000";
layers = (
{
background = {
shapes = (
{
closed = 1;
nodes = (
(501,704,ls),
(497,722,o),
(486,730,o),
(467,730,cs),
(427,730,ls),
(407,730,o),
(396,722,o),
(393,704,cs),
(243,87,l),
(238,87,l),
(115,704,ls),
(111,722,o),
(100,730,o),
(81,730,cs),
(-3,730,l),
(-3,678,l),
(43,670,l),
(189,0,l),
(289,0,l),
(447,663,l),
(605,0,l),
(705,0,l),
(851,670,l),
(897,678,l),
(897,730,l),
(814,730,ls),
(794,730,o),
(782,721,o),
(779,704,cs),
(656,87,l),
(652,87,l,{
name = hr00;
})
);
},
{
closed = 1;
nodes = (
(294,849,o),
(317,826,o),
(344,826,cs),
(371,826,o),
(394,849,o),
(394,876,cs),
(394,903,o),
(371,926,o),
(344,926,cs),
(317,926,o),
(294,903,o),
(294,876,cs,{
name = hr00;
})
);
},
{
closed = 1;
nodes = (
(499,849,o),
(522,826,o),
(549,826,cs),
(576,826,o),
(599,849,o),
(599,876,cs),
(599,903,o),
(576,926,o),
(549,926,cs),
(522,926,o),
(499,903,o),
(499,876,cs)
);
}
);
};
layerId = master01;
shapes = (
{
ref = W;
},
{
pos = (206,0);
ref = dieresiscomb.case;
}
);
width = 894;
}
);
unicode = 7812;
},
{
glyphname = Wgrave;
lastChange = "2023-01-25 14:54:15 +0000";
layers = (
{
background = {
shapes = (
{
closed = 1;
nodes = (
(501,704,ls),
(497,722,o),
(486,730,o),
(467,730,cs),
(427,730,ls),
(407,730,o),
(396,722,o),
(393,704,cs),
(243,87,l),
(238,87,l),
(115,704,ls),
(111,722,o),
(100,730,o),
(81,730,cs),
(-3,730,l),
(-3,678,l),
(43,670,l),
(189,0,l),
(289,0,l),
(447,663,l),
(605,0,l),
(705,0,l),
(851,670,l),
(897,678,l),
(897,730,l),
(814,730,ls),
(794,730,o),
(782,721,o),
(779,704,cs),
(656,87,l),
(652,87,l,{
name = hr00;
})
);
},
{
closed = 1;
nodes = (
(371,969,l),
(562,843,l),
(535,797,l),
(332,902,l,{
name = hr00;
})
);
}
);
};
layerId = master01;
shapes = (
{
ref = W;
},
{
pos = (294,0);
ref = gravecomb.case;
}
);
width = 894;
}
);
unicode = 7808;
},
{
glyphname = X;
lastChange = "2023-01-25 13:55:37 +0000";
layers = (
{
anchors = (
{
name = bottom;
pos = (337,0);
},
{
name = top;
pos = (337,730);
}
);
background = {
shapes = (
{
closed = 1;
nodes = (
(170,724,o),
(159,730,o),
(142,730,cs),
(50,730,l),
(50,679,l),
(109,671,l),
(289,379,l),
(93,59,l),
(33,52,l),
(33,0,l),
(120,0,ls),
(137,0,o),
(148,6,o),
(157,21,cs),
(332,309,l),
(511,20,ls),
(519,6,o),
(531,0,o),
(548,0,cs),
(640,0,l),
(640,52,l),
(581,59,l),
(384,378,l),
(564,671,l),
(623,679,l),
(623,730,l),
(537,730,ls),
(520,730,o),
(510,724,o),
(501,709,cs),
(341,447,l),
(179,709,ls,{
name = hr00;
})
);
}
);
};
layerId = master01;
shapes = (
{
closed = 1;
nodes = (
(170,724,o),
(159,730,o),
(142,730,cs),
(50,730,l),
(50,679,l),
(109,671,l),
(289,379,l),
(93,59,l),
(33,52,l),
(33,0,l),
(120,0,ls),
(137,0,o),
(148,6,o),
(157,21,cs),
(332,309,l),
(511,20,ls),
(519,6,o),
(531,0,o),
(548,0,cs),
(640,0,l),
(640,52,l),
(581,59,l),
(384,378,l),
(564,671,l),
(623,679,l),
(623,730,l),
(537,730,ls),
(520,730,o),
(510,724,o),
(501,709,cs),
(341,447,l),
(179,709,ls,{
name = hr00;
})
);
}
);
width = 673;
}
);
unicode = 88;
},
{
glyphname = Y;
lastChange = "2023-01-25 13:55:37 +0000";
layers = (
{
anchors = (
{
name = bottom;
pos = (274,0);
},
{
name = top;
pos = (274,730);
},
{
name = topleft;
pos = (20,730);
}
);
background = {
shapes = (
{
closed = 1;
nodes = (
(550,678,l),
(550,730,l),
(459,730,ls),
(441,730,o),
(429,723,o),
(422,707,cs),
(275,347,l),
(126,707,ls),
(118,723,o),
(107,730,o),
(89,730,cs),
(-3,730,l),
(-3,678,l),
(52,670,l),
(235,259,l),
(235,59,l),
(145,52,l),
(145,0,l),
(405,0,l),
(405,52,l),
(315,59,l),
(315,262,l),
(495,670,l,{
name = hr00;
})
);
}
);
};
layerId = master01;
shapes = (
{
closed = 1;
nodes = (
(550,678,l),
(550,730,l),
(459,730,ls),
(441,730,o),
(429,723,o),
(422,707,cs),
(275,347,l),
(126,707,ls),
(118,723,o),
(107,730,o),
(89,730,cs),
(-3,730,l),
(-3,678,l),
(52,670,l),
(235,259,l),
(235,59,l),
(145,52,l),
(145,0,l),
(405,0,l),
(405,52,l),
(315,59,l),
(315,262,l),
(495,670,l,{
name = hr00;
})
);
}
);
width = 548;
}
);
unicode = 89;
},
{
glyphname = Yacute;
lastChange = "2023-01-25 14:54:15 +0000";
layers = (
{
background = {
shapes = (
{
closed = 1;
nodes = (
(550,678,l),
(550,730,l),
(459,730,ls),
(441,730,o),
(429,723,o),
(422,707,cs),
(275,347,l),
(126,707,ls),
(118,723,o),
(107,730,o),
(89,730,cs),
(-3,730,l),
(-3,678,l),
(52,670,l),
(235,259,l),
(235,59,l),
(145,52,l),
(145,0,l),
(405,0,l),
(405,52,l),
(315,59,l),
(315,262,l),
(495,670,l,{
name = hr00;
})
);
},
{
closed = 1;
nodes = (
(371,967,l),
(179,841,l),
(207,795,l),
(409,900,l,{
name = hr00;
})
);
}
);
};
layerId = master01;
shapes = (
{
ref = Y;
},
{
pos = (109,0);
ref = acutecomb.case;
}
);
width = 548;
}
);
unicode = 221;
},
{
glyphname = Ycircumflex;
lastChange = "2023-01-25 14:54:15 +0000";
layers = (
{
background = {
shapes = (
{
closed = 1;
nodes = (
(550,678,l),
(550,730,l),
(459,730,ls),
(441,730,o),
(429,723,o),
(422,707,cs),
(275,347,l),
(126,707,ls),
(118,723,o),
(107,730,o),
(89,730,cs),
(-3,730,l),
(-3,678,l),
(52,670,l),
(235,259,l),
(235,59,l),
(145,52,l),
(145,0,l),
(405,0,l),
(405,52,l),
(315,59,l),
(315,262,l),
(495,670,l,{
name = hr00;
})
);
},
{
closed = 1;
nodes = (
(294,970,l),
(252,970,l),
(130,827,l),
(162,794,l),
(273,892,l),
(385,794,l),
(417,827,l,{
name = hr00;
})
);
}
);
};
layerId = master01;
shapes = (
{
ref = Y;
},
{
pos = (73,0);
ref = circumflexcomb.case;
}
);
width = 548;
}
);
unicode = 374;
},
{
glyphname = Ydieresis;
lastChange = "2023-01-25 14:54:15 +0000";
layers = (
{
background = {
shapes = (
{
closed = 1;
nodes = (
(550,678,l),
(550,730,l),
(459,730,ls),
(441,730,o),
(429,723,o),
(422,707,cs),
(275,347,l),
(126,707,ls),
(118,723,o),
(107,730,o),
(89,730,cs),
(-3,730,l),
(-3,678,l),
(52,670,l),
(235,259,l),
(235,59,l),
(145,52,l),
(145,0,l),
(405,0,l),
(405,52,l),
(315,59,l),
(315,262,l),
(495,670,l,{
name = hr00;
})
);
},
{
closed = 1;
nodes = (
(122,847,o),
(145,824,o),
(172,824,cs),
(199,824,o),
(222,847,o),
(222,874,cs),
(222,901,o),
(199,924,o),
(172,924,cs),
(145,924,o),
(122,901,o),
(122,874,cs,{
name = hr00;
})
);
},
{
closed = 1;
nodes = (
(327,847,o),
(350,824,o),
(377,824,cs),
(404,824,o),
(427,847,o),
(427,874,cs),
(427,901,o),
(404,924,o),
(377,924,cs),
(350,924,o),
(327,901,o),
(327,874,cs)
);
}
);
};
layerId = master01;
shapes = (
{
ref = Y;
},
{
pos = (33,0);
ref = dieresiscomb.case;
}
);
width = 548;
}
);
unicode = 376;
},
{
glyphname = Ygrave;
lastChange = "2023-01-25 14:54:15 +0000";
layers = (
{
background = {
shapes = (
{
closed = 1;
nodes = (
(550,678,l),
(550,730,l),
(459,730,ls),
(441,730,o),
(429,723,o),
(422,707,cs),
(275,347,l),
(126,707,ls),
(118,723,o),
(107,730,o),
(89,730,cs),
(-3,730,l),
(-3,678,l),
(52,670,l),
(235,259,l),
(235,59,l),
(145,52,l),
(145,0,l),
(405,0,l),
(405,52,l),
(315,59,l),
(315,262,l),
(495,670,l,{
name = hr00;
})
);
},
{
closed = 1;
nodes = (
(198,969,l),
(389,843,l),
(362,797,l),
(159,902,l,{
name = hr00;
})
);
}
);
};
layerId = master01;
shapes = (
{
ref = Y;
},
{
pos = (121,0);
ref = gravecomb.case;
}
);
width = 548;
}
);
unicode = 7922;
},
{
glyphname = Z;
lastChange = "2023-01-25 13:55:37 +0000";
layers = (
{
anchors = (
{
name = bottom;
pos = (301,0);
},
{
name = center;
pos = (301,365);
},
{
name = top;
pos = (301,730);
}
);
background = {
shapes = (
{
closed = 1;
nodes = (
(513,0,ls),
(533,0,o),
(544,10,o),
(544,31,cs),
(544,167,l),
(491,167,l),
(484,55,l),
(146,55,l),
(544,682,l),
(544,730,l),
(108,730,ls),
(87,730,o),
(77,719,o),
(77,699,cs),
(77,563,l),
(129,563,l),
(137,675,l),
(455,675,l),
(57,48,l),
(57,0,l,{
name = hr00;
})
);
}
);
};
layerId = master01;
shapes = (
{
closed = 1;
nodes = (
(513,0,ls),
(533,0,o),
(544,10,o),
(544,31,cs),
(544,167,l),
(491,167,l),
(484,55,l),
(146,55,l),
(544,682,l),
(544,730,l),
(108,730,ls),
(87,730,o),
(77,719,o),
(77,699,cs),
(77,563,l),
(129,563,l),
(137,675,l),
(455,675,l),
(57,48,l),
(57,0,l,{
name = hr00;
})
);
}
);
width = 601;
}
);
unicode = 90;
},
{
glyphname = Zacute;
lastChange = "2023-01-25 14:54:15 +0000";
layers = (
{
background = {
shapes = (
{
closed = 1;
nodes = (
(513,0,ls),
(533,0,o),
(544,10,o),
(544,31,cs),
(544,167,l),
(491,167,l),
(484,55,l),
(146,55,l),
(544,682,l),
(544,730,l),
(108,730,ls),
(87,730,o),
(77,719,o),
(77,699,cs),
(77,563,l),
(129,563,l),
(137,675,l),
(455,675,l),
(57,48,l),
(57,0,l,{
name = hr00;
})
);
},
{
closed = 1;
nodes = (
(397,969,l),
(205,843,l),
(233,797,l),
(435,902,l,{
name = hr00;
})
);
}
);
};
layerId = master01;
shapes = (
{
ref = Z;
},
{
pos = (136,0);
ref = acutecomb.case;
}
);
width = 601;
}
);
unicode = 377;
},
{
glyphname = Zcaron;
lastChange = "2023-01-25 14:54:15 +0000";
layers = (
{
background = {
shapes = (
{
closed = 1;
nodes = (
(513,0,ls),
(533,0,o),
(544,10,o),
(544,31,cs),
(544,167,l),
(491,167,l),
(484,55,l),
(146,55,l),
(544,682,l),
(544,730,l),
(108,730,ls),
(87,730,o),
(77,719,o),
(77,699,cs),
(77,563,l),
(129,563,l),
(137,675,l),
(455,675,l),
(57,48,l),
(57,0,l,{
name = hr00;
})
);
},
{
closed = 1;
nodes = (
(341,802,l),
(299,802,l),
(177,945,l),
(209,978,l),
(320,880,l),
(432,978,l),
(464,945,l,{
name = hr00;
})
);
}
);
};
layerId = master01;
shapes = (
{
ref = Z;
},
{
pos = (100,0);
ref = caroncomb.case;
}
);
width = 601;
}
);
unicode = 381;
},
{
glyphname = Zdotaccent;
lastChange = "2023-01-25 14:54:15 +0000";
layers = (
{
background = {
shapes = (
{
closed = 1;
nodes = (
(513,0,ls),
(533,0,o),
(544,10,o),
(544,31,cs),
(544,167,l),
(491,167,l),
(484,55,l),
(146,55,l),
(544,682,l),
(544,730,l),
(108,730,ls),
(87,730,o),
(77,719,o),
(77,699,cs),
(77,563,l),
(129,563,l),
(137,675,l),
(455,675,l),
(57,48,l),
(57,0,l,{
name = hr00;
})
);
},
{
closed = 1;
nodes = (
(269,848,o),
(292,825,o),
(320,825,cs),
(347,825,o),
(371,848,o),
(371,876,cs),
(371,903,o),
(347,927,o),
(320,927,cs),
(292,927,o),
(269,903,o),
(269,876,cs,{
name = hr00;
})
);
}
);
};
layerId = master01;
shapes = (
{
ref = Z;
},
{
pos = (155,0);
ref = dotaccentcomb.case;
}
);
width = 601;
}
);
unicode = 379;
},
{
glyphname = C.002;
lastChange = "2023-01-25 13:54:55 +0000";
layers = (
{
background = {
shapes = (
{
closed = 1;
nodes = (
(228,730,o),
(264,713,o),
(291,700,c),
(307,736,l),
(280,751,o),
(238,767,o),
(186,767,cs),
(65,767,o),
(32,657,o),
(32,568,cs),
(32,473,o),
(64,358,o),
(184,358,cs),
(264,358,o),
(303,413,o),
(320,491,c),
(276,501,l),
(266,434,o),
(237,395,o),
(184,395,cs),
(99,395,o),
(82,499,o),
(82,569,cs),
(82,638,o),
(101,730,o),
(186,730,cs,{
name = hr00;
})
);
}
);
};
layerId = master01;
shapes = (
{
closed = 1;
nodes = (
(228,730,o),
(264,713,o),
(291,700,c),
(307,736,l),
(280,751,o),
(238,767,o),
(186,767,cs),
(65,767,o),
(32,657,o),
(32,568,cs),
(32,473,o),
(64,358,o),
(184,358,cs),
(264,358,o),
(303,413,o),
(320,491,c),
(276,501,l),
(266,434,o),
(237,395,o),
(184,395,cs),
(99,395,o),
(82,499,o),
(82,569,cs),
(82,638,o),
(101,730,o),
(186,730,cs,{
name = hr00;
})
);
}
);
width = 337;
}
);
},
{
glyphname = R.001;
lastChange = "2023-01-25 13:54:55 +0000";
layers = (
{
background = {
shapes = (
{
closed = 1;
nodes = (
(275,495,ls),
(268,513,o),
(255,527,o),
(237,536,c),
(285,550,o),
(309,587,o),
(309,643,cs),
(309,719,o),
(263,760,o),
(181,760,cs),
(40,760,l),
(40,726,l),
(71,726,l),
(71,400,l),
(40,400,l),
(40,366,l),
(166,366,l),
(166,399,l),
(121,399,l),
(121,726,l),
(181,726,ls),
(234,726,o),
(261,695,o),
(261,643,cs),
(261,592,o),
(234,562,o),
(181,562,cs),
(151,562,l),
(151,527,l),
(199,527,o),
(213,522,o),
(225,491,cs),
(273,366,l),
(327,366,l,{
name = hr00;
})
);
}
);
};
layerId = master01;
shapes = (
{
closed = 1;
nodes = (
(275,495,ls),
(268,513,o),
(255,527,o),
(237,536,c),
(285,550,o),
(309,587,o),
(309,643,cs),
(309,719,o),
(263,760,o),
(181,760,cs),
(40,760,l),
(40,726,l),
(71,726,l),
(71,400,l),
(40,400,l),
(40,366,l),
(166,366,l),
(166,399,l),
(121,399,l),
(121,726,l),
(181,726,ls),
(234,726,o),
(261,695,o),
(261,643,cs),
(261,592,o),
(234,562,o),
(181,562,cs),
(151,562,l),
(151,527,l),
(199,527,o),
(213,522,o),
(225,491,cs),
(273,366,l),
(327,366,l,{
name = hr00;
})
);
}
);
width = 362;
}
);
},
{
glyphname = S.alt;
lastChange = "2023-01-25 13:54:55 +0000";
layers = (
{
background = {
shapes = (
{
closed = 1;
nodes = (
(358,683,o),
(428,652,o),
(473,627,c),
(500,687,l),
(444,714,o),
(374,744,o),
(278,744,cs),
(151,744,o),
(58,679,o),
(58,560,cs),
(58,309,o),
(427,363,o),
(427,179,cs),
(427,96,o),
(373,47,o),
(277,47,cs),
(185,47,o),
(134,109,o),
(108,206,c),
(38,189,l),
(67,62,o),
(152,-14,o),
(277,-14,cs),
(415,-14,o),
(507,57,o),
(507,179,cs),
(507,424,o),
(138,368,o),
(138,560,cs),
(138,639,o),
(196,683,o),
(278,683,c,{
name = hr00;
})
);
}
);
};
layerId = master01;
shapes = (
{
closed = 1;
nodes = (
(358,683,o),
(428,652,o),
(473,627,c),
(500,687,l),
(444,714,o),
(374,744,o),
(278,744,cs),
(151,744,o),
(58,679,o),
(58,560,cs),
(58,309,o),
(427,363,o),
(427,179,cs),
(427,96,o),
(373,47,o),
(277,47,cs),
(185,47,o),
(134,109,o),
(108,206,c),
(38,189,l),
(67,62,o),
(152,-14,o),
(277,-14,cs),
(415,-14,o),
(507,57,o),
(507,179,cs),
(507,424,o),
(138,368,o),
(138,560,cs),
(138,639,o),
(196,683,o),
(278,683,c,{
name = hr00;
})
);
}
);
width = 545;
}
);
},
{
glyphname = a;
lastChange = "2023-01-25 13:55:37 +0000";
layers = (
{
anchors = (
{
name = bottom;
pos = (306,0);
},
{
name = ogonek;
pos = (551,10);
},
{
name = top;
pos = (306,572);
}
);
background = {
shapes = (
{
closed = 1;
nodes = (
(286,-14,o),
(360,33,o),
(403,117,c),
(403,99,ls),
(403,22,o),
(434,-14,o),
(498,-14,cs),
(524,-14,o),
(547,-10,o),
(574,-1,c),
(565,59,l),
(552,55,o),
(537,53,o),
(524,53,cs),
(497,53,o),
(482,73,o),
(482,108,cs),
(482,382,ls),
(482,521,o),
(419,586,o),
(286,586,cs),
(229,586,o),
(152,567,o),
(90,538,c),
(116,478,l),
(168,508,o),
(230,526,o),
(279,526,cs),
(367,526,o),
(403,481,o),
(403,372,cs),
(403,334,l),
(160,334,o),
(52,274,o),
(52,139,cs),
(52,45,o),
(109,-14,o),
(199,-14,cs,{
name = hr00;
})
);
},
{
closed = 1;
nodes = (
(164,47,o),
(127,84,o),
(127,144,cs),
(127,237,o),
(216,282,o),
(403,283,c),
(403,142,o),
(331,47,o),
(224,47,cs)
);
}
);
};
layerId = master01;
shapes = (
{
closed = 1;
nodes = (
(286,-14,o),
(360,33,o),
(403,117,c),
(403,99,ls),
(403,22,o),
(434,-14,o),
(498,-14,cs),
(524,-14,o),
(547,-10,o),
(574,-1,c),
(565,59,l),
(552,55,o),
(537,53,o),
(524,53,cs),
(497,53,o),
(482,73,o),
(482,108,cs),
(482,382,ls),
(482,521,o),
(419,586,o),
(286,586,cs),
(229,586,o),
(152,567,o),
(90,538,c),
(116,478,l),
(168,508,o),
(230,526,o),
(279,526,cs),
(367,526,o),
(403,481,o),
(403,372,cs),
(403,334,l),
(160,334,o),
(52,274,o),
(52,139,cs),
(52,45,o),
(109,-14,o),
(199,-14,cs,{
name = hr00;
})
);
},
{
closed = 1;
nodes = (
(164,47,o),
(127,84,o),
(127,144,cs),
(127,237,o),
(216,282,o),
(403,283,c),
(403,142,o),
(331,47,o),
(224,47,cs)
);
}
);
width = 612;
}
);
unicode = 97;
},
{
glyphname = aacute;
lastChange = "2023-01-25 14:54:15 +0000";
layers = (
{
background = {
shapes = (
{
closed = 1;
nodes = (
(286,-14,o),
(360,33,o),
(403,117,c),
(403,99,ls),
(403,22,o),
(434,-14,o),
(498,-14,cs),
(524,-14,o),
(547,-10,o),
(574,-1,c),
(565,59,l),
(552,55,o),
(537,53,o),
(524,53,cs),
(497,53,o),
(482,73,o),
(482,108,cs),
(482,382,ls),
(482,521,o),
(419,586,o),
(286,586,cs),
(229,586,o),
(152,567,o),
(90,538,c),
(116,478,l),
(168,508,o),
(230,526,o),
(279,526,cs),
(367,526,o),
(403,481,o),
(403,372,cs),
(403,334,l),
(160,334,o),
(52,274,o),
(52,139,cs),
(52,45,o),
(109,-14,o),
(199,-14,cs,{
name = hr00;
})
);
},
{
closed = 1;
nodes = (
(164,47,o),
(127,84,o),
(127,144,cs),
(127,237,o),
(216,282,o),
(403,283,c),
(403,142,o),
(331,47,o),
(224,47,cs)
);
},
{
closed = 1;
nodes = (
(375,809,l),
(183,683,l),
(211,637,l),
(413,742,l,{
name = hr00;
})
);
}
);
};
layerId = master01;
shapes = (
{
ref = a;
},
{
pos = (141,0);
ref = acutecomb;
}
);
width = 612;
}
);
unicode = 225;
},
{
glyphname = abreve;
lastChange = "2023-01-25 14:54:15 +0000";
layers = (
{
background = {
shapes = (
{
closed = 1;
nodes = (
(286,-14,o),
(360,33,o),
(403,117,c),
(403,99,ls),
(403,22,o),
(434,-14,o),
(498,-14,cs),
(524,-14,o),
(547,-10,o),
(574,-1,c),
(565,59,l),
(552,55,o),
(537,53,o),
(524,53,cs),
(497,53,o),
(482,73,o),
(482,108,cs),
(482,382,ls),
(482,521,o),
(419,586,o),
(286,586,cs),
(229,586,o),
(152,567,o),
(90,538,c),
(116,478,l),
(168,508,o),
(230,526,o),
(279,526,cs),
(367,526,o),
(403,481,o),
(403,372,cs),
(403,334,l),
(160,334,o),
(52,274,o),
(52,139,cs),
(52,45,o),
(109,-14,o),
(199,-14,cs,{
name = hr00;
})
);
},
{
closed = 1;
nodes = (
(164,47,o),
(127,84,o),
(127,144,cs),
(127,237,o),
(216,282,o),
(403,283,c),
(403,142,o),
(331,47,o),
(224,47,cs)
);
},
{
closed = 1;
nodes = (
(375,732,o),
(350,706,o),
(305,706,cs),
(263,706,o),
(235,736,o),
(235,780,c),
(179,780,l),
(179,698,o),
(229,643,o),
(305,643,cs),
(388,643,o),
(432,691,o),
(432,780,c),
(375,780,l,{
name = hr00;
})
);
}
);
};
layerId = master01;
shapes = (
{
ref = a;
},
{
pos = (93,0);
ref = brevecomb;
}
);
width = 612;
}
);
unicode = 259;
},
{
glyphname = acircumflex;
lastChange = "2023-01-25 14:54:15 +0000";
layers = (
{
background = {
shapes = (
{
closed = 1;
nodes = (
(286,-14,o),
(360,33,o),
(403,117,c),
(403,99,ls),
(403,22,o),
(434,-14,o),
(498,-14,cs),
(524,-14,o),
(547,-10,o),
(574,-1,c),
(565,59,l),
(552,55,o),
(537,53,o),
(524,53,cs),
(497,53,o),
(482,73,o),
(482,108,cs),
(482,382,ls),
(482,521,o),
(419,586,o),
(286,586,cs),
(229,586,o),
(152,567,o),
(90,538,c),
(116,478,l),
(168,508,o),
(230,526,o),
(279,526,cs),
(367,526,o),
(403,481,o),
(403,372,cs),
(403,334,l),
(160,334,o),
(52,274,o),
(52,139,cs),
(52,45,o),
(109,-14,o),
(199,-14,cs,{
name = hr00;
})
);
},
{
closed = 1;
nodes = (
(164,47,o),
(127,84,o),
(127,144,cs),
(127,237,o),
(216,282,o),
(403,283,c),
(403,142,o),
(331,47,o),
(224,47,cs)
);
},
{
closed = 1;
nodes = (
(311,810,l),
(269,810,l),
(147,667,l),
(179,634,l),
(290,732,l),
(402,634,l),
(434,667,l,{
name = hr00;
})
);
}
);
};
layerId = master01;
shapes = (
{
ref = a;
},
{
pos = (105,0);
ref = circumflexcomb;
}
);
width = 612;
}
);
unicode = 226;
},
{
glyphname = adieresis;
lastChange = "2023-01-25 14:54:14 +0000";
layers = (
{
background = {
shapes = (
{
closed = 1;
nodes = (
(286,-14,o),
(360,33,o),
(403,117,c),
(403,99,ls),
(403,22,o),
(434,-14,o),
(498,-14,cs),
(524,-14,o),
(547,-10,o),
(574,-1,c),
(565,59,l),
(552,55,o),
(537,53,o),
(524,53,cs),
(497,53,o),
(482,73,o),
(482,108,cs),
(482,382,ls),
(482,521,o),
(419,586,o),
(286,586,cs),
(229,586,o),
(152,567,o),
(90,538,c),
(116,478,l),
(168,508,o),
(230,526,o),
(279,526,cs),
(367,526,o),
(403,481,o),
(403,372,cs),
(403,334,l),
(160,334,o),
(52,274,o),
(52,139,cs),
(52,45,o),
(109,-14,o),
(199,-14,cs,{
name = hr00;
})
);
},
{
closed = 1;
nodes = (
(164,47,o),
(127,84,o),
(127,144,cs),
(127,237,o),
(216,282,o),
(403,283,c),
(403,142,o),
(331,47,o),
(224,47,cs)
);
},
{
closed = 1;
nodes = (
(145,689,o),
(168,666,o),
(195,666,cs),
(222,666,o),
(245,689,o),
(245,716,cs),
(245,743,o),
(222,766,o),
(195,766,cs),
(168,766,o),
(145,743,o),
(145,716,cs,{
name = hr00;
})
);
},
{
closed = 1;
nodes = (
(350,689,o),
(373,666,o),
(400,666,cs),
(427,666,o),
(450,689,o),
(450,716,cs),
(450,743,o),
(427,766,o),
(400,766,cs),
(373,766,o),
(350,743,o),
(350,716,cs)
);
}
);
};
layerId = master01;
shapes = (
{
ref = a;
},
{
pos = (65,0);
ref = dieresiscomb;
}
);
width = 612;
}
);
unicode = 228;
},
{
glyphname = agrave;
lastChange = "2023-01-25 14:54:15 +0000";
layers = (
{
background = {
shapes = (
{
closed = 1;
nodes = (
(286,-14,o),
(360,33,o),
(403,117,c),
(403,99,ls),
(403,22,o),
(434,-14,o),
(498,-14,cs),
(524,-14,o),
(547,-10,o),
(574,-1,c),
(565,59,l),
(552,55,o),
(537,53,o),
(524,53,cs),
(497,53,o),
(482,73,o),
(482,108,cs),
(482,382,ls),
(482,521,o),
(419,586,o),
(286,586,cs),
(229,586,o),
(152,567,o),
(90,538,c),
(116,478,l),
(168,508,o),
(230,526,o),
(279,526,cs),
(367,526,o),
(403,481,o),
(403,372,cs),
(403,334,l),
(160,334,o),
(52,274,o),
(52,139,cs),
(52,45,o),
(109,-14,o),
(199,-14,cs,{
name = hr00;
})
);
},
{
closed = 1;
nodes = (
(164,47,o),
(127,84,o),
(127,144,cs),
(127,237,o),
(216,282,o),
(403,283,c),
(403,142,o),
(331,47,o),
(224,47,cs)
);
},
{
closed = 1;
nodes = (
(221,809,l),
(412,683,l),
(385,637,l),
(182,742,l,{
name = hr00;
})
);
}
);
};
layerId = master01;
shapes = (
{
ref = a;
},
{
pos = (153,0);
ref = gravecomb;
}
);
width = 612;
}
);
unicode = 224;
},
{
glyphname = amacron;
lastChange = "2023-01-25 14:54:15 +0000";
layers = (
{
background = {
shapes = (
{
closed = 1;
nodes = (
(286,-14,o),
(360,33,o),
(403,117,c),
(403,99,ls),
(403,22,o),
(434,-14,o),
(498,-14,cs),
(524,-14,o),
(547,-10,o),
(574,-1,c),
(565,59,l),
(552,55,o),
(537,53,o),
(524,53,cs),
(497,53,o),
(482,73,o),
(482,108,cs),
(482,382,ls),
(482,521,o),
(419,586,o),
(286,586,cs),
(229,586,o),
(152,567,o),
(90,538,c),
(116,478,l),
(168,508,o),
(230,526,o),
(279,526,cs),
(367,526,o),
(403,481,o),
(403,372,cs),
(403,334,l),
(160,334,o),
(52,274,o),
(52,139,cs),
(52,45,o),
(109,-14,o),
(199,-14,cs,{
name = hr00;
})
);
},
{
closed = 1;
nodes = (
(164,47,o),
(127,84,o),
(127,144,cs),
(127,237,o),
(216,282,o),
(403,283,c),
(403,142,o),
(331,47,o),
(224,47,cs)
);
},
{
closed = 1;
nodes = (
(432,760,l),
(178,760,l),
(178,693,l),
(432,693,l,{
name = hr00;
})
);
}
);
};
layerId = master01;
shapes = (
{
ref = a;
},
{
pos = (129,0);
ref = macroncomb;
}
);
width = 612;
}
);
unicode = 257;
},
{
glyphname = aogonek;
lastChange = "2023-01-25 14:54:15 +0000";
layers = (
{
background = {
shapes = (
{
closed = 1;
nodes = (
(286,-14,o),
(360,33,o),
(403,117,c),
(403,99,ls),
(403,22,o),
(434,-14,o),
(498,-14,cs),
(524,-14,o),
(547,-10,o),
(574,-1,c),
(565,59,l),
(552,55,o),
(537,53,o),
(524,53,cs),
(497,53,o),
(482,73,o),
(482,108,cs),
(482,382,ls),
(482,521,o),
(419,586,o),
(286,586,cs),
(229,586,o),
(152,567,o),
(90,538,c),
(116,478,l),
(168,508,o),
(230,526,o),
(279,526,cs),
(367,526,o),
(403,481,o),
(403,372,cs),
(403,334,l),
(160,334,o),
(52,274,o),
(52,139,cs),
(52,45,o),
(109,-14,o),
(199,-14,cs,{
name = hr00;
})
);
},
{
closed = 1;
nodes = (
(164,47,o),
(127,84,o),
(127,144,cs),
(127,237,o),
(216,282,o),
(403,283,c),
(403,142,o),
(331,47,o),
(224,47,cs)
);
},
{
closed = 1;
nodes = (
(507,-2,l),
(471,-24,ls),
(409,-62,o),
(374,-95,o),
(374,-152,cs),
(374,-210,o),
(408,-247,o),
(478,-247,cs),
(534,-247,o),
(582,-203,o),
(607,-154,c),
(569,-130,l),
(553,-159,o),
(525,-193,o),
(483,-193,cs),
(447,-193,o),
(426,-172,o),
(426,-141,cs),
(426,-112,o),
(436,-88,o),
(482,-59,cs),
(574,-2,l,{
name = hr00;
})
);
}
);
};
layerId = master01;
shapes = (
{
ref = a;
},
{
pos = (272,-20);
ref = ogonekcomb;
}
);
width = 612;
}
);
unicode = 261;
},
{
glyphname = aring;
lastChange = "2023-01-25 14:54:15 +0000";
layers = (
{
background = {
shapes = (
{
closed = 1;
nodes = (
(286,-14,o),
(360,33,o),
(403,117,c),
(403,99,ls),
(403,22,o),
(434,-14,o),
(498,-14,cs),
(524,-14,o),
(547,-10,o),
(574,-1,c),
(565,59,l),
(552,55,o),
(537,53,o),
(524,53,cs),
(497,53,o),
(482,73,o),
(482,108,cs),
(482,382,ls),
(482,521,o),
(419,586,o),
(286,586,cs),
(229,586,o),
(152,567,o),
(90,538,c),
(116,478,l),
(168,508,o),
(230,526,o),
(279,526,cs),
(367,526,o),
(403,481,o),
(403,372,cs),
(403,334,l),
(160,334,o),
(52,274,o),
(52,139,cs),
(52,45,o),
(109,-14,o),
(199,-14,cs,{
name = hr00;
})
);
},
{
closed = 1;
nodes = (
(164,47,o),
(127,84,o),
(127,144,cs),
(127,237,o),
(216,282,o),
(403,283,c),
(403,142,o),
(331,47,o),
(224,47,cs)
);
},
{
closed = 1;
nodes = (
(225,833,o),
(187,788,o),
(187,725,cs),
(187,667,o),
(230,618,o),
(297,618,cs),
(370,618,o),
(410,661,o),
(410,725,cs),
(410,783,o),
(365,833,o),
(297,833,cs,{
name = hr00;
})
);
},
{
closed = 1;
nodes = (
(329,787,o),
(350,758,o),
(350,725,cs),
(350,690,o),
(333,663,o),
(297,663,cs),
(265,663,o),
(245,693,o),
(245,725,cs),
(245,761,o),
(263,787,o),
(297,787,cs)
);
}
);
};
layerId = master01;
shapes = (
{
ref = a;
},
{
pos = (114,0);
ref = ringcomb;
}
);
width = 612;
}
);
unicode = 229;
},
{
glyphname = aringacute;
lastChange = "2023-01-25 14:54:15 +0000";
layers = (
{
background = {
shapes = (
{
closed = 1;
nodes = (
(286,-14,o),
(360,33,o),
(403,117,c),
(403,99,ls),
(403,22,o),
(434,-14,o),
(498,-14,cs),
(524,-14,o),
(547,-10,o),
(574,-1,c),
(565,59,l),
(552,55,o),
(537,53,o),
(524,53,cs),
(497,53,o),
(482,73,o),
(482,108,cs),
(482,382,ls),
(482,521,o),
(419,586,o),
(286,586,cs),
(229,586,o),
(152,567,o),
(90,538,c),
(116,478,l),
(168,508,o),
(230,526,o),
(279,526,cs),
(367,526,o),
(403,481,o),
(403,372,cs),
(403,334,l),
(160,334,o),
(52,274,o),
(52,139,cs),
(52,45,o),
(109,-14,o),
(199,-14,cs,{
name = hr00;
})
);
},
{
closed = 1;
nodes = (
(164,47,o),
(127,84,o),
(127,144,cs),
(127,237,o),
(216,282,o),
(403,283,c),
(403,142,o),
(331,47,o),
(224,47,cs)
);
},
{
closed = 1;
nodes = (
(219,833,o),
(181,788,o),
(181,725,cs),
(181,667,o),
(224,618,o),
(291,618,cs),
(364,618,o),
(404,661,o),
(404,725,cs),
(404,740,o),
(401,755,o),
(395,768,c),
(492,817,l),
(453,883,l),
(361,811,l),
(342,824,o),
(318,833,o),
(291,833,cs,{
name = hr00;
})
);
},
{
closed = 1;
nodes = (
(323,787,o),
(344,758,o),
(344,725,cs),
(344,690,o),
(327,663,o),
(291,663,cs),
(259,663,o),
(239,693,o),
(239,725,cs),
(239,761,o),
(257,787,o),
(291,787,cs)
);
}
);
};
layerId = master01;
shapes = (
{
ref = a;
},
{
pos = (114,0);
ref = ringcomb;
},
{
pos = (141,261);
ref = acutecomb;
}
);
width = 612;
}
);
unicode = 507;
},
{
glyphname = atilde;
lastChange = "2023-01-25 14:54:15 +0000";
layers = (
{
background = {
shapes = (
{
closed = 1;
nodes = (
(286,-14,o),
(360,33,o),
(403,117,c),
(403,99,ls),
(403,22,o),
(434,-14,o),
(498,-14,cs),
(524,-14,o),
(547,-10,o),
(574,-1,c),
(565,59,l),
(552,55,o),
(537,53,o),
(524,53,cs),
(497,53,o),
(482,73,o),
(482,108,cs),
(482,382,ls),
(482,521,o),
(419,586,o),
(286,586,cs),
(229,586,o),
(152,567,o),
(90,538,c),
(116,478,l),
(168,508,o),
(230,526,o),
(279,526,cs),
(367,526,o),
(403,481,o),
(403,372,cs),
(403,334,l),
(160,334,o),
(52,274,o),
(52,139,cs),
(52,45,o),
(109,-14,o),
(199,-14,cs,{
name = hr00;
})
);
},
{
closed = 1;
nodes = (
(164,47,o),
(127,84,o),
(127,144,cs),
(127,237,o),
(216,282,o),
(403,283,c),
(403,142,o),
(331,47,o),
(224,47,cs)
);
},
{
closed = 1;
nodes = (
(392,758,o),
(378,742,o),
(354,742,cs),
(323,742,o),
(264,778,o),
(219,778,cs,{
name = hr01;
}),
(180,778,o),
(151,750,o),
(133,683,c),
(180,669,l),
(188,697,o),
(203,712,o),
(227,712,cs),
(258,712,o),
(315,676,o),
(361,676,cs,{
name = hr02;
}),
(400,676,o),
(430,705,o),
(447,771,c),
(400,786,l)
);
}
);
};
layerId = master01;
shapes = (
{
ref = a;
},
{
pos = (97,0);
ref = tildecomb;
}
);
width = 612;
}
);
unicode = 227;
},
{
glyphname = ae;
lastChange = "2023-01-25 13:55:37 +0000";
layers = (
{
anchors = (
{
name = bottom;
pos = (467,0);
},
{
name = top;
pos = (467,572);
}
);
background = {
shapes = (
{
closed = 1;
nodes = (
(316,-14,o),
(394,40,o),
(429,136,c),
(468,39,o),
(548,-14,o),
(657,-14,cs),
(715,-14,o),
(780,2,o),
(848,34,c),
(822,92,l),
(763,61,o),
(711,47,o),
(659,47,cs),
(551,47,o),
(483,132,o),
(482,269,c),
(876,269,l),
(876,318,ls),
(876,483,o),
(788,586,o),
(648,586,cs),
(567,586,o),
(503,556,o),
(461,497,c),
(432,557,o),
(376,586,o),
(286,586,cs),
(229,586,o),
(153,567,o),
(90,538,c),
(116,478,l),
(169,508,o),
(231,526,o),
(281,526,cs),
(367,526,o),
(403,482,o),
(403,376,cs),
(403,325,l),
(381,325,ls),
(153,325,o),
(52,267,o),
(52,136,cs),
(52,42,o),
(111,-14,o),
(210,-14,c,{
name = hr00;
})
);
},
{
closed = 1;
nodes = (
(165,48,o),
(127,82,o),
(127,141,cs),
(127,232,o),
(206,268,o),
(403,268,c),
(403,132,o),
(337,48,o),
(230,48,c)
);
},
{
closed = 1;
nodes = (
(494,454,o),
(553,525,o),
(648,525,cs),
(739,525,o),
(797,447,o),
(797,325,c),
(484,325,l)
);
}
);
};
layerId = master01;
shapes = (
{
closed = 1;
nodes = (
(316,-14,o),
(394,40,o),
(429,136,c),
(468,39,o),
(548,-14,o),
(657,-14,cs),
(715,-14,o),
(780,2,o),
(848,34,c),
(822,92,l),
(763,61,o),
(711,47,o),
(659,47,cs),
(551,47,o),
(483,132,o),
(482,269,c),
(876,269,l),
(876,318,ls),
(876,483,o),
(788,586,o),
(648,586,cs),
(567,586,o),
(503,556,o),
(461,497,c),
(432,557,o),
(376,586,o),
(286,586,cs),
(229,586,o),
(153,567,o),
(90,538,c),
(116,478,l),
(169,508,o),
(231,526,o),
(281,526,cs),
(367,526,o),
(403,482,o),
(403,376,cs),
(403,325,l),
(381,325,ls),
(153,325,o),
(52,267,o),
(52,136,cs),
(52,42,o),
(111,-14,o),
(210,-14,c,{
name = hr00;
})
);
},
{
closed = 1;
nodes = (
(165,48,o),
(127,82,o),
(127,141,cs),
(127,232,o),
(206,268,o),
(403,268,c),
(403,132,o),
(337,48,o),
(230,48,c)
);
},
{
closed = 1;
nodes = (
(494,454,o),
(553,525,o),
(648,525,cs),
(739,525,o),
(797,447,o),
(797,325,c),
(484,325,l)
);
}
);
width = 933;
}
);
unicode = 230;
},
{
glyphname = aeacute;
lastChange = "2023-01-25 14:54:15 +0000";
layers = (
{
background = {
shapes = (
{
closed = 1;
nodes = (
(581,809,l),
(389,683,l),
(417,637,l),
(619,742,l,{
name = hr00;
})
);
},
{
closed = 1;
nodes = (
(316,-14,o),
(394,40,o),
(429,136,c),
(468,39,o),
(548,-14,o),
(657,-14,cs),
(715,-14,o),
(780,2,o),
(848,34,c),
(822,92,l),
(763,61,o),
(711,47,o),
(659,47,cs),
(551,47,o),
(483,132,o),
(482,269,c),
(876,269,l),
(876,318,ls),
(876,483,o),
(788,586,o),
(648,586,cs),
(567,586,o),
(503,556,o),
(461,497,c),
(432,557,o),
(376,586,o),
(286,586,cs),
(229,586,o),
(153,567,o),
(90,538,c),
(116,478,l),
(169,508,o),
(231,526,o),
(281,526,cs),
(367,526,o),
(403,482,o),
(403,376,cs),
(403,325,l),
(381,325,ls),
(153,325,o),
(52,267,o),
(52,136,cs),
(52,42,o),
(111,-14,o),
(210,-14,c,{
name = hr00;
})
);
},
{
closed = 1;
nodes = (
(165,48,o),
(127,82,o),
(127,141,cs),
(127,232,o),
(206,268,o),
(403,268,c),
(403,132,o),
(337,48,o),
(230,48,c)
);
},
{
closed = 1;
nodes = (
(494,454,o),
(553,525,o),
(648,525,cs),
(739,525,o),
(797,447,o),
(797,325,c),
(484,325,l)
);
}
);
};
layerId = master01;
shapes = (
{
ref = ae;
},
{
pos = (302,0);
ref = acutecomb;
}
);
width = 933;
}
);
unicode = 509;
},
{
glyphname = b;
lastChange = "2023-01-25 13:55:37 +0000";
layers = (
{
anchors = (
{
name = bottom;
pos = (313,0);
},
{
name = center;
pos = (313,286);
},
{
name = top;
pos = (313,572);
}
);
background = {
shapes = (
{
closed = 1;
nodes = (
(169,760,o),
(159,770,o),
(139,770,cs),
(28,770,l),
(28,718,l),
(90,710,l),
(90,235,ls),
(90,74,o),
(169,-14,o),
(314,-14,cs),
(461,-14,o),
(565,110,o),
(565,286,cs),
(565,465,o),
(480,586,o),
(356,586,cs),
(282,586,o),
(220,555,o),
(169,493,c),
(169,739,ls,{
name = hr00;
})
);
},
{
closed = 1;
nodes = (
(216,496,o),
(266,526,o),
(326,526,cs),
(428,526,o),
(486,439,o),
(486,286,cs),
(486,137,o),
(422,47,o),
(316,47,cs),
(221,47,o),
(169,114,o),
(169,237,cs),
(169,433,l)
);
}
);
};
layerId = master01;
shapes = (
{
closed = 1;
nodes = (
(169,760,o),
(159,770,o),
(139,770,cs),
(28,770,l),
(28,718,l),
(90,710,l),
(90,235,ls),
(90,74,o),
(169,-14,o),
(314,-14,cs),
(461,-14,o),
(565,110,o),
(565,286,cs),
(565,465,o),
(480,586,o),
(356,586,cs),
(282,586,o),
(220,555,o),
(169,493,c),
(169,739,ls,{
name = hr00;
})
);
},
{
closed = 1;
nodes = (
(216,496,o),
(266,526,o),
(326,526,cs),
(428,526,o),
(486,439,o),
(486,286,cs),
(486,137,o),
(422,47,o),
(316,47,cs),
(221,47,o),
(169,114,o),
(169,237,cs),
(169,433,l)
);
}
);
width = 626;
}
);
unicode = 98;
},
{
glyphname = c;
lastChange = "2023-01-25 13:55:37 +0000";
layers = (
{
anchors = (
{
name = bottom;
pos = (271,0);
},
{
name = top;
pos = (271,572);
}
);
background = {
shapes = (
{
closed = 1;
nodes = (
(413,83,o),
(364,47,o),
(298,47,cs),
(200,47,o),
(140,140,o),
(140,290,cs),
(140,438,o),
(203,525,o),
(310,525,cs),
(367,525,o),
(409,513,o),
(465,482,c),
(491,540,l),
(430,571,o),
(371,586,o),
(310,586,cs),
(157,586,o),
(62,472,o),
(62,290,cs),
(62,106,o),
(155,-14,o),
(298,-14,cs),
(397,-14,o),
(467,35,o),
(503,130,c),
(439,151,l,{
name = hr00;
})
);
}
);
};
layerId = master01;
shapes = (
{
closed = 1;
nodes = (
(413,83,o),
(364,47,o),
(298,47,cs),
(200,47,o),
(140,140,o),
(140,290,cs),
(140,438,o),
(203,525,o),
(310,525,cs),
(367,525,o),
(409,513,o),
(465,482,c),
(491,540,l),
(430,571,o),
(371,586,o),
(310,586,cs),
(157,586,o),
(62,472,o),
(62,290,cs),
(62,106,o),
(155,-14,o),
(298,-14,cs),
(397,-14,o),
(467,35,o),
(503,130,c),
(439,151,l,{
name = hr00;
})
);
}
);
width = 541;
}
);
unicode = 99;
},
{
glyphname = cacute;
lastChange = "2023-01-25 14:54:15 +0000";
layers = (
{
background = {
shapes = (
{
closed = 1;
nodes = (
(413,83,o),
(364,47,o),
(298,47,cs),
(200,47,o),
(140,140,o),
(140,290,cs),
(140,438,o),
(203,525,o),
(310,525,cs),
(367,525,o),
(409,513,o),
(465,482,c),
(491,540,l),
(430,571,o),
(371,586,o),
(310,586,cs),
(157,586,o),
(62,472,o),
(62,290,cs),
(62,106,o),
(155,-14,o),
(298,-14,cs),
(397,-14,o),
(467,35,o),
(503,130,c),
(439,151,l,{
name = hr00;
})
);
},
{
closed = 1;
nodes = (
(347,809,l),
(155,683,l),
(183,637,l),
(385,742,l,{
name = hr00;
})
);
}
);
};
layerId = master01;
shapes = (
{
ref = c;
},
{
pos = (106,0);
ref = acutecomb;
}
);
width = 541;
}
);
unicode = 263;
},
{
glyphname = ccaron;
lastChange = "2023-01-25 14:54:15 +0000";
layers = (
{
background = {
shapes = (
{
closed = 1;
nodes = (
(413,83,o),
(364,47,o),
(298,47,cs),
(200,47,o),
(140,140,o),
(140,290,cs),
(140,438,o),
(203,525,o),
(310,525,cs),
(367,525,o),
(409,513,o),
(465,482,c),
(491,540,l),
(430,571,o),
(371,586,o),
(310,586,cs),
(157,586,o),
(62,472,o),
(62,290,cs),
(62,106,o),
(155,-14,o),
(298,-14,cs),
(397,-14,o),
(467,35,o),
(503,130,c),
(439,151,l,{
name = hr00;
})
);
},
{
closed = 1;
nodes = (
(331,644,l),
(289,644,l),
(167,787,l),
(199,820,l),
(310,722,l),
(422,820,l),
(454,787,l,{
name = hr00;
})
);
}
);
};
layerId = master01;
shapes = (
{
ref = c;
},
{
pos = (70,0);
ref = caroncomb;
}
);
width = 541;
}
);
unicode = 269;
},
{
glyphname = ccedilla;
lastChange = "2023-01-25 14:54:15 +0000";
layers = (
{
background = {
shapes = (
{
closed = 1;
nodes = (
(413,83,o),
(364,47,o),
(298,47,cs),
(200,47,o),
(140,140,o),
(140,290,cs),
(140,438,o),
(203,525,o),
(310,525,cs),
(367,525,o),
(409,513,o),
(465,482,c),
(491,540,l),
(430,571,o),
(371,586,o),
(310,586,cs),
(157,586,o),
(62,472,o),
(62,290,cs),
(62,106,o),
(155,-14,o),
(298,-14,cs),
(397,-14,o),
(467,35,o),
(503,130,c),
(439,151,l,{
name = hr00;
})
);
},
{
closed = 1;
nodes = (
(365,-241,o),
(404,-204,o),
(404,-144,cs),
(404,-96,o),
(370,-70,o),
(290,-57,c),
(302,0,l),
(271,0,l),
(252,-82,l),
(301,-92,ls),
(337,-100,o),
(354,-116,o),
(354,-143,cs),
(354,-174,o),
(334,-194,o),
(302,-194,cs),
(276,-194,o),
(258,-175,o),
(258,-146,c),
(206,-146,l),
(206,-205,o),
(242,-241,o),
(301,-241,c,{
name = hr00;
})
);
}
);
};
layerId = master01;
shapes = (
{
ref = c;
},
{
pos = (139,0);
ref = cedillacomb;
}
);
width = 541;
}
);
unicode = 231;
},
{
glyphname = ccircumflex;
lastChange = "2023-01-25 14:54:15 +0000";
layers = (
{
background = {
shapes = (
{
closed = 1;
nodes = (
(413,83,o),
(364,47,o),
(298,47,cs),
(200,47,o),
(140,140,o),
(140,290,cs),
(140,438,o),
(203,525,o),
(310,525,cs),
(367,525,o),
(409,513,o),
(465,482,c),
(491,540,l),
(430,571,o),
(371,586,o),
(310,586,cs),
(157,586,o),
(62,472,o),
(62,290,cs),
(62,106,o),
(155,-14,o),
(298,-14,cs),
(397,-14,o),
(467,35,o),
(503,130,c),
(439,151,l,{
name = hr00;
})
);
},
{
closed = 1;
nodes = (
(328,810,l),
(286,810,l),
(164,667,l),
(196,634,l),
(307,732,l),
(419,634,l),
(451,667,l,{
name = hr00;
})
);
}
);
};
layerId = master01;
shapes = (
{
ref = c;
},
{
pos = (70,0);
ref = circumflexcomb;
}
);
width = 541;
}
);
unicode = 265;
},
{
glyphname = cdotaccent;
lastChange = "2023-01-25 14:54:15 +0000";
layers = (
{
background = {
shapes = (
{
closed = 1;
nodes = (
(413,83,o),
(364,47,o),
(298,47,cs),
(200,47,o),
(140,140,o),
(140,290,cs),
(140,438,o),
(203,525,o),
(310,525,cs),
(367,525,o),
(409,513,o),
(465,482,c),
(491,540,l),
(430,571,o),
(371,586,o),
(310,586,cs),
(157,586,o),
(62,472,o),
(62,290,cs),
(62,106,o),
(155,-14,o),
(298,-14,cs),
(397,-14,o),
(467,35,o),
(503,130,c),
(439,151,l,{
name = hr00;
})
);
},
{
closed = 1;
nodes = (
(260,688,o),
(283,665,o),
(311,665,cs),
(338,665,o),
(362,688,o),
(362,716,cs),
(362,743,o),
(338,767,o),
(311,767,cs),
(283,767,o),
(260,743,o),
(260,716,cs,{
name = hr00;
})
);
}
);
};
layerId = master01;
shapes = (
{
ref = c;
},
{
pos = (125,0);
ref = dotaccentcomb;
}
);
width = 541;
}
);
unicode = 267;
},
{
glyphname = d;
lastChange = "2023-01-25 13:55:37 +0000";
layers = (
{
anchors = (
{
name = bottom;
pos = (333,0);
},
{
name = center;
pos = (333,286);
},
{
name = top;
pos = (333,987);
},
{
name = topright;
pos = (645,987);
}
);
background = {
shapes = (
{
closed = 1;
nodes = (
(402,573,o),
(348,586,o),
(298,586,cs),
(153,586,o),
(71,478,o),
(71,286,cs),
(71,104,o),
(155,-14,o),
(285,-14,cs),
(352,-14,o),
(406,15,o),
(450,76,c),
(455,15,o),
(486,-14,o),
(545,-14,cs),
(571,-14,o),
(596,-10,o),
(622,-1,c),
(613,59,l),
(597,55,o),
(583,53,o),
(571,53,cs),
(544,53,o),
(528,73,o),
(528,108,cs),
(528,739,ls),
(528,760,o),
(518,770,o),
(498,770,cs),
(389,770,l),
(389,718,l),
(449,710,l),
(449,549,l,{
name = hr00;
})
);
},
{
closed = 1;
nodes = (
(408,76,o),
(360,46,o),
(302,46,cs),
(205,46,o),
(150,132,o),
(150,286,cs),
(150,444,o),
(205,525,o),
(312,525,cs),
(363,525,o),
(406,514,o),
(449,491,c),
(449,137,l)
);
}
);
};
layerId = master01;
shapes = (
{
closed = 1;
nodes = (
(402,573,o),
(348,586,o),
(298,586,cs),
(153,586,o),
(71,478,o),
(71,286,cs),
(71,104,o),
(155,-14,o),
(285,-14,cs),
(352,-14,o),
(406,15,o),
(450,76,c),
(455,15,o),
(486,-14,o),
(545,-14,cs),
(571,-14,o),
(596,-10,o),
(622,-1,c),
(613,59,l),
(597,55,o),
(583,53,o),
(571,53,cs),
(544,53,o),
(528,73,o),
(528,108,cs),
(528,739,ls),
(528,760,o),
(518,770,o),
(498,770,cs),
(389,770,l),
(389,718,l),
(449,710,l),
(449,549,l,{
name = hr00;
})
);
},
{
closed = 1;
nodes = (
(408,76,o),
(360,46,o),
(302,46,cs),
(205,46,o),
(150,132,o),
(150,286,cs),
(150,444,o),
(205,525,o),
(312,525,cs),
(363,525,o),
(406,514,o),
(449,491,c),
(449,137,l)
);
}
);
width = 665;
}
);
unicode = 100;
},
{
glyphname = eth;
lastChange = "2023-01-25 13:55:05 +0000";
layers = (
{
background = {
shapes = (
{
closed = 1;
nodes = (
(473,-14,o),
(560,91,o),
(560,286,cs),
(560,488,o),
(475,684,o),
(323,834,c),
(280,789,l),
(361,707,o),
(417,616,o),
(449,513,c),
(411,551,o),
(363,571,o),
(310,571,cs),
(149,571,o),
(62,471,o),
(62,286,cs),
(62,106,o),
(162,-14,o),
(310,-14,c,{
name = hr00;
})
);
},
{
closed = 1;
nodes = (
(209,47,o),
(140,144,o),
(140,286,cs),
(140,431,o),
(200,510,o),
(310,510,cs),
(413,510,o),
(481,420,o),
(481,286,cs),
(481,130,o),
(421,47,o),
(310,47,c)
);
},
{
closed = 1;
nodes = (
(510,801,l),
(258,700,l),
(258,644,l),
(510,745,l,{
name = hr00;
})
);
}
);
};
layerId = master01;
shapes = (
{
closed = 1;
nodes = (
(473,-14,o),
(560,91,o),
(560,286,cs),
(560,488,o),
(475,684,o),
(323,834,c),
(280,789,l),
(361,707,o),
(417,616,o),
(449,513,c),
(411,551,o),
(363,571,o),
(310,571,cs),
(149,571,o),
(62,471,o),
(62,286,cs),
(62,106,o),
(162,-14,o),
(310,-14,c,{
name = hr00;
})
);
},
{
closed = 1;
nodes = (
(209,47,o),
(140,144,o),
(140,286,cs),
(140,431,o),
(200,510,o),
(310,510,cs),
(413,510,o),
(481,420,o),
(481,286,cs),
(481,130,o),
(421,47,o),
(310,47,c)
);
},
{
pos = (220,343);
ref = eslash;
}
);
width = 631;
}
);
unicode = 240;
},
{
glyphname = dcaron;
lastChange = "2023-01-25 14:54:15 +0000";
layers = (
{
background = {
shapes = (
{
closed = 1;
nodes = (
(402,573,o),
(348,586,o),
(298,586,cs),
(153,586,o),
(71,478,o),
(71,286,cs),
(71,104,o),
(155,-14,o),
(285,-14,cs),
(352,-14,o),
(406,15,o),
(450,76,c),
(455,15,o),
(486,-14,o),
(545,-14,cs),
(571,-14,o),
(596,-10,o),
(622,-1,c),
(613,59,l),
(597,55,o),
(583,53,o),
(571,53,cs),
(544,53,o),
(528,73,o),
(528,108,cs),
(528,739,ls),
(528,760,o),
(518,770,o),
(498,770,cs),
(389,770,l),
(389,718,l),
(449,710,l),
(449,549,l,{
name = hr00;
})
);
},
{
closed = 1;
nodes = (
(408,76,o),
(360,46,o),
(302,46,cs),
(205,46,o),
(150,132,o),
(150,286,cs),
(150,444,o),
(205,525,o),
(312,525,cs),
(363,525,o),
(406,514,o),
(449,491,c),
(449,137,l)
);
},
{
closed = 1;
nodes = (
(639,592,o),
(700,656,o),
(700,742,cs),
(700,768,o),
(683,789,o),
(654,789,cs),
(625,789,o),
(607,768,o),
(607,742,cs),
(607,714,o),
(620,696,o),
(620,669,cs),
(620,635,o),
(605,612,o),
(580,589,c),
(602,563,l,{
name = hr00;
})
);
}
);
};
layerId = master01;
shapes = (
{
ref = d;
},
{
pos = (132,415);
ref = caroncomb;
}
);
width = 665;
}
);
unicode = 271;
},
{
glyphname = dcroat;
lastChange = "2023-01-25 13:55:05 +0000";
layers = (
{
background = {
shapes = (
{
closed = 1;
nodes = (
(352,-14,o),
(406,15,o),
(450,76,c),
(455,15,o),
(486,-14,o),
(545,-14,cs),
(571,-14,o),
(596,-10,o),
(622,-1,c),
(613,59,l),
(597,55,o),
(583,53,o),
(571,53,cs),
(544,53,o),
(528,73,o),
(528,108,cs),
(528,804,l),
(449,790,l),
(449,549,l),
(402,573,o),
(348,586,o),
(298,586,cs),
(153,586,o),
(71,478,o),
(71,286,cs),
(71,104,o),
(155,-14,o),
(285,-14,c,{
name = hr00;
})
);
},
{
closed = 1;
nodes = (
(408,76,o),
(360,46,o),
(302,46,cs),
(205,46,o),
(150,132,o),
(150,286,cs),
(150,444,o),
(205,525,o),
(312,525,cs),
(363,525,o),
(406,514,o),
(449,491,c),
(449,137,l)
);
},
{
closed = 1;
nodes = (
(615,730,l),
(301,730,l),
(301,668,l),
(615,668,l,{
name = hr00;
})
);
}
);
};
layerId = master01;
shapes = (
{
alignment = -1;
ref = d.croat;
},
{
alignment = -1;
pos = (301,357);
ref = barra;
scale = (0.8,1);
}
);
width = 665;
}
);
unicode = 273;
},
{
glyphname = e;
lastChange = "2023-01-25 13:55:37 +0000";
layers = (
{
anchors = (
{
name = bottom;
pos = (296,0);
},
{
name = ogonek;
pos = (532,10);
},
{
name = top;
pos = (296,572);
}
);
background = {
shapes = (
{
closed = 1;
nodes = (
(534,318,ls),
(534,483,o),
(446,586,o),
(306,586,cs),
(153,586,o),
(62,471,o),
(62,277,cs),
(62,102,o),
(162,-14,o),
(315,-14,cs),
(374,-14,o),
(440,3,o),
(506,34,c),
(481,92,l),
(420,61,o),
(369,47,o),
(318,47,cs),
(209,47,o),
(141,132,o),
(140,269,c),
(534,269,l,{
name = hr00;
})
);
},
{
closed = 1;
nodes = (
(397,525,o),
(455,447,o),
(455,325,c),
(142,325,l),
(152,454,o),
(211,525,o),
(306,525,cs)
);
}
);
};
layerId = master01;
shapes = (
{
closed = 1;
nodes = (
(534,318,ls),
(534,483,o),
(446,586,o),
(306,586,cs),
(153,586,o),
(62,471,o),
(62,277,cs),
(62,102,o),
(162,-14,o),
(315,-14,cs),
(374,-14,o),
(440,3,o),
(506,34,c),
(481,92,l),
(420,61,o),
(369,47,o),
(318,47,cs),
(209,47,o),
(141,132,o),
(140,269,c),
(534,269,l,{
name = hr00;
})
);
},
{
closed = 1;
nodes = (
(397,525,o),
(455,447,o),
(455,325,c),
(142,325,l),
(152,454,o),
(211,525,o),
(306,525,cs)
);
}
);
width = 591;
}
);
unicode = 101;
},
{
glyphname = eacute;
lastChange = "2023-01-25 14:54:15 +0000";
layers = (
{
background = {
shapes = (
{
closed = 1;
nodes = (
(534,318,ls),
(534,483,o),
(446,586,o),
(306,586,cs),
(153,586,o),
(62,471,o),
(62,277,cs),
(62,102,o),
(162,-14,o),
(315,-14,cs),
(374,-14,o),
(440,3,o),
(506,34,c),
(481,92,l),
(420,61,o),
(369,47,o),
(318,47,cs),
(209,47,o),
(141,132,o),
(140,269,c),
(534,269,l,{
name = hr00;
})
);
},
{
closed = 1;
nodes = (
(397,525,o),
(455,447,o),
(455,325,c),
(142,325,l),
(152,454,o),
(211,525,o),
(306,525,cs)
);
},
{
closed = 1;
nodes = (
(374,809,l),
(182,683,l),
(210,637,l),
(412,742,l,{
name = hr00;
})
);
}
);
};
layerId = master01;
shapes = (
{
ref = e;
},
{
pos = (131,0);
ref = acutecomb;
}
);
width = 591;
}
);
unicode = 233;
},
{
glyphname = ebreve;
lastChange = "2023-01-25 14:54:15 +0000";
layers = (
{
background = {
shapes = (
{
closed = 1;
nodes = (
(534,318,ls),
(534,483,o),
(446,586,o),
(306,586,cs),
(153,586,o),
(62,471,o),
(62,277,cs),
(62,102,o),
(162,-14,o),
(315,-14,cs),
(374,-14,o),
(440,3,o),
(506,34,c),
(481,92,l),
(420,61,o),
(369,47,o),
(318,47,cs),
(209,47,o),
(141,132,o),
(140,269,c),
(534,269,l,{
name = hr00;
})
);
},
{
closed = 1;
nodes = (
(397,525,o),
(455,447,o),
(455,325,c),
(142,325,l),
(152,454,o),
(211,525,o),
(306,525,cs)
);
},
{
closed = 1;
nodes = (
(374,732,o),
(349,706,o),
(304,706,cs),
(262,706,o),
(234,736,o),
(234,780,c),
(178,780,l),
(178,698,o),
(228,643,o),
(304,643,cs),
(387,643,o),
(431,691,o),
(431,780,c),
(374,780,l,{
name = hr00;
})
);
}
);
};
layerId = master01;
shapes = (
{
ref = e;
},
{
pos = (83,0);
ref = brevecomb;
}
);
width = 591;
}
);
unicode = 277;
},
{
glyphname = ecaron;
lastChange = "2023-01-25 14:54:15 +0000";
layers = (
{
background = {
shapes = (
{
closed = 1;
nodes = (
(534,318,ls),
(534,483,o),
(446,586,o),
(306,586,cs),
(153,586,o),
(62,471,o),
(62,277,cs),
(62,102,o),
(162,-14,o),
(315,-14,cs),
(374,-14,o),
(440,3,o),
(506,34,c),
(481,92,l),
(420,61,o),
(369,47,o),
(318,47,cs),
(209,47,o),
(141,132,o),
(140,269,c),
(534,269,l,{
name = hr00;
})
);
},
{
closed = 1;
nodes = (
(397,525,o),
(455,447,o),
(455,325,c),
(142,325,l),
(152,454,o),
(211,525,o),
(306,525,cs)
);
},
{
closed = 1;
nodes = (
(325,644,l),
(283,644,l),
(161,787,l),
(193,820,l),
(304,722,l),
(416,820,l),
(448,787,l,{
name = hr00;
})
);
}
);
};
layerId = master01;
shapes = (
{
ref = e;
},
{
pos = (95,0);
ref = caroncomb;
}
);
width = 591;
}
);
unicode = 283;
},
{
glyphname = ecircumflex;
lastChange = "2023-01-25 14:54:15 +0000";
layers = (
{
background = {
shapes = (
{
closed = 1;
nodes = (
(534,318,ls),
(534,483,o),
(446,586,o),
(306,586,cs),
(153,586,o),
(62,471,o),
(62,277,cs),
(62,102,o),
(162,-14,o),
(315,-14,cs),
(374,-14,o),
(440,3,o),
(506,34,c),
(481,92,l),
(420,61,o),
(369,47,o),
(318,47,cs),
(209,47,o),
(141,132,o),
(140,269,c),
(534,269,l,{
name = hr00;
})
);
},
{
closed = 1;
nodes = (
(397,525,o),
(455,447,o),
(455,325,c),
(142,325,l),
(152,454,o),
(211,525,o),
(306,525,cs)
);
},
{
closed = 1;
nodes = (
(327,810,l),
(285,810,l),
(163,667,l),
(195,634,l),
(306,732,l),
(418,634,l),
(450,667,l,{
name = hr00;
})
);
}
);
};
layerId = master01;
shapes = (
{
ref = e;
},
{
pos = (95,0);
ref = circumflexcomb;
}
);
width = 591;
}
);
unicode = 234;
},
{
glyphname = edieresis;
lastChange = "2023-01-25 14:54:15 +0000";
layers = (
{
background = {
shapes = (
{
closed = 1;
nodes = (
(534,318,ls),
(534,483,o),
(446,586,o),
(306,586,cs),
(153,586,o),
(62,471,o),
(62,277,cs),
(62,102,o),
(162,-14,o),
(315,-14,cs),
(374,-14,o),
(440,3,o),
(506,34,c),
(481,92,l),
(420,61,o),
(369,47,o),
(318,47,cs),
(209,47,o),
(141,132,o),
(140,269,c),
(534,269,l,{
name = hr00;
})
);
},
{
closed = 1;
nodes = (
(397,525,o),
(455,447,o),
(455,325,c),
(142,325,l),
(152,454,o),
(211,525,o),
(306,525,cs)
);
},
{
closed = 1;
nodes = (
(142,689,o),
(165,666,o),
(192,666,cs),
(219,666,o),
(242,689,o),
(242,716,cs),
(242,743,o),
(219,766,o),
(192,766,cs),
(165,766,o),
(142,743,o),
(142,716,cs,{
name = hr00;
})
);
},
{
closed = 1;
nodes = (
(347,689,o),
(370,666,o),
(397,666,cs),
(424,666,o),
(447,689,o),
(447,716,cs),
(447,743,o),
(424,766,o),
(397,766,cs),
(370,766,o),
(347,743,o),
(347,716,cs)
);
}
);
};
layerId = master01;
shapes = (
{
ref = e;
},
{
pos = (55,0);
ref = dieresiscomb;
}
);
width = 591;
}
);
unicode = 235;
},
{
glyphname = edotaccent;
lastChange = "2023-01-25 14:54:15 +0000";
layers = (
{
background = {
shapes = (
{
closed = 1;
nodes = (
(534,318,ls),
(534,483,o),
(446,586,o),
(306,586,cs),
(153,586,o),
(62,471,o),
(62,277,cs),
(62,102,o),
(162,-14,o),
(315,-14,cs),
(374,-14,o),
(440,3,o),
(506,34,c),
(481,92,l),
(420,61,o),
(369,47,o),
(318,47,cs),
(209,47,o),
(141,132,o),
(140,269,c),
(534,269,l,{
name = hr00;
})
);
},
{
closed = 1;
nodes = (
(397,525,o),
(455,447,o),
(455,325,c),
(142,325,l),
(152,454,o),
(211,525,o),
(306,525,cs)
);
},
{
closed = 1;
nodes = (
(262,688,o),
(285,665,o),
(313,665,cs),
(340,665,o),
(364,688,o),
(364,716,cs),
(364,743,o),
(340,767,o),
(313,767,cs),
(285,767,o),
(262,743,o),
(262,716,cs,{
name = hr00;
})
);
}
);
};
layerId = master01;
shapes = (
{
ref = e;
},
{
pos = (150,0);
ref = dotaccentcomb;
}
);
width = 591;
}
);
unicode = 279;
},
{
glyphname = egrave;
lastChange = "2023-01-25 14:54:15 +0000";
layers = (
{
background = {
shapes = (
{
closed = 1;
nodes = (
(534,318,ls),
(534,483,o),
(446,586,o),
(306,586,cs),
(153,586,o),
(62,471,o),
(62,277,cs),
(62,102,o),
(162,-14,o),
(315,-14,cs),
(374,-14,o),
(440,3,o),
(506,34,c),
(481,92,l),
(420,61,o),
(369,47,o),
(318,47,cs),
(209,47,o),
(141,132,o),
(140,269,c),
(534,269,l,{
name = hr00;
})
);
},
{
closed = 1;
nodes = (
(397,525,o),
(455,447,o),
(455,325,c),
(142,325,l),
(152,454,o),
(211,525,o),
(306,525,cs)
);
},
{
closed = 1;
nodes = (
(220,809,l),
(411,683,l),
(384,637,l),
(181,742,l,{
name = hr00;
})
);
}
);
};
layerId = master01;
shapes = (
{
ref = e;
},
{
pos = (143,0);
ref = gravecomb;
}
);
width = 591;
}
);
unicode = 232;
},
{
glyphname = emacron;
lastChange = "2023-01-25 14:54:15 +0000";
layers = (
{
background = {
shapes = (
{
closed = 1;
nodes = (
(534,318,ls),
(534,483,o),
(446,586,o),
(306,586,cs),
(153,586,o),
(62,471,o),
(62,277,cs),
(62,102,o),
(162,-14,o),
(315,-14,cs),
(374,-14,o),
(440,3,o),
(506,34,c),
(481,92,l),
(420,61,o),
(369,47,o),
(318,47,cs),
(209,47,o),
(141,132,o),
(140,269,c),
(534,269,l,{
name = hr00;
})
);
},
{
closed = 1;
nodes = (
(397,525,o),
(455,447,o),
(455,325,c),
(142,325,l),
(152,454,o),
(211,525,o),
(306,525,cs)
);
},
{
closed = 1;
nodes = (
(432,760,l),
(178,760,l),
(178,693,l),
(432,693,l,{
name = hr00;
})
);
}
);
};
layerId = master01;
shapes = (
{
ref = e;
},
{
pos = (119,0);
ref = macroncomb;
}
);
width = 591;
}
);
unicode = 275;
},
{
glyphname = eogonek;
lastChange = "2023-01-25 14:54:15 +0000";
layers = (
{
background = {
shapes = (
{
closed = 1;
nodes = (
(534,318,ls),
(534,483,o),
(446,586,o),
(306,586,cs),
(153,586,o),
(62,471,o),
(62,277,cs),
(62,102,o),
(162,-14,o),
(315,-14,cs),
(374,-14,o),
(440,3,o),
(506,34,c),
(481,92,l),
(420,61,o),
(369,47,o),
(318,47,cs),
(209,47,o),
(141,132,o),
(140,269,c),
(534,269,l,{
name = hr00;
})
);
},
{
closed = 1;
nodes = (
(397,525,o),
(455,447,o),
(455,325,c),
(142,325,l),
(152,454,o),
(211,525,o),
(306,525,cs)
);
},
{
closed = 1;
nodes = (
(438,34,l),
(402,12,ls),
(340,-26,o),
(305,-59,o),
(305,-116,cs),
(305,-174,o),
(339,-211,o),
(409,-211,cs),
(465,-211,o),
(513,-167,o),
(538,-118,c),
(500,-94,l),
(484,-123,o),
(456,-157,o),
(414,-157,cs),
(378,-157,o),
(357,-136,o),
(357,-105,cs),
(357,-76,o),
(367,-52,o),
(413,-23,cs),
(505,34,l,{
name = hr00;
})
);
}
);
};
layerId = master01;
shapes = (
{
ref = e;
},
{
pos = (253,-20);
ref = ogonekcomb;
}
);
width = 591;
}
);
unicode = 281;
},
{
glyphname = f;
lastChange = "2023-01-25 13:55:37 +0000";
layers = (
{
anchors = (
{
name = bottom;
pos = (179,0);
},
{
name = top;
pos = (179,987);
}
);
background = {
shapes = (
{
closed = 1;
nodes = (
(342,572,l),
(214,572,l),
(220,675,o),
(262,724,o),
(345,724,cs),
(355,724,o),
(366,723,o),
(377,721,c),
(385,782,l),
(371,784,o),
(357,785,o),
(342,785,cs),
(209,785,o),
(143,717,o),
(136,572,c),
(61,572,l),
(61,517,l),
(136,517,l),
(136,59,l),
(61,52,l),
(61,0,l),
(322,0,l),
(322,52,l),
(214,59,l),
(214,517,l),
(342,517,l,{
name = hr00;
})
);
}
);
};
layerId = master01;
shapes = (
{
closed = 1;
nodes = (
(342,572,l),
(214,572,l),
(220,675,o),
(262,724,o),
(345,724,cs),
(355,724,o),
(366,723,o),
(377,721,c),
(385,782,l),
(371,784,o),
(357,785,o),
(342,785,cs),
(209,785,o),
(143,717,o),
(136,572,c),
(61,572,l),
(61,517,l),
(136,517,l),
(136,59,l),
(61,52,l),
(61,0,l),
(322,0,l),
(322,52,l),
(214,59,l),
(214,517,l),
(342,517,l,{
name = hr00;
})
);
}
);
width = 358;
}
);
unicode = 102;
},
{
glyphname = g;
lastChange = "2023-01-25 13:55:37 +0000";
layers = (
{
anchors = (
{
name = bottom;
pos = (289,-243);
},
{
name = top;
pos = (289,572);
}
);
background = {
shapes = (
{
closed = 1;
nodes = (
(163,586,o),
(89,514,o),
(89,381,cs),
(89,319,o),
(109,268,o),
(147,231,c),
(99,185,ls),
(63,149,o),
(45,117,o),
(45,87,cs,{
name = hr01;
}),
(45,52,o),
(63,27,o),
(96,15,c),
(67,-9,o),
(45,-55,o),
(45,-93,cs),
(45,-188,o),
(134,-241,o),
(294,-241,cs),
(456,-241,o),
(546,-182,o),
(546,-75,cs),
(546,9,o),
(478,65,o),
(377,65,cs),
(159,65,ls),
(132,65,o),
(117,77,o),
(117,98,cs),
(117,114,o),
(125,130,o),
(140,145,cs),
(193,199,l),
(224,184,o),
(259,176,o),
(298,176,cs),
(434,176,o),
(507,248,o),
(507,381,cs,{
name = hr02;
}),
(507,433,o),
(491,481,o),
(461,517,c),
(539,517,l),
(539,572,l),
(381,572,l),
(355,581,o),
(327,586,o),
(298,586,cs)
);
},
{
closed = 1;
nodes = (
(380,529,o),
(433,471,o),
(433,381,cs),
(433,283,o),
(385,230,o),
(298,230,cs),
(217,230,o),
(163,290,o),
(163,381,cs),
(163,477,o),
(211,529,o),
(298,529,cs)
);
},
{
closed = 1;
nodes = (
(436,5,o),
(473,-24,o),
(473,-74,cs,{
name = hr04;
}),
(473,-147,o),
(412,-184,o),
(295,-184,cs),
(187,-184,o),
(119,-146,o),
(119,-85,cs),
(119,-53,o),
(130,-26,o),
(155,5,c),
(372,5,ls)
);
}
);
};
layerId = master01;
shapes = (
{
closed = 1;
nodes = (
(163,586,o),
(89,514,o),
(89,381,cs),
(89,319,o),
(109,268,o),
(147,231,c),
(99,185,ls),
(63,149,o),
(45,117,o),
(45,87,cs,{
name = hr01;
}),
(45,52,o),
(63,27,o),
(96,15,c),
(67,-9,o),
(45,-55,o),
(45,-93,cs),
(45,-188,o),
(134,-241,o),
(294,-241,cs),
(456,-241,o),
(546,-182,o),
(546,-75,cs),
(546,9,o),
(478,65,o),
(377,65,cs),
(159,65,ls),
(132,65,o),
(117,77,o),
(117,98,cs),
(117,114,o),
(125,130,o),
(140,145,cs),
(193,199,l),
(224,184,o),
(259,176,o),
(298,176,cs),
(434,176,o),
(507,248,o),
(507,381,cs,{
name = hr02;
}),
(507,433,o),
(491,481,o),
(461,517,c),
(539,517,l),
(539,572,l),
(381,572,l),
(355,581,o),
(327,586,o),
(298,586,cs)
);
},
{
closed = 1;
nodes = (
(380,529,o),
(433,471,o),
(433,381,cs),
(433,283,o),
(385,230,o),
(298,230,cs),
(217,230,o),
(163,290,o),
(163,381,cs),
(163,477,o),
(211,529,o),
(298,529,cs)
);
},
{
closed = 1;
nodes = (
(436,5,o),
(473,-24,o),
(473,-74,cs,{
name = hr04;
}),
(473,-147,o),
(412,-184,o),
(295,-184,cs),
(187,-184,o),
(119,-146,o),
(119,-85,cs),
(119,-53,o),
(130,-26,o),
(155,5,c),
(372,5,ls)
);
}
);
width = 577;
}
);
unicode = 103;
},
{
glyphname = gbreve;
lastChange = "2023-01-25 14:54:15 +0000";
layers = (
{
background = {
shapes = (
{
closed = 1;
nodes = (
(163,586,o),
(89,514,o),
(89,381,cs),
(89,319,o),
(109,268,o),
(147,231,c),
(99,185,ls),
(63,149,o),
(45,117,o),
(45,87,cs,{
name = hr01;
}),
(45,52,o),
(63,27,o),
(96,15,c),
(67,-9,o),
(45,-55,o),
(45,-93,cs),
(45,-188,o),
(134,-241,o),
(294,-241,cs),
(456,-241,o),
(546,-182,o),
(546,-75,cs),
(546,9,o),
(478,65,o),
(377,65,cs),
(159,65,ls),
(132,65,o),
(117,77,o),
(117,98,cs),
(117,114,o),
(125,130,o),
(140,145,cs),
(193,199,l),
(224,184,o),
(259,176,o),
(298,176,cs),
(434,176,o),
(507,248,o),
(507,381,cs,{
name = hr02;
}),
(507,433,o),
(491,481,o),
(461,517,c),
(539,517,l),
(539,572,l),
(381,572,l),
(355,581,o),
(327,586,o),
(298,586,cs)
);
},
{
closed = 1;
nodes = (
(380,529,o),
(433,471,o),
(433,381,cs),
(433,283,o),
(385,230,o),
(298,230,cs),
(217,230,o),
(163,290,o),
(163,381,cs),
(163,477,o),
(211,529,o),
(298,529,cs)
);
},
{
closed = 1;
nodes = (
(436,5,o),
(473,-24,o),
(473,-74,cs,{
name = hr04;
}),
(473,-147,o),
(412,-184,o),
(295,-184,cs),
(187,-184,o),
(119,-146,o),
(119,-85,cs),
(119,-53,o),
(130,-26,o),
(155,5,c),
(372,5,ls)
);
},
{
closed = 1;
nodes = (
(367,732,o),
(342,706,o),
(297,706,cs),
(255,706,o),
(227,736,o),
(227,780,c),
(171,780,l),
(171,698,o),
(221,643,o),
(297,643,cs),
(380,643,o),
(424,691,o),
(424,780,c),
(367,780,l,{
name = hr00;
})
);
}
);
};
layerId = master01;
shapes = (
{
ref = g;
},
{
pos = (76,0);
ref = brevecomb;
}
);
width = 577;
}
);
unicode = 287;
},
{
glyphname = gcircumflex;
lastChange = "2023-01-25 14:54:15 +0000";
layers = (
{
background = {
shapes = (
{
closed = 1;
nodes = (
(163,586,o),
(89,514,o),
(89,381,cs),
(89,319,o),
(109,268,o),
(147,231,c),
(99,185,ls),
(63,149,o),
(45,117,o),
(45,87,cs,{
name = hr01;
}),
(45,52,o),
(63,27,o),
(96,15,c),
(67,-9,o),
(45,-55,o),
(45,-93,cs),
(45,-188,o),
(134,-241,o),
(294,-241,cs),
(456,-241,o),
(546,-182,o),
(546,-75,cs),
(546,9,o),
(478,65,o),
(377,65,cs),
(159,65,ls),
(132,65,o),
(117,77,o),
(117,98,cs),
(117,114,o),
(125,130,o),
(140,145,cs),
(193,199,l),
(224,184,o),
(259,176,o),
(298,176,cs),
(434,176,o),
(507,248,o),
(507,381,cs,{
name = hr02;
}),
(507,433,o),
(491,481,o),
(461,517,c),
(539,517,l),
(539,572,l),
(381,572,l),
(355,581,o),
(327,586,o),
(298,586,cs)
);
},
{
closed = 1;
nodes = (
(380,529,o),
(433,471,o),
(433,381,cs),
(433,283,o),
(385,230,o),
(298,230,cs),
(217,230,o),
(163,290,o),
(163,381,cs),
(163,477,o),
(211,529,o),
(298,529,cs)
);
},
{
closed = 1;
nodes = (
(436,5,o),
(473,-24,o),
(473,-74,cs,{
name = hr04;
}),
(473,-147,o),
(412,-184,o),
(295,-184,cs),
(187,-184,o),
(119,-146,o),
(119,-85,cs),
(119,-53,o),
(130,-26,o),
(155,5,c),
(372,5,ls)
);
},
{
closed = 1;
nodes = (
(318,810,l),
(276,810,l),
(154,667,l),
(186,634,l),
(297,732,l),
(409,634,l),
(441,667,l,{
name = hr00;
})
);
}
);
};
layerId = master01;
shapes = (
{
ref = g;
},
{
pos = (88,0);
ref = circumflexcomb;
}
);
width = 577;
}
);
unicode = 285;
},
{
glyphname = gcommaaccent;
lastChange = "2023-01-25 13:55:46 +0000";
layers = (
{
background = {
shapes = (
{
closed = 1;
nodes = (
(163,586,o),
(89,514,o),
(89,381,cs),
(89,319,o),
(109,268,o),
(147,231,c),
(99,185,ls),
(63,149,o),
(45,117,o),
(45,87,cs,{
name = hr01;
}),
(45,52,o),
(63,27,o),
(96,15,c),
(67,-9,o),
(45,-55,o),
(45,-93,cs),
(45,-188,o),
(134,-241,o),
(294,-241,cs),
(456,-241,o),
(546,-182,o),
(546,-75,cs),
(546,9,o),
(478,65,o),
(377,65,cs),
(159,65,ls),
(132,65,o),
(117,77,o),
(117,98,cs),
(117,114,o),
(125,130,o),
(140,145,cs),
(193,199,l),
(224,184,o),
(259,176,o),
(298,176,cs),
(434,176,o),
(507,248,o),
(507,381,cs,{
name = hr02;
}),
(507,433,o),
(491,481,o),
(461,517,c),
(539,517,l),
(539,572,l),
(381,572,l),
(355,581,o),
(327,586,o),
(298,586,cs)
);
},
{
closed = 1;
nodes = (
(380,529,o),
(433,471,o),
(433,381,cs),
(433,283,o),
(385,230,o),
(298,230,cs),
(217,230,o),
(163,290,o),
(163,381,cs),
(163,477,o),
(211,529,o),
(298,529,cs)
);
},
{
closed = 1;
nodes = (
(436,5,o),
(473,-24,o),
(473,-74,cs,{
name = hr04;
}),
(473,-147,o),
(412,-184,o),
(295,-184,cs),
(187,-184,o),
(119,-146,o),
(119,-85,cs),
(119,-53,o),
(130,-26,o),
(155,5,c),
(372,5,ls)
);
},
{
closed = 1;
nodes = (
(312,814,o),
(251,756,o),
(251,676,cs),
(251,650,o),
(268,629,o),
(297,629,cs),
(326,629,o),
(344,650,o),
(344,676,cs),
(344,699,o),
(331,714,o),
(331,737,cs),
(331,771,o),
(346,792,o),
(371,816,c),
(349,842,l,{
name = hr00;
})
);
}
);
};
layerId = master01;
shapes = (
{
ref = g;
},
{
angle = 180;
pos = (406,572);
ref = commaaccentcomb;
}
);
width = 577;
}
);
unicode = 291;
},
{
glyphname = gdotaccent;
lastChange = "2023-01-25 14:54:15 +0000";
layers = (
{
background = {
shapes = (
{
closed = 1;
nodes = (
(163,586,o),
(89,514,o),
(89,381,cs),
(89,319,o),
(109,268,o),
(147,231,c),
(99,185,ls),
(63,149,o),
(45,117,o),
(45,87,cs,{
name = hr01;
}),
(45,52,o),
(63,27,o),
(96,15,c),
(67,-9,o),
(45,-55,o),
(45,-93,cs),
(45,-188,o),
(134,-241,o),
(294,-241,cs),
(456,-241,o),
(546,-182,o),
(546,-75,cs),
(546,9,o),
(478,65,o),
(377,65,cs),
(159,65,ls),
(132,65,o),
(117,77,o),
(117,98,cs),
(117,114,o),
(125,130,o),
(140,145,cs),
(193,199,l),
(224,184,o),
(259,176,o),
(298,176,cs),
(434,176,o),
(507,248,o),
(507,381,cs,{
name = hr02;
}),
(507,433,o),
(491,481,o),
(461,517,c),
(539,517,l),
(539,572,l),
(381,572,l),
(355,581,o),
(327,586,o),
(298,586,cs)
);
},
{
closed = 1;
nodes = (
(380,529,o),
(433,471,o),
(433,381,cs),
(433,283,o),
(385,230,o),
(298,230,cs),
(217,230,o),
(163,290,o),
(163,381,cs),
(163,477,o),
(211,529,o),
(298,529,cs)
);
},
{
closed = 1;
nodes = (
(436,5,o),
(473,-24,o),
(473,-74,cs,{
name = hr04;
}),
(473,-147,o),
(412,-184,o),
(295,-184,cs),
(187,-184,o),
(119,-146,o),
(119,-85,cs),
(119,-53,o),
(130,-26,o),
(155,5,c),
(372,5,ls)
);
},
{
closed = 1;
nodes = (
(247,688,o),
(270,665,o),
(298,665,cs),
(325,665,o),
(349,688,o),
(349,716,cs),
(349,743,o),
(325,767,o),
(298,767,cs),
(270,767,o),
(247,743,o),
(247,716,cs,{
name = hr00;
})
);
}
);
};
layerId = master01;
shapes = (
{
ref = g;
},
{
pos = (143,0);
ref = dotaccentcomb;
}
);
width = 577;
}
);
unicode = 289;
},
{
glyphname = h;
lastChange = "2023-01-25 13:55:37 +0000";
layers = (
{
anchors = (
{
name = bottom;
pos = (352,0);
},
{
name = center;
pos = (352,494);
},
{
name = top;
pos = (352,987);
}
);
background = {
shapes = (
{
closed = 1;
nodes = (
(612,-14,o),
(636,-10,o),
(664,-1,c),
(655,59,l),
(645,56,o),
(626,53,o),
(613,53,cs),
(586,53,o),
(570,73,o),
(570,108,cs),
(570,407,ls),
(570,530,o),
(519,586,o),
(406,586,cs),
(337,586,o),
(258,555,o),
(194,503,c),
(194,740,ls),
(194,760,o),
(184,770,o),
(163,770,cs),
(57,770,l),
(57,718,l),
(127,710,l),
(127,59,l),
(57,52,l),
(57,0,l,{
name = hr01;
}),
(275,0,l),
(275,52,l),
(206,59,l),
(206,451,l),
(264,499,o),
(328,525,o),
(391,525,cs),
(463,525,o),
(491,492,o),
(491,407,cs),
(491,99,ls),
(491,21,o),
(521,-14,o),
(587,-14,c)
);
}
);
};
layerId = master01;
shapes = (
{
closed = 1;
nodes = (
(612,-14,o),
(636,-10,o),
(664,-1,c),
(655,59,l),
(645,56,o),
(626,53,o),
(613,53,cs),
(586,53,o),
(570,73,o),
(570,108,cs),
(570,407,ls),
(570,530,o),
(519,586,o),
(406,586,cs),
(337,586,o),
(258,555,o),
(194,503,c),
(194,740,ls),
(194,760,o),
(184,770,o),
(163,770,cs),
(57,770,l),
(57,718,l),
(127,710,l),
(127,59,l),
(57,52,l),
(57,0,l,{
name = hr01;
}),
(275,0,l),
(275,52,l),
(206,59,l),
(206,451,l),
(264,499,o),
(328,525,o),
(391,525,cs),
(463,525,o),
(491,492,o),
(491,407,cs),
(491,99,ls),
(491,21,o),
(521,-14,o),
(587,-14,c)
);
}
);
width = 703;
}
);
unicode = 104;
},
{
glyphname = hbar;
lastChange = "2023-01-25 13:55:05 +0000";
layers = (
{
background = {
shapes = (
{
closed = 1;
nodes = (
(612,-14,o),
(636,-10,o),
(664,-1,c),
(655,59,l),
(645,56,o),
(626,53,o),
(613,53,cs),
(586,53,o),
(570,73,o),
(570,108,cs),
(570,407,ls),
(570,530,o),
(519,586,o),
(406,586,cs),
(340,586,o),
(265,555,o),
(206,503,c),
(206,804,l),
(127,790,l),
(127,59,l),
(57,52,l),
(57,0,l,{
name = hr01;
}),
(275,0,l),
(275,52,l),
(206,59,l),
(206,451,l),
(264,499,o),
(328,525,o),
(391,525,cs),
(463,525,o),
(491,492,o),
(491,407,cs),
(491,99,ls),
(491,21,o),
(521,-14,o),
(587,-14,c)
);
},
{
closed = 1;
nodes = (
(350,730,l),
(36,730,l),
(36,668,l),
(350,668,l,{
name = hr00;
})
);
}
);
};
layerId = master01;
shapes = (
{
alignment = -1;
ref = h.bar;
},
{
alignment = -1;
pos = (36,357);
ref = barra;
scale = (0.8,1);
}
);
width = 703;
}
);
unicode = 295;
},
{
glyphname = hcircumflex;
lastChange = "2023-01-25 14:54:15 +0000";
layers = (
{
background = {
shapes = (
{
closed = 1;
nodes = (
(612,-14,o),
(636,-10,o),
(664,-1,c),
(655,59,l),
(644,55,o),
(627,53,o),
(613,53,cs),
(586,53,o),
(570,73,o),
(570,108,cs),
(570,407,ls),
(570,530,o),
(519,586,o),
(406,586,cs),
(337,586,o),
(258,555,o),
(194,503,c),
(194,700,ls),
(194,720,o),
(184,730,o),
(163,730,cs),
(57,730,l),
(57,678,l),
(127,670,l),
(127,59,l),
(57,52,l),
(57,0,l,{
name = hr01;
}),
(275,0,l),
(275,52,l),
(206,59,l),
(206,451,l),
(264,499,o),
(328,525,o),
(391,525,cs),
(463,525,o),
(491,492,o),
(491,407,cs),
(491,99,ls),
(491,21,o),
(521,-14,o),
(587,-14,c)
);
},
{
closed = 1;
nodes = (
(164,970,l),
(122,970,l),
(0,827,l),
(32,794,l),
(143,892,l),
(255,794,l),
(287,827,l,{
name = hr00;
})
);
}
);
};
layerId = master01;
shapes = (
{
ref = h;
},
{
pos = (151,257);
ref = circumflexcomb.case;
}
);
width = 703;
}
);
unicode = 293;
},
{
glyphname = i;
lastChange = "2023-01-25 14:54:15 +0000";
layers = (
{
background = {
shapes = (
{
closed = 1;
nodes = (
(200,562,o),
(190,572,o),
(170,572,cs),
(62,572,l),
(62,520,l),
(122,512,l),
(122,99,ls),
(122,21,o),
(152,-14,o),
(218,-14,cs),
(243,-14,o),
(267,-10,o),
(295,-1,c),
(285,59,l),
(275,55,o),
(259,53,o),
(244,53,cs),
(216,53,o),
(200,73,o),
(200,108,cs),
(200,541,ls,{
name = hr00;
})
);
},
{
closed = 1;
nodes = (
(111,688,o),
(134,665,o),
(162,665,cs),
(190,665,o),
(213,688,o),
(213,716,cs),
(213,743,o),
(189,767,o),
(162,767,cs),
(135,767,o),
(111,743,o),
(111,716,cs)
);
}
);
};
layerId = master01;
shapes = (
{
ref = idotless;
},
{
pos = (23,0);
ref = dotaccentcomb;
}
);
width = 337;
}
);
unicode = 105;
},
{
glyphname = idotless;
lastChange = "2023-01-25 13:55:37 +0000";
layers = (
{
anchors = (
{
name = bottom;
pos = (169,0);
},
{
name = ogonek;
pos = (303,10);
},
{
name = top;
pos = (169,572);
}
);
background = {
shapes = (
{
closed = 1;
nodes = (
(201,561,o),
(190,572,o),
(170,572,cs),
(62,572,l),
(62,520,l),
(122,512,l),
(122,99,ls),
(122,21,o),
(152,-14,o),
(218,-14,cs),
(248,-14,o),
(273,-8,o),
(295,-1,c),
(285,59,l),
(277,57,o),
(262,53,o),
(244,53,cs),
(218,53,o),
(200,71,o),
(200,108,cs),
(200,541,l,{
name = hr00;
})
);
}
);
};
layerId = master01;
shapes = (
{
closed = 1;
nodes = (
(201,561,o),
(190,572,o),
(170,572,cs),
(62,572,l),
(62,520,l),
(122,512,l),
(122,99,ls),
(122,21,o),
(152,-14,o),
(218,-14,cs),
(248,-14,o),
(273,-8,o),
(295,-1,c),
(285,59,l),
(277,57,o),
(262,53,o),
(244,53,cs),
(218,53,o),
(200,71,o),
(200,108,cs),
(200,541,l,{
name = hr00;
})
);
}
);
width = 337;
}
);
unicode = 305;
},
{
glyphname = iacute;
lastChange = "2023-01-25 14:54:15 +0000";
layers = (
{
background = {
shapes = (
{
closed = 1;
nodes = (
(201,561,o),
(190,572,o),
(170,572,cs),
(62,572,l),
(62,520,l),
(122,512,l),
(122,99,ls),
(122,21,o),
(152,-14,o),
(218,-14,cs),
(248,-14,o),
(273,-8,o),
(295,-1,c),
(285,59,l),
(277,57,o),
(262,53,o),
(244,53,cs),
(218,53,o),
(200,71,o),
(200,108,cs),
(200,541,l,{
name = hr00;
})
);
},
{
closed = 1;
nodes = (
(246,809,l),
(54,683,l),
(82,637,l),
(284,742,l,{
name = hr00;
})
);
}
);
};
layerId = master01;
shapes = (
{
ref = idotless;
},
{
pos = (4,0);
ref = acutecomb;
}
);
width = 337;
}
);
unicode = 237;
},
{
glyphname = ibreve;
lastChange = "2023-01-25 14:54:15 +0000";
layers = (
{
background = {
shapes = (
{
closed = 1;
nodes = (
(201,561,o),
(190,572,o),
(170,572,cs),
(62,572,l),
(62,520,l),
(122,512,l),
(122,99,ls),
(122,21,o),
(152,-14,o),
(218,-14,cs),
(248,-14,o),
(273,-8,o),
(295,-1,c),
(285,59,l),
(277,57,o),
(262,53,o),
(244,53,cs),
(218,53,o),
(200,71,o),
(200,108,cs),
(200,541,l,{
name = hr00;
})
);
},
{
closed = 1;
nodes = (
(232,732,o),
(207,706,o),
(162,706,cs),
(120,706,o),
(92,736,o),
(92,780,c),
(36,780,l),
(36,698,o),
(86,643,o),
(162,643,cs),
(245,643,o),
(289,691,o),
(289,780,c),
(232,780,l,{
name = hr00;
})
);
}
);
};
layerId = master01;
shapes = (
{
ref = idotless;
},
{
pos = (-44,0);
ref = brevecomb;
}
);
width = 337;
}
);
unicode = 301;
},
{
glyphname = icircumflex;
lastChange = "2023-01-25 14:54:15 +0000";
layers = (
{
background = {
shapes = (
{
closed = 1;
nodes = (
(201,561,o),
(190,572,o),
(170,572,cs),
(62,572,l),
(62,520,l),
(122,512,l),
(122,99,ls),
(122,21,o),
(152,-14,o),
(218,-14,cs),
(248,-14,o),
(273,-8,o),
(295,-1,c),
(285,59,l),
(277,57,o),
(262,53,o),
(244,53,cs),
(218,53,o),
(200,71,o),
(200,108,cs),
(200,541,l,{
name = hr00;
})
);
},
{
closed = 1;
nodes = (
(167,810,l),
(125,810,l),
(3,667,l),
(35,634,l),
(146,732,l),
(258,634,l),
(290,667,l,{
name = hr00;
})
);
}
);
};
layerId = master01;
shapes = (
{
ref = idotless;
},
{
pos = (-32,0);
ref = circumflexcomb;
}
);
width = 337;
}
);
unicode = 238;
},
{
glyphname = idieresis;
lastChange = "2023-01-25 14:54:15 +0000";
layers = (
{
background = {
shapes = (
{
closed = 1;
nodes = (
(201,561,o),
(190,572,o),
(170,572,cs),
(62,572,l),
(62,520,l),
(122,512,l),
(122,99,ls),
(122,21,o),
(152,-14,o),
(218,-14,cs),
(248,-14,o),
(273,-8,o),
(295,-1,c),
(285,59,l),
(277,57,o),
(262,53,o),
(244,53,cs),
(218,53,o),
(200,71,o),
(200,108,cs),
(200,541,l,{
name = hr00;
})
);
},
{
closed = 1;
nodes = (
(-4,689,o),
(19,666,o),
(46,666,cs),
(73,666,o),
(96,689,o),
(96,716,cs),
(96,743,o),
(73,766,o),
(46,766,cs),
(19,766,o),
(-4,743,o),
(-4,716,cs,{
name = hr00;
})
);
},
{
closed = 1;
nodes = (
(201,689,o),
(224,666,o),
(251,666,cs),
(278,666,o),
(301,689,o),
(301,716,cs),
(301,743,o),
(278,766,o),
(251,766,cs),
(224,766,o),
(201,743,o),
(201,716,cs)
);
}
);
};
layerId = master01;
shapes = (
{
ref = idotless;
},
{
pos = (-72,0);
ref = dieresiscomb;
}
);
width = 337;
}
);
unicode = 239;
},
{
glyphname = igrave;
lastChange = "2023-01-25 14:54:15 +0000";
layers = (
{
background = {
shapes = (
{
closed = 1;
nodes = (
(201,561,o),
(190,572,o),
(170,572,cs),
(62,572,l),
(62,520,l),
(122,512,l),
(122,99,ls),
(122,21,o),
(152,-14,o),
(218,-14,cs),
(248,-14,o),
(273,-8,o),
(295,-1,c),
(285,59,l),
(277,57,o),
(262,53,o),
(244,53,cs),
(218,53,o),
(200,71,o),
(200,108,cs),
(200,541,l,{
name = hr00;
})
);
},
{
closed = 1;
nodes = (
(92,809,l),
(283,683,l),
(256,637,l),
(53,742,l,{
name = hr00;
})
);
}
);
};
layerId = master01;
shapes = (
{
ref = idotless;
},
{
pos = (16,0);
ref = gravecomb;
}
);
width = 337;
}
);
unicode = 236;
},
{
glyphname = ij;
lastChange = "2023-01-25 13:55:22 +0000";
layers = (
{
background = {
shapes = (
{
closed = 1;
nodes = (
(200,562,o),
(190,572,o),
(170,572,cs),
(62,572,l),
(62,520,l),
(122,512,l),
(122,99,ls),
(122,21,o),
(152,-14,o),
(218,-14,cs),
(243,-14,o),
(267,-10,o),
(295,-1,c),
(285,59,l),
(275,55,o),
(259,53,o),
(244,53,cs),
(216,53,o),
(200,73,o),
(200,108,cs),
(200,541,ls,{
name = hr00;
})
);
},
{
closed = 1;
nodes = (
(111,688,o),
(134,665,o),
(162,665,cs),
(190,665,o),
(213,688,o),
(213,716,cs),
(213,743,o),
(189,767,o),
(162,767,cs),
(135,767,o),
(111,743,o),
(111,716,cs)
);
},
{
closed = 1;
nodes = (
(448,688,o),
(471,665,o),
(499,665,cs),
(527,665,o),
(550,688,o),
(550,716,cs),
(550,743,o),
(526,767,o),
(499,767,cs),
(472,767,o),
(448,743,o),
(448,716,cs,{
name = hr00;
})
);
},
{
closed = 1;
nodes = (
(537,562,o),
(527,572,o),
(507,572,cs),
(399,572,l),
(399,520,l),
(459,512,l),
(459,-37,ls),
(459,-140,o),
(430,-180,o),
(357,-180,cs),
(332,-180,o),
(305,-174,o),
(281,-162,c),
(262,-220,l),
(291,-233,o),
(334,-241,o),
(368,-241,cs),
(487,-241,o),
(537,-181,o),
(537,-39,cs),
(537,541,ls)
);
}
);
};
layerId = master01;
shapes = (
{
ref = i;
},
{
pos = (337,0);
ref = j;
}
);
width = 642;
}
);
unicode = 307;
},
{
glyphname = imacron;
lastChange = "2023-01-25 14:54:15 +0000";
layers = (
{
background = {
shapes = (
{
closed = 1;
nodes = (
(201,561,o),
(190,572,o),
(170,572,cs),
(62,572,l),
(62,520,l),
(122,512,l),
(122,99,ls),
(122,21,o),
(152,-14,o),
(218,-14,cs),
(248,-14,o),
(273,-8,o),
(295,-1,c),
(285,59,l),
(277,57,o),
(262,53,o),
(244,53,cs),
(218,53,o),
(200,71,o),
(200,108,cs),
(200,541,l,{
name = hr00;
})
);
},
{
closed = 1;
nodes = (
(276,760,l),
(22,760,l),
(22,693,l),
(276,693,l,{
name = hr00;
})
);
}
);
};
layerId = master01;
shapes = (
{
ref = idotless;
},
{
pos = (-8,0);
ref = macroncomb;
}
);
width = 337;
}
);
unicode = 299;
},
{
glyphname = iogonek;
lastChange = "2023-01-25 14:54:15 +0000";
layers = (
{
background = {
shapes = (
{
closed = 1;
nodes = (
(200,562,o),
(190,572,o),
(170,572,cs),
(62,572,l),
(62,520,l),
(122,512,l),
(122,99,ls),
(122,21,o),
(152,-14,o),
(218,-14,cs),
(243,-14,o),
(267,-10,o),
(295,-1,c),
(285,59,l),
(275,55,o),
(259,53,o),
(244,53,cs),
(216,53,o),
(200,73,o),
(200,108,cs),
(200,541,ls,{
name = hr00;
})
);
},
{
closed = 1;
nodes = (
(111,688,o),
(134,665,o),
(162,665,cs),
(190,665,o),
(213,688,o),
(213,716,cs),
(213,743,o),
(189,767,o),
(162,767,cs),
(135,767,o),
(111,743,o),
(111,716,cs)
);
},
{
closed = 1;
nodes = (
(185,30,l),
(149,8,ls),
(87,-30,o),
(52,-63,o),
(52,-120,cs),
(52,-178,o),
(86,-215,o),
(156,-215,cs),
(212,-215,o),
(260,-171,o),
(285,-122,c),
(247,-98,l),
(231,-127,o),
(203,-161,o),
(161,-161,cs),
(125,-161,o),
(104,-140,o),
(104,-109,cs),
(104,-80,o),
(114,-56,o),
(160,-27,cs),
(252,30,l,{
name = hr00;
})
);
}
);
};
layerId = master01;
shapes = (
{
ref = idotless;
},
{
pos = (23,0);
ref = dotaccentcomb;
},
{
pos = (24,-20);
ref = ogonekcomb;
}
);
width = 337;
}
);
unicode = 303;
},
{
glyphname = itilde;
lastChange = "2023-01-25 14:54:15 +0000";
layers = (
{
background = {
shapes = (
{
closed = 1;
nodes = (
(201,561,o),
(190,572,o),
(170,572,cs),
(62,572,l),
(62,520,l),
(122,512,l),
(122,99,ls),
(122,21,o),
(152,-14,o),
(218,-14,cs),
(248,-14,o),
(273,-8,o),
(295,-1,c),
(285,59,l),
(277,57,o),
(262,53,o),
(244,53,cs),
(218,53,o),
(200,71,o),
(200,108,cs),
(200,541,l,{
name = hr00;
})
);
},
{
closed = 1;
nodes = (
(251,758,o),
(237,742,o),
(213,742,cs),
(182,742,o),
(123,778,o),
(78,778,cs,{
name = hr01;
}),
(39,778,o),
(10,750,o),
(-8,683,c),
(39,669,l),
(47,697,o),
(62,712,o),
(86,712,cs),
(117,712,o),
(174,676,o),
(220,676,cs,{
name = hr02;
}),
(259,676,o),
(289,705,o),
(306,771,c),
(259,786,l)
);
}
);
};
layerId = master01;
shapes = (
{
ref = idotless;
},
{
pos = (-40,0);
ref = tildecomb;
}
);
width = 337;
}
);
unicode = 297;
},
{
glyphname = j;
lastChange = "2023-01-25 14:54:15 +0000";
layers = (
{
background = {
shapes = (
{
closed = 1;
nodes = (
(111,688,o),
(134,665,o),
(162,665,cs),
(190,665,o),
(213,688,o),
(213,716,cs),
(213,743,o),
(189,767,o),
(162,767,cs),
(135,767,o),
(111,743,o),
(111,716,cs,{
name = hr00;
})
);
},
{
closed = 1;
nodes = (
(200,562,o),
(190,572,o),
(170,572,cs),
(62,572,l),
(62,520,l),
(122,512,l),
(122,-37,ls),
(122,-140,o),
(93,-180,o),
(20,-180,cs),
(-5,-180,o),
(-32,-174,o),
(-56,-162,c),
(-75,-220,l),
(-46,-233,o),
(-3,-241,o),
(31,-241,cs),
(150,-241,o),
(200,-181,o),
(200,-39,cs),
(200,541,ls)
);
}
);
};
layerId = master01;
shapes = (
{
ref = jdotless;
},
{
pos = (7,0);
ref = dotaccentcomb;
}
);
width = 305;
}
);
unicode = 106;
},
{
glyphname = jdotless;
lastChange = "2023-01-25 13:55:37 +0000";
layers = (
{
anchors = (
{
name = bottom;
pos = (153,-243);
},
{
name = top;
pos = (153,572);
}
);
background = {
shapes = (
{
closed = 1;
nodes = (
(150,-241,o),
(200,-181,o),
(200,-39,cs),
(200,541,ls),
(200,561,o),
(191,572,o),
(170,572,cs),
(62,572,l),
(62,520,l),
(122,512,l),
(122,-37,ls),
(122,-140,o),
(93,-180,o),
(20,-180,cs),
(-5,-180,o),
(-32,-174,o),
(-56,-162,c),
(-75,-220,l),
(-46,-233,o),
(-3,-241,o),
(31,-241,cs,{
name = hr00;
})
);
}
);
};
layerId = master01;
shapes = (
{
closed = 1;
nodes = (
(150,-241,o),
(200,-181,o),
(200,-39,cs),
(200,541,ls),
(200,561,o),
(191,572,o),
(170,572,cs),
(62,572,l),
(62,520,l),
(122,512,l),
(122,-37,ls),
(122,-140,o),
(93,-180,o),
(20,-180,cs),
(-5,-180,o),
(-32,-174,o),
(-56,-162,c),
(-75,-220,l),
(-46,-233,o),
(-3,-241,o),
(31,-241,cs,{
name = hr00;
})
);
}
);
width = 305;
}
);
unicode = 567;
},
{
glyphname = jcircumflex;
lastChange = "2023-01-25 14:54:15 +0000";
layers = (
{
background = {
shapes = (
{
closed = 1;
nodes = (
(150,-241,o),
(200,-181,o),
(200,-39,cs),
(200,541,ls),
(200,561,o),
(191,572,o),
(170,572,cs),
(62,572,l),
(62,520,l),
(122,512,l),
(122,-37,ls),
(122,-140,o),
(93,-180,o),
(20,-180,cs),
(-5,-180,o),
(-32,-174,o),
(-56,-162,c),
(-75,-220,l),
(-46,-233,o),
(-3,-241,o),
(31,-241,cs,{
name = hr00;
})
);
},
{
closed = 1;
nodes = (
(173,810,l),
(131,810,l),
(9,667,l),
(41,634,l),
(152,732,l),
(264,634,l),
(296,667,l,{
name = hr00;
})
);
}
);
};
layerId = master01;
shapes = (
{
ref = jdotless;
},
{
pos = (-48,0);
ref = circumflexcomb;
}
);
width = 305;
}
);
unicode = 309;
},
{
glyphname = k;
lastChange = "2023-01-25 13:55:37 +0000";
layers = (
{
anchors = (
{
name = bottom;
pos = (302,0);
},
{
name = top;
pos = (302,987);
}
);
background = {
shapes = (
{
closed = 1;
nodes = (
(343,303,l),
(491,75,ls),
(502,57,o),
(518,49,o),
(540,49,cs),
(551,49,o),
(564,51,o),
(575,55,c),
(584,-1,l),
(562,-10,o),
(543,-14,o),
(522,-14,cs),
(483,-14,o),
(452,3,o),
(432,35,cs),
(274,281,l),
(206,281,l),
(206,59,l),
(286,52,l),
(286,0,l),
(57,0,l),
(57,52,l),
(127,59,l),
(127,710,l),
(57,718,l),
(57,770,l),
(175,770,ls),
(195,770,o),
(206,759,o),
(206,739,cs,{
name = hr01;
}),
(206,335,l),
(285,335,l),
(436,552,ls),
(446,568,o),
(453,572,o),
(473,572,cs),
(554,572,l),
(554,520,l),
(491,512,l)
);
}
);
};
layerId = master01;
shapes = (
{
closed = 1;
nodes = (
(343,303,l),
(491,75,ls),
(502,57,o),
(518,49,o),
(540,49,cs),
(551,49,o),
(564,51,o),
(575,55,c),
(584,-1,l),
(562,-10,o),
(543,-14,o),
(522,-14,cs),
(483,-14,o),
(452,3,o),
(432,35,cs),
(274,281,l),
(206,281,l),
(206,59,l),
(286,52,l),
(286,0,l),
(57,0,l),
(57,52,l),
(127,59,l),
(127,710,l),
(57,718,l),
(57,770,l),
(175,770,ls),
(195,770,o),
(206,759,o),
(206,739,cs,{
name = hr01;
}),
(206,335,l),
(285,335,l),
(436,552,ls),
(446,568,o),
(453,572,o),
(473,572,cs),
(554,572,l),
(554,520,l),
(491,512,l)
);
}
);
width = 603;
}
);
unicode = 107;
},
{
glyphname = kcommaaccent;
lastChange = "2023-01-25 14:54:15 +0000";
layers = (
{
background = {
shapes = (
{
closed = 1;
nodes = (
(343,303,l),
(491,75,ls),
(502,57,o),
(518,49,o),
(540,49,cs),
(551,49,o),
(564,51,o),
(575,55,c),
(584,-1,l),
(562,-10,o),
(543,-14,o),
(522,-14,cs),
(483,-14,o),
(452,3,o),
(432,35,cs),
(274,281,l),
(206,281,l),
(206,59,l),
(286,52,l),
(286,0,l),
(57,0,l),
(57,52,l),
(127,59,l),
(127,710,l),
(57,718,l),
(57,770,l),
(175,770,ls),
(195,770,o),
(206,759,o),
(206,739,cs,{
name = hr01;
}),
(206,335,l),
(285,335,l),
(436,552,ls),
(446,568,o),
(453,572,o),
(473,572,cs),
(554,572,l),
(554,520,l),
(491,512,l)
);
},
{
closed = 1;
nodes = (
(302,-253,o),
(363,-195,o),
(363,-115,cs),
(363,-89,o),
(346,-68,o),
(317,-68,cs),
(288,-68,o),
(270,-89,o),
(270,-115,cs),
(270,-138,o),
(283,-153,o),
(283,-176,cs),
(283,-210,o),
(268,-231,o),
(243,-255,c),
(265,-281,l,{
name = hr00;
})
);
}
);
};
layerId = master01;
shapes = (
{
ref = k;
},
{
pos = (185,0);
ref = commaaccentcomb;
}
);
width = 603;
}
);
unicode = 311;
},
{
glyphname = kgreenlandic;
lastChange = "2023-01-25 13:55:37 +0000";
layers = (
{
anchors = (
{
name = bottom;
pos = (302,0);
},
{
name = top;
pos = (302,572);
}
);
background = {
shapes = (
{
closed = 1;
nodes = (
(483,-14,o),
(452,3,o),
(432,35,cs),
(274,281,l),
(206,281,l),
(206,59,l),
(286,52,l),
(286,0,l),
(57,0,l),
(57,52,l),
(127,59,l),
(127,513,l),
(57,521,l),
(57,573,l),
(175,573,ls),
(195,573,o),
(206,562,o),
(206,542,cs,{
name = hr01;
}),
(206,335,l),
(285,335,l),
(436,552,ls),
(447,567,o),
(453,572,o),
(473,572,cs),
(554,572,l),
(554,520,l),
(491,512,l),
(343,303,l),
(491,75,ls),
(502,57,o),
(518,49,o),
(540,49,cs),
(551,49,o),
(564,51,o),
(575,55,c),
(584,-1,l),
(562,-10,o),
(543,-14,o),
(522,-14,c)
);
}
);
};
layerId = master01;
shapes = (
{
closed = 1;
nodes = (
(483,-14,o),
(452,3,o),
(432,35,cs),
(274,281,l),
(206,281,l),
(206,59,l),
(286,52,l),
(286,0,l),
(57,0,l),
(57,52,l),
(127,59,l),
(127,513,l),
(57,521,l),
(57,573,l),
(175,573,ls),
(195,573,o),
(206,562,o),
(206,542,cs,{
name = hr01;
}),
(206,335,l),
(285,335,l),
(436,552,ls),
(447,567,o),
(453,572,o),
(473,572,cs),
(554,572,l),
(554,520,l),
(491,512,l),
(343,303,l),
(491,75,ls),
(502,57,o),
(518,49,o),
(540,49,cs),
(551,49,o),
(564,51,o),
(575,55,c),
(584,-1,l),
(562,-10,o),
(543,-14,o),
(522,-14,c)
);
}
);
width = 603;
}
);
unicode = 312;
},
{
glyphname = l;
lastChange = "2023-01-25 13:55:37 +0000";
layers = (
{
anchors = (
{
name = bottom;
pos = (164,0);
},
{
name = center;
pos = (164,494);
},
{
name = top;
pos = (164,987);
},
{
name = topright;
pos = (308,987);
}
);
background = {
shapes = (
{
closed = 1;
nodes = (
(191,760,o),
(181,770,o),
(161,770,cs),
(52,770,l),
(52,718,l),
(112,710,l),
(112,99,ls),
(112,22,o),
(142,-14,o),
(208,-14,cs),
(233,-14,o),
(259,-10,o),
(285,-1,c),
(276,59,l),
(267,57,o),
(252,53,o),
(234,53,cs),
(207,53,o),
(191,73,o),
(191,108,cs),
(191,739,ls,{
name = hr00;
})
);
}
);
};
layerId = master01;
shapes = (
{
closed = 1;
nodes = (
(191,760,o),
(181,770,o),
(161,770,cs),
(52,770,l),
(52,718,l),
(112,710,l),
(112,99,ls),
(112,22,o),
(142,-14,o),
(208,-14,cs),
(233,-14,o),
(259,-10,o),
(285,-1,c),
(276,59,l),
(267,57,o),
(252,53,o),
(234,53,cs),
(207,53,o),
(191,73,o),
(191,108,cs),
(191,739,ls,{
name = hr00;
})
);
}
);
width = 328;
}
);
unicode = 108;
},
{
glyphname = lacute;
lastChange = "2023-01-25 14:54:15 +0000";
layers = (
{
background = {
shapes = (
{
closed = 1;
nodes = (
(234,-14,o),
(260,-10,o),
(285,-1,c),
(276,59,l),
(265,55,o),
(248,53,o),
(234,53,cs),
(207,53,o),
(191,73,o),
(191,108,cs),
(191,699,ls),
(191,720,o),
(181,730,o),
(161,730,cs),
(52,730,l),
(52,678,l),
(112,670,l),
(112,99,ls),
(112,22,o),
(142,-14,o),
(208,-14,c,{
name = hr00;
})
);
},
{
closed = 1;
nodes = (
(200,969,l),
(8,843,l),
(36,797,l),
(238,902,l,{
name = hr00;
})
);
}
);
};
layerId = master01;
shapes = (
{
ref = l;
},
{
pos = (-1,257);
ref = acutecomb.case;
}
);
width = 328;
}
);
unicode = 314;
},
{
glyphname = lcaron;
lastChange = "2023-01-25 14:54:15 +0000";
layers = (
{
background = {
shapes = (
{
closed = 1;
nodes = (
(191,760,o),
(181,770,o),
(161,770,cs),
(52,770,l),
(52,718,l),
(112,710,l),
(112,99,ls),
(112,22,o),
(142,-14,o),
(208,-14,cs),
(233,-14,o),
(259,-10,o),
(285,-1,c),
(276,59,l),
(267,57,o),
(252,53,o),
(234,53,cs),
(207,53,o),
(191,73,o),
(191,108,cs),
(191,739,ls,{
name = hr00;
})
);
},
{
closed = 1;
nodes = (
(302,592,o),
(363,656,o),
(363,742,cs),
(363,768,o),
(346,789,o),
(317,789,cs),
(288,789,o),
(270,768,o),
(270,742,cs),
(270,714,o),
(283,696,o),
(283,669,cs),
(283,635,o),
(268,612,o),
(243,589,c),
(265,563,l,{
name = hr00;
})
);
}
);
};
layerId = master01;
shapes = (
{
ref = l;
},
{
pos = (-37,415);
ref = caroncomb;
}
);
width = 328;
}
);
unicode = 318;
},
{
glyphname = lcommaaccent;
lastChange = "2023-01-25 14:54:15 +0000";
layers = (
{
background = {
shapes = (
{
closed = 1;
nodes = (
(191,760,o),
(181,770,o),
(161,770,cs),
(52,770,l),
(52,718,l),
(112,710,l),
(112,99,ls),
(112,22,o),
(142,-14,o),
(208,-14,cs),
(233,-14,o),
(259,-10,o),
(285,-1,c),
(276,59,l),
(267,57,o),
(252,53,o),
(234,53,cs),
(207,53,o),
(191,73,o),
(191,108,cs),
(191,739,ls,{
name = hr00;
})
);
},
{
closed = 1;
nodes = (
(156,-253,o),
(217,-195,o),
(217,-115,cs),
(217,-89,o),
(200,-68,o),
(171,-68,cs),
(142,-68,o),
(124,-89,o),
(124,-115,cs),
(124,-138,o),
(137,-153,o),
(137,-176,cs),
(137,-210,o),
(122,-231,o),
(97,-255,c),
(119,-281,l,{
name = hr00;
})
);
}
);
};
layerId = master01;
shapes = (
{
ref = l;
},
{
pos = (47,0);
ref = commaaccentcomb;
}
);
width = 328;
}
);
unicode = 316;
},
{
glyphname = ldot;
lastChange = "2023-01-25 13:55:22 +0000";
layers = (
{
background = {
shapes = (
{
closed = 1;
nodes = (
(191,760,o),
(181,770,o),
(161,770,cs),
(52,770,l),
(52,718,l),
(112,710,l),
(112,99,ls),
(112,22,o),
(142,-14,o),
(208,-14,cs),
(233,-14,o),
(259,-10,o),
(285,-1,c),
(276,59,l),
(267,57,o),
(252,53,o),
(234,53,cs),
(207,53,o),
(191,73,o),
(191,108,cs),
(191,739,ls,{
name = hr00;
})
);
},
{
closed = 1;
nodes = (
(258,378,o),
(283,353,o),
(313,353,cs),
(342,353,o),
(368,378,o),
(368,408,cs),
(368,437,o),
(342,463,o),
(313,463,cs),
(283,463,o),
(258,437,o),
(258,408,cs,{
name = hr00;
})
);
}
);
};
layerId = master01;
shapes = (
{
ref = l;
},
{
ref = periodcentered;
}
);
width = 328;
}
);
unicode = 320;
},
{
glyphname = lslash;
lastChange = "2023-01-25 13:55:05 +0000";
layers = (
{
background = {
shapes = (
{
closed = 1;
nodes = (
(191,760,o),
(181,770,o),
(161,770,cs),
(52,770,l),
(52,718,l),
(112,710,l),
(112,99,ls),
(112,22,o),
(142,-14,o),
(208,-14,cs),
(233,-14,o),
(259,-10,o),
(285,-1,c),
(276,59,l),
(267,57,o),
(252,53,o),
(234,53,cs),
(207,53,o),
(191,73,o),
(191,108,cs),
(191,739,ls,{
name = hr00;
})
);
},
{
closed = 1;
nodes = (
(279,458,l),
(27,357,l),
(27,301,l),
(279,402,l,{
name = hr00;
})
);
}
);
};
layerId = master01;
shapes = (
{
alignment = -1;
ref = l;
},
{
alignment = -1;
pos = (-11,0);
ref = eslash;
}
);
width = 328;
}
);
unicode = 322;
},
{
glyphname = m;
lastChange = "2023-01-25 13:55:37 +0000";
layers = (
{
anchors = (
{
name = bottom;
pos = (516,0);
},
{
name = top;
pos = (516,572);
}
);
background = {
shapes = (
{
closed = 1;
nodes = (
(481,10,o),
(491,0,o),
(512,0,cs),
(629,0,l),
(629,52,l),
(560,59,l),
(560,407,ls),
(560,421,o),
(559,436,o),
(556,459,c),
(609,502,o),
(664,525,o),
(718,525,cs),
(790,525,o),
(818,492,o),
(818,407,cs),
(818,99,ls),
(818,22,o),
(848,-14,o),
(914,-14,cs,{
name = hr01;
}),
(940,-14,o),
(965,-10,o),
(991,-1,c),
(982,59,l),
(972,55,o),
(956,53,o),
(940,53,cs),
(913,53,o),
(897,73,o),
(897,108,cs),
(897,407,ls),
(897,531,o),
(846,586,o),
(733,586,cs),
(671,586,o),
(602,558,o),
(542,509,c),
(518,561,o),
(471,586,o),
(396,586,cs),
(334,586,o),
(262,555,o),
(203,503,c),
(203,542,ls),
(203,562,o),
(193,572,o),
(172,572,cs,{
name = hr02;
}),
(66,572,l),
(66,520,l),
(136,512,l),
(136,59,l),
(66,52,l),
(66,0,l),
(285,0,l),
(285,52,l),
(215,59,l),
(215,451,l),
(269,500,o),
(325,525,o),
(381,525,cs,{
name = hr03;
}),
(453,525,o),
(481,492,o),
(481,407,cs),
(481,29,ls)
);
}
);
};
layerId = master01;
shapes = (
{
closed = 1;
nodes = (
(481,10,o),
(491,0,o),
(512,0,cs),
(629,0,l),
(629,52,l),
(560,59,l),
(560,407,ls),
(560,421,o),
(559,436,o),
(556,459,c),
(609,502,o),
(664,525,o),
(718,525,cs),
(790,525,o),
(818,492,o),
(818,407,cs),
(818,99,ls),
(818,22,o),
(848,-14,o),
(914,-14,cs,{
name = hr01;
}),
(940,-14,o),
(965,-10,o),
(991,-1,c),
(982,59,l),
(972,55,o),
(956,53,o),
(940,53,cs),
(913,53,o),
(897,73,o),
(897,108,cs),
(897,407,ls),
(897,531,o),
(846,586,o),
(733,586,cs),
(671,586,o),
(602,558,o),
(542,509,c),
(518,561,o),
(471,586,o),
(396,586,cs),
(334,586,o),
(262,555,o),
(203,503,c),
(203,542,ls),
(203,562,o),
(193,572,o),
(172,572,cs,{
name = hr02;
}),
(66,572,l),
(66,520,l),
(136,512,l),
(136,59,l),
(66,52,l),
(66,0,l),
(285,0,l),
(285,52,l),
(215,59,l),
(215,451,l),
(269,500,o),
(325,525,o),
(381,525,cs,{
name = hr03;
}),
(453,525,o),
(481,492,o),
(481,407,cs),
(481,29,ls)
);
}
);
width = 1031;
}
);
unicode = 109;
},
{
glyphname = n;
lastChange = "2023-01-25 13:55:37 +0000";
layers = (
{
anchors = (
{
name = bottom;
pos = (357,0);
},
{
name = top;
pos = (357,572);
}
);
background = {
shapes = (
{
closed = 1;
nodes = (
(500,22,o),
(530,-14,o),
(596,-14,cs),
(622,-14,o),
(647,-10,o),
(673,-1,c),
(664,59,l),
(648,55,o),
(634,53,o),
(622,53,cs),
(595,53,o),
(579,73,o),
(579,108,cs),
(579,407,ls),
(579,531,o),
(528,586,o),
(415,586,cs),
(347,586,o),
(268,555,o),
(203,503,c),
(203,542,ls),
(203,562,o),
(193,572,o),
(172,572,cs,{
name = hr01;
}),
(66,572,l),
(66,520,l),
(136,512,l),
(136,59,l),
(66,52,l),
(66,0,l),
(285,0,l),
(285,52,l),
(215,59,l),
(215,451,l),
(274,500,o),
(338,525,o),
(400,525,cs,{
name = hr02;
}),
(472,525,o),
(500,492,o),
(500,407,cs),
(500,99,ls)
);
}
);
};
layerId = master01;
shapes = (
{
closed = 1;
nodes = (
(500,22,o),
(530,-14,o),
(596,-14,cs),
(622,-14,o),
(647,-10,o),
(673,-1,c),
(664,59,l),
(648,55,o),
(634,53,o),
(622,53,cs),
(595,53,o),
(579,73,o),
(579,108,cs),
(579,407,ls),
(579,531,o),
(528,586,o),
(415,586,cs),
(347,586,o),
(268,555,o),
(203,503,c),
(203,542,ls),
(203,562,o),
(193,572,o),
(172,572,cs,{
name = hr01;
}),
(66,572,l),
(66,520,l),
(136,512,l),
(136,59,l),
(66,52,l),
(66,0,l),
(285,0,l),
(285,52,l),
(215,59,l),
(215,451,l),
(274,500,o),
(338,525,o),
(400,525,cs,{
name = hr02;
}),
(472,525,o),
(500,492,o),
(500,407,cs),
(500,99,ls)
);
}
);
width = 713;
}
);
unicode = 110;
},
{
glyphname = nacute;
lastChange = "2023-01-25 14:07:49 +0000";
layers = (
{
background = {
shapes = (
{
closed = 1;
nodes = (
(500,22,o),
(530,-14,o),
(596,-14,cs),
(622,-14,o),
(647,-10,o),
(673,-1,c),
(664,59,l),
(648,55,o),
(634,53,o),
(622,53,cs),
(595,53,o),
(579,73,o),
(579,108,cs),
(579,407,ls),
(579,531,o),
(528,586,o),
(415,586,cs),
(347,586,o),
(268,555,o),
(203,503,c),
(203,542,ls),
(203,562,o),
(193,572,o),
(172,572,cs,{
name = hr01;
}),
(66,572,l),
(66,520,l),
(136,512,l),
(136,59,l),
(66,52,l),
(66,0,l),
(285,0,l),
(285,52,l),
(215,59,l),
(215,451,l),
(274,500,o),
(338,525,o),
(400,525,cs,{
name = hr02;
}),
(472,525,o),
(500,492,o),
(500,407,cs),
(500,99,ls)
);
},
{
closed = 1;
nodes = (
(433,809,l),
(241,683,l),
(269,637,l),
(471,742,l,{
name = hr00;
})
);
}
);
};
layerId = master01;
shapes = (
{
ref = n;
},
{
pos = (192,0);
ref = acutecomb;
}
);
width = 713;
}
);
unicode = 324;
},
{
glyphname = napostrophe;
lastChange = "2023-01-25 13:55:46 +0000";
layers = (
{
background = {
shapes = (
{
closed = 1;
nodes = (
(500,22,o),
(530,-14,o),
(596,-14,cs),
(622,-14,o),
(647,-10,o),
(673,-1,c),
(664,59,l),
(648,55,o),
(634,53,o),
(622,53,cs),
(595,53,o),
(579,73,o),
(579,108,cs),
(579,407,ls),
(579,531,o),
(528,586,o),
(415,586,cs),
(347,586,o),
(268,555,o),
(203,503,c),
(203,542,ls),
(203,562,o),
(193,572,o),
(172,572,cs,{
name = hr01;
}),
(66,572,l),
(66,520,l),
(136,512,l),
(136,59,l),
(66,52,l),
(66,0,l),
(285,0,l),
(285,52,l),
(215,59,l),
(215,451,l),
(274,500,o),
(338,525,o),
(400,525,cs,{
name = hr02;
}),
(472,525,o),
(500,492,o),
(500,407,cs),
(500,99,ls)
);
},
{
closed = 1;
nodes = (
(-6,595,o),
(55,653,o),
(55,733,cs),
(55,759,o),
(38,780,o),
(9,780,cs),
(-20,780,o),
(-38,759,o),
(-38,733,cs),
(-38,710,o),
(-25,695,o),
(-25,672,cs),
(-25,638,o),
(-40,617,o),
(-65,593,c),
(-43,567,l,{
name = hr00;
})
);
}
);
};
layerId = master01;
shapes = (
{
ref = n;
},
{
pos = (240,0);
ref = commaaccentcomb;
}
);
width = 713;
}
);
unicode = 329;
},
{
glyphname = ncaron;
lastChange = "2023-01-25 14:07:49 +0000";
layers = (
{
background = {
shapes = (
{
closed = 1;
nodes = (
(500,22,o),
(530,-14,o),
(596,-14,cs),
(622,-14,o),
(647,-10,o),
(673,-1,c),
(664,59,l),
(648,55,o),
(634,53,o),
(622,53,cs),
(595,53,o),
(579,73,o),
(579,108,cs),
(579,407,ls),
(579,531,o),
(528,586,o),
(415,586,cs),
(347,586,o),
(268,555,o),
(203,503,c),
(203,542,ls),
(203,562,o),
(193,572,o),
(172,572,cs,{
name = hr01;
}),
(66,572,l),
(66,520,l),
(136,512,l),
(136,59,l),
(66,52,l),
(66,0,l),
(285,0,l),
(285,52,l),
(215,59,l),
(215,451,l),
(274,500,o),
(338,525,o),
(400,525,cs,{
name = hr02;
}),
(472,525,o),
(500,492,o),
(500,407,cs),
(500,99,ls)
);
},
{
closed = 1;
nodes = (
(377,644,l),
(335,644,l),
(213,787,l),
(245,820,l),
(356,722,l),
(468,820,l),
(500,787,l,{
name = hr00;
})
);
}
);
};
layerId = master01;
shapes = (
{
ref = n;
},
{
pos = (156,0);
ref = caroncomb;
}
);
width = 713;
}
);
unicode = 328;
},
{
glyphname = ncommaaccent;
lastChange = "2023-01-25 14:07:49 +0000";
layers = (
{
background = {
shapes = (
{
closed = 1;
nodes = (
(500,22,o),
(530,-14,o),
(596,-14,cs),
(622,-14,o),
(647,-10,o),
(673,-1,c),
(664,59,l),
(648,55,o),
(634,53,o),
(622,53,cs),
(595,53,o),
(579,73,o),
(579,108,cs),
(579,407,ls),
(579,531,o),
(528,586,o),
(415,586,cs),
(347,586,o),
(268,555,o),
(203,503,c),
(203,542,ls),
(203,562,o),
(193,572,o),
(172,572,cs,{
name = hr01;
}),
(66,572,l),
(66,520,l),
(136,512,l),
(136,59,l),
(66,52,l),
(66,0,l),
(285,0,l),
(285,52,l),
(215,59,l),
(215,451,l),
(274,500,o),
(338,525,o),
(400,525,cs,{
name = hr02;
}),
(472,525,o),
(500,492,o),
(500,407,cs),
(500,99,ls)
);
},
{
closed = 1;
nodes = (
(364,-253,o),
(425,-195,o),
(425,-115,cs),
(425,-89,o),
(408,-68,o),
(379,-68,cs),
(350,-68,o),
(332,-89,o),
(332,-115,cs),
(332,-138,o),
(345,-153,o),
(345,-176,cs),
(345,-210,o),
(330,-231,o),
(305,-255,c),
(327,-281,l,{
name = hr00;
})
);
}
);
};
layerId = master01;
shapes = (
{
ref = n;
},
{
pos = (240,0);
ref = commaaccentcomb;
}
);
width = 713;
}
);
unicode = 326;
},
{
glyphname = ntilde;
lastChange = "2023-01-25 14:07:49 +0000";
layers = (
{
background = {
shapes = (
{
closed = 1;
nodes = (
(500,22,o),
(530,-14,o),
(596,-14,cs),
(622,-14,o),
(647,-10,o),
(673,-1,c),
(664,59,l),
(648,55,o),
(634,53,o),
(622,53,cs),
(595,53,o),
(579,73,o),
(579,108,cs),
(579,407,ls),
(579,531,o),
(528,586,o),
(415,586,cs),
(347,586,o),
(268,555,o),
(203,503,c),
(203,542,ls),
(203,562,o),
(193,572,o),
(172,572,cs,{
name = hr01;
}),
(66,572,l),
(66,520,l),
(136,512,l),
(136,59,l),
(66,52,l),
(66,0,l),
(285,0,l),
(285,52,l),
(215,59,l),
(215,451,l),
(274,500,o),
(338,525,o),
(400,525,cs,{
name = hr02;
}),
(472,525,o),
(500,492,o),
(500,407,cs),
(500,99,ls)
);
},
{
closed = 1;
nodes = (
(457,758,o),
(443,742,o),
(419,742,cs),
(388,742,o),
(329,778,o),
(284,778,cs,{
name = hr01;
}),
(245,778,o),
(216,750,o),
(198,683,c),
(245,669,l),
(253,697,o),
(268,712,o),
(292,712,cs),
(323,712,o),
(380,676,o),
(426,676,cs,{
name = hr02;
}),
(465,676,o),
(495,705,o),
(512,771,c),
(465,786,l)
);
}
);
};
layerId = master01;
shapes = (
{
ref = n;
},
{
pos = (148,0);
ref = tildecomb;
}
);
width = 713;
}
);
unicode = 241;
},
{
glyphname = eng;
lastChange = "2023-01-25 13:55:37 +0000";
layers = (
{
anchors = (
{
name = bottom;
pos = (342,0);
},
{
name = top;
pos = (342,572);
}
);
background = {
shapes = (
{
closed = 1;
nodes = (
(529,-241,o),
(579,-181,o),
(579,-39,cs),
(579,407,ls),
(579,531,o),
(528,586,o),
(415,586,cs),
(347,586,o),
(268,555,o),
(203,503,c),
(203,542,ls),
(203,562,o),
(193,572,o),
(172,572,cs,{
name = hr01;
}),
(66,572,l),
(66,520,l),
(136,512,l),
(136,59,l),
(66,52,l),
(66,0,l),
(285,0,l),
(285,52,l),
(215,59,l),
(215,451,l),
(274,500,o),
(338,525,o),
(400,525,cs,{
name = hr02;
}),
(472,525,o),
(500,492,o),
(500,407,cs),
(500,-37,ls),
(500,-140,o),
(472,-180,o),
(399,-180,cs),
(374,-180,o),
(347,-174,o),
(323,-162,c),
(304,-220,l),
(333,-233,o),
(376,-241,o),
(410,-241,c)
);
}
);
};
layerId = master01;
shapes = (
{
closed = 1;
nodes = (
(529,-241,o),
(579,-181,o),
(579,-39,cs),
(579,407,ls),
(579,531,o),
(528,586,o),
(415,586,cs),
(347,586,o),
(268,555,o),
(203,503,c),
(203,542,ls),
(203,562,o),
(193,572,o),
(172,572,cs,{
name = hr01;
}),
(66,572,l),
(66,520,l),
(136,512,l),
(136,59,l),
(66,52,l),
(66,0,l),
(285,0,l),
(285,52,l),
(215,59,l),
(215,451,l),
(274,500,o),
(338,525,o),
(400,525,cs,{
name = hr02;
}),
(472,525,o),
(500,492,o),
(500,407,cs),
(500,-37,ls),
(500,-140,o),
(472,-180,o),
(399,-180,cs),
(374,-180,o),
(347,-174,o),
(323,-162,c),
(304,-220,l),
(333,-233,o),
(376,-241,o),
(410,-241,c)
);
}
);
width = 683;
}
);
unicode = 331;
},
{
glyphname = o;
lastChange = "2023-01-25 13:55:37 +0000";
layers = (
{
anchors = (
{
name = bottom;
pos = (311,0);
},
{
name = center;
pos = (311,286);
},
{
name = ogonek;
pos = (559,10);
},
{
name = top;
pos = (311,572);
},
{
name = topright;
pos = (601,572);
}
);
background = {
shapes = (
{
closed = 1;
nodes = (
(149,586,o),
(62,481,o),
(62,286,cs),
(62,106,o),
(162,-14,o),
(310,-14,cs),
(473,-14,o),
(560,91,o),
(560,286,cs),
(560,466,o),
(460,586,o),
(310,586,cs,{
name = hr00;
})
);
},
{
closed = 1;
nodes = (
(413,525,o),
(481,429,o),
(481,286,cs),
(481,130,o),
(421,47,o),
(310,47,cs),
(209,47,o),
(140,144,o),
(140,286,cs),
(140,441,o),
(200,525,o),
(310,525,cs)
);
}
);
};
layerId = master01;
shapes = (
{
closed = 1;
nodes = (
(149,586,o),
(62,481,o),
(62,286,cs),
(62,106,o),
(162,-14,o),
(310,-14,cs),
(473,-14,o),
(560,91,o),
(560,286,cs),
(560,466,o),
(460,586,o),
(310,586,cs,{
name = hr00;
})
);
},
{
closed = 1;
nodes = (
(413,525,o),
(481,429,o),
(481,286,cs),
(481,130,o),
(421,47,o),
(310,47,cs),
(209,47,o),
(140,144,o),
(140,286,cs),
(140,441,o),
(200,525,o),
(310,525,cs)
);
}
);
width = 621;
}
);
unicode = 111;
},
{
glyphname = oacute;
lastChange = "2023-01-25 14:07:49 +0000";
layers = (
{
background = {
shapes = (
{
closed = 1;
nodes = (
(149,586,o),
(62,481,o),
(62,286,cs),
(62,106,o),
(162,-14,o),
(310,-14,cs),
(473,-14,o),
(560,91,o),
(560,286,cs),
(560,466,o),
(460,586,o),
(310,586,cs,{
name = hr00;
})
);
},
{
closed = 1;
nodes = (
(413,525,o),
(481,429,o),
(481,286,cs),
(481,130,o),
(421,47,o),
(310,47,cs),
(209,47,o),
(140,144,o),
(140,286,cs),
(140,441,o),
(200,525,o),
(310,525,cs)
);
},
{
closed = 1;
nodes = (
(386,809,l),
(194,683,l),
(222,637,l),
(424,742,l,{
name = hr00;
})
);
}
);
};
layerId = master01;
shapes = (
{
ref = o;
},
{
pos = (146,0);
ref = acutecomb;
}
);
width = 621;
}
);
unicode = 243;
},
{
glyphname = obreve;
lastChange = "2023-01-25 14:07:49 +0000";
layers = (
{
background = {
shapes = (
{
closed = 1;
nodes = (
(149,586,o),
(62,481,o),
(62,286,cs),
(62,106,o),
(162,-14,o),
(310,-14,cs),
(473,-14,o),
(560,91,o),
(560,286,cs),
(560,466,o),
(460,586,o),
(310,586,cs,{
name = hr00;
})
);
},
{
closed = 1;
nodes = (
(413,525,o),
(481,429,o),
(481,286,cs),
(481,130,o),
(421,47,o),
(310,47,cs),
(209,47,o),
(140,144,o),
(140,286,cs),
(140,441,o),
(200,525,o),
(310,525,cs)
);
},
{
closed = 1;
nodes = (
(380,732,o),
(355,706,o),
(310,706,cs),
(268,706,o),
(240,736,o),
(240,780,c),
(184,780,l),
(184,698,o),
(234,643,o),
(310,643,cs),
(393,643,o),
(437,691,o),
(437,780,c),
(380,780,l,{
name = hr00;
})
);
}
);
};
layerId = master01;
shapes = (
{
ref = o;
},
{
pos = (98,0);
ref = brevecomb;
}
);
width = 621;
}
);
unicode = 335;
},
{
glyphname = ocircumflex;
lastChange = "2023-01-25 14:07:49 +0000";
layers = (
{
background = {
shapes = (
{
closed = 1;
nodes = (
(149,586,o),
(62,481,o),
(62,286,cs),
(62,106,o),
(162,-14,o),
(310,-14,cs),
(473,-14,o),
(560,91,o),
(560,286,cs),
(560,466,o),
(460,586,o),
(310,586,cs,{
name = hr00;
})
);
},
{
closed = 1;
nodes = (
(413,525,o),
(481,429,o),
(481,286,cs),
(481,130,o),
(421,47,o),
(310,47,cs),
(209,47,o),
(140,144,o),
(140,286,cs),
(140,441,o),
(200,525,o),
(310,525,cs)
);
},
{
closed = 1;
nodes = (
(327,810,l),
(285,810,l),
(163,667,l),
(195,634,l),
(306,732,l),
(418,634,l),
(450,667,l,{
name = hr00;
})
);
}
);
};
layerId = master01;
shapes = (
{
ref = o;
},
{
pos = (110,0);
ref = circumflexcomb;
}
);
width = 621;
}
);
unicode = 244;
},
